<svg width="349" height="168" viewBox="0 0 349 168" fill="none" xmlns="http://www.w3.org/2000/svg">
<g filter="url(#filter0_d_58_11)">
<rect x="4" width="341" height="160" fill="white"/>
</g>
<path d="M53.824 52H52.624C52.4853 52 52.3733 51.9653 52.288 51.896C52.2027 51.8267 52.1387 51.7387 52.096 51.632L51.024 48.864H45.88L44.808 51.632C44.7707 51.728 44.7067 51.8133 44.616 51.888C44.5253 51.9627 44.4133 52 44.28 52H43.08L47.664 40.536H49.24L53.824 52ZM46.312 47.744H50.592L48.792 43.08C48.6747 42.792 48.56 42.432 48.448 42C48.3893 42.2187 48.3307 42.4213 48.272 42.608C48.2187 42.7893 48.1653 42.9493 48.112 43.088L46.312 47.744ZM55.043 54.744V43.896H55.891C56.0937 43.896 56.2217 43.9947 56.275 44.192L56.395 45.152C56.7417 44.7307 57.1363 44.392 57.579 44.136C58.027 43.88 58.5417 43.752 59.123 43.752C59.587 43.752 60.0083 43.8427 60.387 44.024C60.7657 44.2 61.0883 44.464 61.355 44.816C61.6217 45.1627 61.827 45.5947 61.971 46.112C62.115 46.6293 62.187 47.224 62.187 47.896C62.187 48.4933 62.107 49.0507 61.947 49.568C61.787 50.08 61.5577 50.5253 61.259 50.904C60.9603 51.2773 60.5923 51.5733 60.155 51.792C59.723 52.0053 59.235 52.112 58.691 52.112C58.1897 52.112 57.7603 52.0293 57.403 51.864C57.051 51.6987 56.739 51.464 56.467 51.16V54.744H55.043ZM58.651 44.904C58.187 44.904 57.779 45.0107 57.427 45.224C57.0803 45.4373 56.7603 45.7387 56.467 46.128V50.048C56.7283 50.4 57.0137 50.648 57.323 50.792C57.6377 50.936 57.987 51.008 58.371 51.008C59.123 51.008 59.7017 50.7387 60.107 50.2C60.5123 49.6613 60.715 48.8933 60.715 47.896C60.715 47.368 60.667 46.9147 60.571 46.536C60.4803 46.1573 60.347 45.848 60.171 45.608C59.995 45.3627 59.779 45.184 59.523 45.072C59.267 44.96 58.9763 44.904 58.651 44.904ZM63.8711 54.744V43.896H64.7191C64.9218 43.896 65.0498 43.9947 65.1031 44.192L65.2231 45.152C65.5698 44.7307 65.9645 44.392 66.4071 44.136C66.8551 43.88 67.3698 43.752 67.9511 43.752C68.4151 43.752 68.8365 43.8427 69.2151 44.024C69.5938 44.2 69.9165 44.464 70.1831 44.816C70.4498 45.1627 70.6551 45.5947 70.7991 46.112C70.9431 46.6293 71.0151 47.224 71.0151 47.896C71.0151 48.4933 70.9351 49.0507 70.7751 49.568C70.6151 50.08 70.3858 50.5253 70.0871 50.904C69.7885 51.2773 69.4205 51.5733 68.9831 51.792C68.5511 52.0053 68.0631 52.112 67.5191 52.112C67.0178 52.112 66.5885 52.0293 66.2311 51.864C65.8791 51.6987 65.5671 51.464 65.2951 51.16V54.744H63.8711ZM67.4791 44.904C67.0151 44.904 66.6071 45.0107 66.2551 45.224C65.9085 45.4373 65.5885 45.7387 65.2951 46.128V50.048C65.5565 50.4 65.8418 50.648 66.1511 50.792C66.4658 50.936 66.8151 51.008 67.1991 51.008C67.9511 51.008 68.5298 50.7387 68.9351 50.2C69.3405 49.6613 69.5431 48.8933 69.5431 47.896C69.5431 47.368 69.4951 46.9147 69.3991 46.536C69.3085 46.1573 69.1751 45.848 68.9991 45.608C68.8231 45.3627 68.6071 45.184 68.3511 45.072C68.0951 44.96 67.8045 44.904 67.4791 44.904ZM81.889 42.328C81.841 42.408 81.7903 42.4693 81.737 42.512C81.6837 42.5493 81.6143 42.568 81.529 42.568C81.4383 42.568 81.3317 42.5227 81.209 42.432C81.0917 42.3413 80.9397 42.2427 80.753 42.136C80.5717 42.024 80.3503 41.9227 80.089 41.832C79.833 41.7413 79.521 41.696 79.153 41.696C78.8063 41.696 78.4997 41.744 78.233 41.84C77.9663 41.9307 77.7423 42.056 77.561 42.216C77.385 42.376 77.2517 42.5653 77.161 42.784C77.0703 42.9973 77.025 43.2293 77.025 43.48C77.025 43.8 77.1023 44.0667 77.257 44.28C77.417 44.488 77.625 44.6667 77.881 44.816C78.1423 44.9653 78.4357 45.096 78.761 45.208C79.0917 45.3147 79.4277 45.4267 79.769 45.544C80.1157 45.6613 80.4517 45.7947 80.777 45.944C81.1077 46.088 81.401 46.272 81.657 46.496C81.9183 46.72 82.1263 46.9947 82.281 47.32C82.441 47.6453 82.521 48.0453 82.521 48.52C82.521 49.0213 82.4357 49.4933 82.265 49.936C82.0943 50.3733 81.8437 50.7547 81.513 51.08C81.1877 51.4053 80.785 51.6613 80.305 51.848C79.8303 52.0347 79.289 52.128 78.681 52.128C77.9397 52.128 77.2623 51.9947 76.649 51.728C76.041 51.456 75.521 51.0907 75.089 50.632L75.537 49.896C75.5797 49.8373 75.6303 49.7893 75.689 49.752C75.753 49.7093 75.8223 49.688 75.897 49.688C76.009 49.688 76.137 49.7493 76.281 49.872C76.425 49.9893 76.6037 50.12 76.817 50.264C77.0357 50.408 77.297 50.5413 77.601 50.664C77.9103 50.7813 78.2863 50.84 78.729 50.84C79.097 50.84 79.425 50.7893 79.713 50.688C80.001 50.5867 80.2437 50.4453 80.441 50.264C80.6437 50.0773 80.7983 49.856 80.905 49.6C81.0117 49.344 81.065 49.0587 81.065 48.744C81.065 48.3973 80.985 48.1147 80.825 47.896C80.6703 47.672 80.465 47.4853 80.209 47.336C79.953 47.1867 79.6597 47.0613 79.329 46.96C79.0037 46.8533 78.6677 46.7467 78.321 46.64C77.9797 46.528 77.6437 46.4 77.313 46.256C76.9877 46.112 76.697 45.9253 76.441 45.696C76.185 45.4667 75.977 45.1813 75.817 44.84C75.6623 44.4933 75.585 44.0667 75.585 43.56C75.585 43.1547 75.6623 42.7627 75.817 42.384C75.977 42.0053 76.2063 41.6693 76.505 41.376C76.8037 41.0827 77.1717 40.848 77.609 40.672C78.0517 40.496 78.5583 40.408 79.129 40.408C79.769 40.408 80.353 40.5093 80.881 40.712C81.409 40.9147 81.8703 41.208 82.265 41.592L81.889 42.328ZM87.4854 43.768C87.9707 43.768 88.4187 43.8507 88.8294 44.016C89.24 44.176 89.5947 44.4107 89.8934 44.72C90.192 45.024 90.424 45.4027 90.5894 45.856C90.76 46.304 90.8454 46.816 90.8454 47.392C90.8454 47.616 90.8214 47.7653 90.7734 47.84C90.7254 47.9147 90.6347 47.952 90.5014 47.952H85.1094C85.12 48.464 85.1894 48.9093 85.3174 49.288C85.4454 49.6667 85.6214 49.984 85.8454 50.24C86.0694 50.4907 86.336 50.68 86.6454 50.808C86.9547 50.9307 87.3014 50.992 87.6854 50.992C88.0427 50.992 88.3494 50.952 88.6054 50.872C88.8667 50.7867 89.0907 50.696 89.2774 50.6C89.464 50.504 89.6187 50.416 89.7414 50.336C89.8694 50.2507 89.9787 50.208 90.0694 50.208C90.1867 50.208 90.2774 50.2533 90.3414 50.344L90.7414 50.864C90.5654 51.0773 90.3547 51.264 90.1094 51.424C89.864 51.5787 89.6 51.7067 89.3174 51.808C89.04 51.9093 88.752 51.984 88.4534 52.032C88.1547 52.0853 87.8587 52.112 87.5654 52.112C87.0054 52.112 86.488 52.0187 86.0134 51.832C85.544 51.64 85.136 51.3627 84.7894 51C84.448 50.632 84.1814 50.1787 83.9894 49.64C83.7974 49.1013 83.7014 48.4827 83.7014 47.784C83.7014 47.2187 83.7867 46.6907 83.9574 46.2C84.1334 45.7093 84.384 45.2853 84.7094 44.928C85.0347 44.5653 85.432 44.2827 85.9014 44.08C86.3707 43.872 86.8987 43.768 87.4854 43.768ZM87.5174 44.816C86.8294 44.816 86.288 45.016 85.8934 45.416C85.4987 45.8107 85.2534 46.36 85.1574 47.064H89.5654C89.5654 46.7333 89.52 46.432 89.4294 46.16C89.3387 45.8827 89.2054 45.6453 89.0294 45.448C88.8534 45.2453 88.6374 45.0907 88.3814 44.984C88.1307 44.872 87.8427 44.816 87.5174 44.816ZM95.124 52.128C94.484 52.128 93.9907 51.9493 93.644 51.592C93.3027 51.2347 93.132 50.72 93.132 50.048V45.088H92.156C92.0707 45.088 91.9987 45.064 91.94 45.016C91.8813 44.9627 91.852 44.8827 91.852 44.776V44.208L93.18 44.04L93.508 41.536C93.5187 41.456 93.5533 41.392 93.612 41.344C93.6707 41.2907 93.7453 41.264 93.836 41.264H94.556V44.056H96.876V45.088H94.556V49.952C94.556 50.2933 94.6387 50.5467 94.804 50.712C94.9693 50.8773 95.1827 50.96 95.444 50.96C95.5933 50.96 95.7213 50.9413 95.828 50.904C95.94 50.8613 96.036 50.816 96.116 50.768C96.196 50.72 96.2627 50.6773 96.316 50.64C96.3747 50.5973 96.4253 50.576 96.468 50.576C96.5427 50.576 96.6093 50.6213 96.668 50.712L97.084 51.392C96.8387 51.6213 96.5427 51.8027 96.196 51.936C95.8493 52.064 95.492 52.128 95.124 52.128ZM101.093 52.128C100.453 52.128 99.9594 51.9493 99.6128 51.592C99.2714 51.2347 99.1008 50.72 99.1008 50.048V45.088H98.1248C98.0394 45.088 97.9674 45.064 97.9088 45.016C97.8501 44.9627 97.8208 44.8827 97.8208 44.776V44.208L99.1488 44.04L99.4768 41.536C99.4874 41.456 99.5221 41.392 99.5807 41.344C99.6394 41.2907 99.7141 41.264 99.8048 41.264H100.525V44.056H102.845V45.088H100.525V49.952C100.525 50.2933 100.607 50.5467 100.773 50.712C100.938 50.8773 101.151 50.96 101.413 50.96C101.562 50.96 101.69 50.9413 101.797 50.904C101.909 50.8613 102.005 50.816 102.085 50.768C102.165 50.72 102.231 50.6773 102.285 50.64C102.343 50.5973 102.394 50.576 102.437 50.576C102.511 50.576 102.578 50.6213 102.637 50.712L103.053 51.392C102.807 51.6213 102.511 51.8027 102.165 51.936C101.818 52.064 101.461 52.128 101.093 52.128ZM106.19 43.896V52H104.766V43.896H106.19ZM106.51 41.352C106.51 41.4907 106.48 41.6213 106.422 41.744C106.368 41.8613 106.294 41.968 106.198 42.064C106.107 42.1547 106 42.2267 105.878 42.28C105.755 42.3333 105.624 42.36 105.486 42.36C105.347 42.36 105.216 42.3333 105.094 42.28C104.976 42.2267 104.87 42.1547 104.774 42.064C104.683 41.968 104.611 41.8613 104.558 41.744C104.504 41.6213 104.478 41.4907 104.478 41.352C104.478 41.2133 104.504 41.0827 104.558 40.96C104.611 40.832 104.683 40.7227 104.774 40.632C104.87 40.536 104.976 40.4613 105.094 40.408C105.216 40.3547 105.347 40.328 105.486 40.328C105.624 40.328 105.755 40.3547 105.878 40.408C106 40.4613 106.107 40.536 106.198 40.632C106.294 40.7227 106.368 40.832 106.422 40.96C106.48 41.0827 106.51 41.2133 106.51 41.352ZM108.699 52V43.896H109.547C109.75 43.896 109.878 43.9947 109.931 44.192L110.043 45.072C110.395 44.6827 110.787 44.368 111.219 44.128C111.657 43.888 112.161 43.768 112.731 43.768C113.174 43.768 113.563 43.8427 113.899 43.992C114.241 44.136 114.523 44.344 114.747 44.616C114.977 44.8827 115.15 45.2053 115.267 45.584C115.385 45.9627 115.443 46.3813 115.443 46.84V52H114.019V46.84C114.019 46.2267 113.878 45.752 113.595 45.416C113.318 45.0747 112.891 44.904 112.315 44.904C111.894 44.904 111.499 45.0053 111.131 45.208C110.769 45.4107 110.433 45.6853 110.123 46.032V52H108.699ZM120.318 43.76C120.67 43.76 120.998 43.8 121.302 43.88C121.611 43.9547 121.891 44.0667 122.142 44.216H124.342V44.744C124.342 44.92 124.23 45.032 124.006 45.08L123.086 45.208C123.267 45.5547 123.358 45.9413 123.358 46.368C123.358 46.7627 123.281 47.1227 123.126 47.448C122.977 47.768 122.766 48.0427 122.494 48.272C122.227 48.5013 121.907 48.6773 121.534 48.8C121.166 48.9227 120.761 48.984 120.318 48.984C119.939 48.984 119.582 48.9387 119.246 48.848C119.075 48.9547 118.945 49.0693 118.854 49.192C118.769 49.3147 118.726 49.4347 118.726 49.552C118.726 49.744 118.803 49.8907 118.958 49.992C119.113 50.088 119.318 50.1573 119.574 50.2C119.83 50.2427 120.121 50.2693 120.446 50.28C120.771 50.2907 121.102 50.3093 121.438 50.336C121.779 50.3573 122.113 50.3973 122.438 50.456C122.763 50.5147 123.054 50.6107 123.31 50.744C123.566 50.8773 123.771 51.0613 123.926 51.296C124.081 51.5307 124.158 51.8347 124.158 52.208C124.158 52.5547 124.07 52.8907 123.894 53.216C123.723 53.5413 123.475 53.8293 123.15 54.08C122.825 54.336 122.427 54.5387 121.958 54.688C121.489 54.8427 120.958 54.92 120.366 54.92C119.774 54.92 119.254 54.8613 118.806 54.744C118.363 54.6267 117.995 54.4693 117.702 54.272C117.409 54.0747 117.187 53.8453 117.038 53.584C116.894 53.328 116.822 53.0587 116.822 52.776C116.822 52.376 116.947 52.0373 117.198 51.76C117.454 51.4773 117.803 51.2533 118.246 51.088C118.017 50.9813 117.833 50.84 117.694 50.664C117.561 50.4827 117.494 50.2427 117.494 49.944C117.494 49.8267 117.515 49.7067 117.558 49.584C117.601 49.456 117.665 49.3307 117.75 49.208C117.841 49.0853 117.95 48.968 118.078 48.856C118.206 48.744 118.355 48.6453 118.526 48.56C118.126 48.336 117.811 48.04 117.582 47.672C117.358 47.2987 117.246 46.864 117.246 46.368C117.246 45.9733 117.321 45.616 117.47 45.296C117.625 44.9707 117.838 44.696 118.11 44.472C118.382 44.2427 118.705 44.0667 119.078 43.944C119.457 43.8213 119.87 43.76 120.318 43.76ZM122.846 52.44C122.846 52.2373 122.79 52.0747 122.678 51.952C122.566 51.8293 122.414 51.736 122.222 51.672C122.03 51.6027 121.809 51.552 121.558 51.52C121.307 51.488 121.043 51.4667 120.766 51.456C120.489 51.44 120.206 51.424 119.918 51.408C119.63 51.392 119.355 51.3627 119.094 51.32C118.79 51.464 118.542 51.64 118.35 51.848C118.163 52.056 118.07 52.304 118.07 52.592C118.07 52.7733 118.115 52.9413 118.206 53.096C118.302 53.256 118.446 53.392 118.638 53.504C118.83 53.6213 119.07 53.712 119.358 53.776C119.651 53.8453 119.995 53.88 120.39 53.88C120.774 53.88 121.118 53.8453 121.422 53.776C121.726 53.7067 121.982 53.608 122.19 53.48C122.403 53.352 122.566 53.2 122.678 53.024C122.79 52.848 122.846 52.6533 122.846 52.44ZM120.318 48.04C120.606 48.04 120.859 48 121.078 47.92C121.302 47.84 121.489 47.728 121.638 47.584C121.787 47.44 121.899 47.2693 121.974 47.072C122.049 46.8693 122.086 46.648 122.086 46.408C122.086 45.912 121.934 45.5173 121.63 45.224C121.331 44.9307 120.894 44.784 120.318 44.784C119.747 44.784 119.31 44.9307 119.006 45.224C118.707 45.5173 118.558 45.912 118.558 46.408C118.558 46.648 118.595 46.8693 118.67 47.072C118.75 47.2693 118.865 47.44 119.014 47.584C119.163 47.728 119.347 47.84 119.566 47.92C119.785 48 120.035 48.04 120.318 48.04ZM130.402 45.232C130.338 45.3493 130.239 45.408 130.106 45.408C130.026 45.408 129.935 45.3787 129.834 45.32C129.732 45.2613 129.607 45.1973 129.458 45.128C129.314 45.0533 129.14 44.9867 128.938 44.928C128.735 44.864 128.495 44.832 128.218 44.832C127.978 44.832 127.762 44.864 127.57 44.928C127.378 44.9867 127.212 45.0693 127.074 45.176C126.94 45.2827 126.836 45.408 126.762 45.552C126.692 45.6907 126.658 45.8427 126.658 46.008C126.658 46.216 126.716 46.3893 126.834 46.528C126.956 46.6667 127.116 46.7867 127.314 46.888C127.511 46.9893 127.735 47.08 127.986 47.16C128.236 47.2347 128.492 47.3173 128.754 47.408C129.02 47.4933 129.279 47.5893 129.53 47.696C129.78 47.8027 130.004 47.936 130.202 48.096C130.399 48.256 130.556 48.4533 130.674 48.688C130.796 48.9173 130.858 49.1947 130.858 49.52C130.858 49.8933 130.791 50.24 130.658 50.56C130.524 50.8747 130.327 51.1493 130.066 51.384C129.804 51.6133 129.484 51.7947 129.106 51.928C128.727 52.0613 128.29 52.128 127.794 52.128C127.228 52.128 126.716 52.0373 126.258 51.856C125.799 51.6693 125.41 51.432 125.09 51.144L125.426 50.6C125.468 50.5307 125.519 50.4773 125.578 50.44C125.636 50.4027 125.714 50.384 125.81 50.384C125.906 50.384 126.007 50.4213 126.114 50.496C126.22 50.5707 126.348 50.6533 126.498 50.744C126.652 50.8347 126.836 50.9173 127.05 50.992C127.268 51.0667 127.54 51.104 127.866 51.104C128.143 51.104 128.386 51.0693 128.594 51C128.802 50.9253 128.975 50.8267 129.114 50.704C129.252 50.5813 129.354 50.44 129.418 50.28C129.487 50.12 129.522 49.9493 129.522 49.768C129.522 49.544 129.46 49.36 129.338 49.216C129.22 49.0667 129.063 48.9413 128.866 48.84C128.668 48.7333 128.442 48.6427 128.186 48.568C127.935 48.488 127.676 48.4053 127.41 48.32C127.148 48.2347 126.89 48.1387 126.634 48.032C126.383 47.92 126.159 47.7813 125.962 47.616C125.764 47.4507 125.604 47.248 125.482 47.008C125.364 46.7627 125.306 46.4667 125.306 46.12C125.306 45.8107 125.37 45.5147 125.498 45.232C125.626 44.944 125.812 44.6933 126.058 44.48C126.303 44.2613 126.604 44.088 126.962 43.96C127.319 43.832 127.727 43.768 128.186 43.768C128.719 43.768 129.196 43.8533 129.618 44.024C130.044 44.1893 130.412 44.4187 130.722 44.712L130.402 45.232Z" fill="black" fill-opacity="0.87"/>
<path d="M21 49.75C18.93 49.75 17.25 48.07 17.25 46C17.25 43.93 18.93 42.25 21 42.25C23.07 42.25 24.75 43.93 24.75 46C24.75 48.07 23.07 49.75 21 49.75ZM21 43.75C19.76 43.75 18.75 44.76 18.75 46C18.75 47.24 19.76 48.25 21 48.25C22.24 48.25 23.25 47.24 23.25 46C23.25 44.76 22.24 43.75 21 43.75Z" fill="black" fill-opacity="0.87"/>
<path d="M24.21 56.19C24 56.19 23.79 56.16 23.58 56.11C22.96 55.94 22.44 55.55 22.11 55L21.99 54.8C21.4 53.78 20.59 53.78 20 54.8L19.89 54.99C19.56 55.55 19.04 55.95 18.42 56.11C17.79 56.28 17.14 56.19 16.59 55.86L14.87 54.87C14.26 54.52 13.82 53.95 13.63 53.26C13.45 52.57 13.54 51.86 13.89 51.25C14.18 50.74 14.26 50.28 14.09 49.99C13.92 49.7 13.49 49.53 12.9 49.53C11.44 49.53 10.25 48.34 10.25 46.88V45.12C10.25 43.66 11.44 42.47 12.9 42.47C13.49 42.47 13.92 42.3 14.09 42.01C14.26 41.72 14.19 41.26 13.89 40.75C13.54 40.14 13.45 39.42 13.63 38.74C13.81 38.05 14.25 37.48 14.87 37.13L16.6 36.14C17.73 35.47 19.22 35.86 19.9 37.01L20.02 37.21C20.61 38.23 21.42 38.23 22.01 37.21L22.12 37.02C22.8 35.86 24.29 35.47 25.43 36.15L27.15 37.14C27.76 37.49 28.2 38.06 28.39 38.75C28.57 39.44 28.48 40.15 28.13 40.76C27.84 41.27 27.76 41.73 27.93 42.02C28.1 42.31 28.53 42.48 29.12 42.48C30.58 42.48 31.77 43.67 31.77 45.13V46.89C31.77 48.35 30.58 49.54 29.12 49.54C28.53 49.54 28.1 49.71 27.93 50C27.76 50.29 27.83 50.75 28.13 51.26C28.48 51.87 28.58 52.59 28.39 53.27C28.21 53.96 27.77 54.53 27.15 54.88L25.42 55.87C25.04 56.08 24.63 56.19 24.21 56.19ZM21 52.49C21.89 52.49 22.72 53.05 23.29 54.04L23.4 54.23C23.52 54.44 23.72 54.59 23.96 54.65C24.2 54.71 24.44 54.68 24.64 54.56L26.37 53.56C26.63 53.41 26.83 53.16 26.91 52.86C26.99 52.56 26.95 52.25 26.8 51.99C26.23 51.01 26.16 50 26.6 49.23C27.04 48.46 27.95 48.02 29.09 48.02C29.73 48.02 30.24 47.51 30.24 46.87V45.11C30.24 44.48 29.73 43.96 29.09 43.96C27.95 43.96 27.04 43.52 26.6 42.75C26.16 41.98 26.23 40.97 26.8 39.99C26.95 39.73 26.99 39.42 26.91 39.12C26.83 38.82 26.64 38.58 26.38 38.42L24.65 37.43C24.22 37.17 23.65 37.32 23.39 37.76L23.28 37.95C22.71 38.94 21.88 39.5 20.99 39.5C20.1 39.5 19.27 38.94 18.7 37.95L18.59 37.75C18.34 37.33 17.78 37.18 17.35 37.43L15.62 38.43C15.36 38.58 15.16 38.83 15.08 39.13C15 39.43 15.04 39.74 15.19 40C15.76 40.98 15.83 41.99 15.39 42.76C14.95 43.53 14.04 43.97 12.9 43.97C12.26 43.97 11.75 44.48 11.75 45.12V46.88C11.75 47.51 12.26 48.03 12.9 48.03C14.04 48.03 14.95 48.47 15.39 49.24C15.83 50.01 15.76 51.02 15.19 52C15.04 52.26 15 52.57 15.08 52.87C15.16 53.17 15.35 53.41 15.61 53.57L17.34 54.56C17.55 54.69 17.8 54.72 18.03 54.66C18.27 54.6 18.47 54.44 18.6 54.23L18.71 54.04C19.28 53.06 20.11 52.49 21 52.49Z" fill="black" fill-opacity="0.87"/>
<rect x="18" y="82" width="301" height="2" fill="#D9D9D9"/>
<g filter="url(#filter1_d_58_11)">
<rect x="20" y="101" width="123" height="43" rx="4" fill="#FAFAFA" shape-rendering="crispEdges"/>
<path d="M27.0866 118.045V127.5H25.9972V118.045H27.0866ZM29.0821 127.5V120.409H30.1716V127.5H29.0821ZM29.6361 119.227C29.4237 119.227 29.2406 119.155 29.0867 119.01C28.9359 118.866 28.8605 118.692 28.8605 118.489C28.8605 118.286 28.9359 118.112 29.0867 117.967C29.2406 117.822 29.4237 117.75 29.6361 117.75C29.8485 117.75 30.03 117.822 30.1808 117.967C30.3347 118.112 30.4117 118.286 30.4117 118.489C30.4117 118.692 30.3347 118.866 30.1808 119.01C30.03 119.155 29.8485 119.227 29.6361 119.227ZM35.0293 130.307C34.503 130.307 34.0506 130.239 33.6721 130.104C33.2935 129.971 32.978 129.796 32.7257 129.577C32.4764 129.362 32.2779 129.131 32.1301 128.885L32.998 128.276C33.0965 128.405 33.2212 128.553 33.372 128.719C33.5228 128.888 33.729 129.034 33.9906 129.157C34.2553 129.283 34.6015 129.347 35.0293 129.347C35.6017 129.347 36.0742 129.208 36.4466 128.931C36.819 128.654 37.0051 128.22 37.0051 127.629V126.189H36.9128C36.8328 126.318 36.7189 126.478 36.5712 126.669C36.4266 126.857 36.2173 127.025 35.9434 127.172C35.6725 127.317 35.3063 127.389 34.8446 127.389C34.2722 127.389 33.7582 127.254 33.3027 126.983C32.8503 126.712 32.4918 126.318 32.2271 125.801C31.9655 125.284 31.8347 124.656 31.8347 123.918C31.8347 123.191 31.9624 122.559 32.2179 122.02C32.4733 121.479 32.8288 121.06 33.2843 120.765C33.7398 120.466 34.266 120.317 34.8631 120.317C35.3248 120.317 35.691 120.394 35.9618 120.548C36.2357 120.698 36.445 120.871 36.5897 121.065C36.7374 121.255 36.8513 121.412 36.9313 121.536H37.0421V120.409H38.0946V127.703C38.0946 128.312 37.9561 128.808 37.6792 129.19C37.4052 129.574 37.0359 129.856 36.5712 130.034C36.1096 130.216 35.5956 130.307 35.0293 130.307ZM34.9924 126.411C35.4294 126.411 35.7987 126.31 36.1003 126.11C36.4019 125.91 36.6312 125.623 36.7882 125.247C36.9451 124.872 37.0236 124.422 37.0236 123.899C37.0236 123.388 36.9467 122.937 36.7928 122.547C36.6389 122.156 36.4112 121.849 36.1096 121.628C35.8079 121.406 35.4355 121.295 34.9924 121.295C34.5307 121.295 34.146 121.412 33.8382 121.646C33.5336 121.88 33.3043 122.194 33.1504 122.588C32.9996 122.982 32.9242 123.419 32.9242 123.899C32.9242 124.392 33.0011 124.827 33.155 125.206C33.312 125.581 33.5428 125.877 33.8475 126.092C34.1552 126.304 34.5369 126.411 34.9924 126.411ZM41.1784 123.234V127.5H40.089V118.045H41.1784V121.517H41.2708C41.437 121.151 41.6863 120.86 42.0186 120.645C42.3541 120.426 42.8004 120.317 43.3574 120.317C43.8406 120.317 44.2638 120.414 44.627 120.608C44.9901 120.798 45.2717 121.092 45.4718 121.489C45.6749 121.883 45.7765 122.385 45.7765 122.994V127.5H44.687V123.068C44.687 122.505 44.5408 122.069 44.2484 121.762C43.9591 121.451 43.5575 121.295 43.0435 121.295C42.6865 121.295 42.3664 121.371 42.0833 121.522C41.8032 121.672 41.5816 121.893 41.4185 122.182C41.2585 122.471 41.1784 122.822 41.1784 123.234ZM50.8534 120.409V121.332H47.1787V120.409H50.8534ZM48.2497 118.71H49.3392V125.469C49.3392 125.777 49.3838 126.007 49.4731 126.161C49.5654 126.312 49.6824 126.414 49.824 126.466C49.9686 126.515 50.1209 126.54 50.281 126.54C50.401 126.54 50.4995 126.534 50.5764 126.521C50.6534 126.506 50.7149 126.494 50.7611 126.484L50.9827 127.463C50.9088 127.491 50.8057 127.518 50.6734 127.546C50.541 127.577 50.3733 127.592 50.1702 127.592C49.8624 127.592 49.5608 127.526 49.2654 127.394C48.973 127.261 48.7298 127.06 48.536 126.789C48.3451 126.518 48.2497 126.177 48.2497 125.764V118.71ZM59.2323 120.409V121.332H55.5576V120.409H59.2323ZM56.6286 118.71H57.7181V125.469C57.7181 125.777 57.7628 126.007 57.852 126.161C57.9443 126.312 58.0613 126.414 58.2029 126.466C58.3475 126.515 58.4999 126.54 58.6599 126.54C58.7799 126.54 58.8784 126.534 58.9553 126.521C59.0323 126.506 59.0938 126.494 59.14 126.484L59.3616 127.463C59.2877 127.491 59.1846 127.518 59.0523 127.546C58.92 127.577 58.7522 127.592 58.5491 127.592C58.2413 127.592 57.9397 127.526 57.6443 127.394C57.3519 127.261 57.1088 127.06 56.9149 126.789C56.724 126.518 56.6286 126.177 56.6286 125.764V118.71ZM62.113 123.234V127.5H61.0235V118.045H62.113V121.517H62.2053C62.3715 121.151 62.6208 120.86 62.9532 120.645C63.2887 120.426 63.7349 120.317 64.292 120.317C64.7752 120.317 65.1984 120.414 65.5615 120.608C65.9247 120.798 66.2063 121.092 66.4063 121.489C66.6095 121.883 66.711 122.385 66.711 122.994V127.5H65.6215V123.068C65.6215 122.505 65.4753 122.069 65.183 121.762C64.8937 121.451 64.492 121.295 63.9781 121.295C63.6211 121.295 63.301 121.371 63.0178 121.522C62.7378 121.672 62.5162 121.893 62.3531 122.182C62.193 122.471 62.113 122.822 62.113 123.234ZM71.6772 127.648C70.994 127.648 70.4046 127.497 69.9091 127.195C69.4167 126.891 69.0366 126.466 68.7688 125.921C68.5041 125.373 68.3718 124.736 68.3718 124.01C68.3718 123.284 68.5041 122.643 68.7688 122.089C69.0366 121.532 69.409 121.098 69.886 120.788C70.3661 120.474 70.9263 120.317 71.5664 120.317C71.9357 120.317 72.3004 120.378 72.6605 120.501C73.0206 120.625 73.3484 120.825 73.6438 121.102C73.9393 121.375 74.1747 121.739 74.3501 122.191C74.5256 122.643 74.6133 123.201 74.6133 123.862V124.324H69.1474V123.382H73.5053C73.5053 122.982 73.4253 122.625 73.2653 122.311C73.1083 121.997 72.8836 121.749 72.5913 121.568C72.302 121.386 71.9603 121.295 71.5664 121.295C71.1325 121.295 70.757 121.403 70.44 121.619C70.1261 121.831 69.8845 122.108 69.7152 122.45C69.5459 122.791 69.4613 123.157 69.4613 123.548V124.176C69.4613 124.712 69.5536 125.166 69.7383 125.538C69.926 125.907 70.1861 126.189 70.5185 126.383C70.8509 126.574 71.2371 126.669 71.6772 126.669C71.9634 126.669 72.2219 126.629 72.4528 126.549C72.6867 126.466 72.8883 126.343 73.0575 126.18C73.2268 126.013 73.3576 125.807 73.4499 125.561L74.5025 125.857C74.3917 126.214 74.2055 126.527 73.9439 126.798C73.6823 127.066 73.3591 127.275 72.9744 127.426C72.5897 127.574 72.1573 127.648 71.6772 127.648ZM76.2706 127.5V120.409H77.3232V121.517H77.4155C77.5632 121.138 77.8017 120.845 78.131 120.635C78.4603 120.423 78.8558 120.317 79.3175 120.317C79.7853 120.317 80.1746 120.423 80.4854 120.635C80.7994 120.845 81.044 121.138 81.2195 121.517H81.2933C81.4749 121.151 81.7473 120.86 82.1104 120.645C82.4736 120.426 82.9091 120.317 83.4169 120.317C84.0509 120.317 84.5695 120.515 84.9727 120.912C85.3758 121.306 85.5774 121.92 85.5774 122.754V127.5H84.4879V122.754C84.4879 122.231 84.3448 121.857 84.0586 121.632C83.7724 121.408 83.4354 121.295 83.0476 121.295C82.549 121.295 82.1628 121.446 81.8888 121.748C81.6149 122.046 81.478 122.425 81.478 122.884V127.5H80.37V122.643C80.37 122.24 80.2392 121.916 79.9776 121.669C79.716 121.42 79.379 121.295 78.9666 121.295C78.6835 121.295 78.4188 121.371 78.1726 121.522C77.9295 121.672 77.7325 121.882 77.5817 122.15C77.4339 122.414 77.3601 122.72 77.3601 123.068V127.5H76.2706ZM90.5424 127.648C89.8592 127.648 89.2698 127.497 88.7743 127.195C88.2819 126.891 87.9018 126.466 87.6341 125.921C87.3694 125.373 87.237 124.736 87.237 124.01C87.237 123.284 87.3694 122.643 87.6341 122.089C87.9018 121.532 88.2742 121.098 88.7512 120.788C89.2314 120.474 89.7915 120.317 90.4316 120.317C90.801 120.317 91.1657 120.378 91.5257 120.501C91.8858 120.625 92.2136 120.825 92.5091 121.102C92.8045 121.375 93.04 121.739 93.2154 122.191C93.3908 122.643 93.4785 123.201 93.4785 123.862V124.324H88.0126V123.382H92.3706C92.3706 122.982 92.2905 122.625 92.1305 122.311C91.9735 121.997 91.7489 121.749 91.4565 121.568C91.1672 121.386 90.8256 121.295 90.4316 121.295C89.9977 121.295 89.6222 121.403 89.3052 121.619C88.9913 121.831 88.7497 122.108 88.5804 122.45C88.4112 122.791 88.3265 123.157 88.3265 123.548V124.176C88.3265 124.712 88.4189 125.166 88.6035 125.538C88.7913 125.907 89.0513 126.189 89.3837 126.383C89.7161 126.574 90.1023 126.669 90.5424 126.669C90.8287 126.669 91.0872 126.629 91.318 126.549C91.5519 126.466 91.7535 126.343 91.9228 126.18C92.092 126.013 92.2228 125.807 92.3152 125.561L93.3677 125.857C93.2569 126.214 93.0707 126.527 92.8091 126.798C92.5475 127.066 92.2244 127.275 91.8397 127.426C91.455 127.574 91.0225 127.648 90.5424 127.648Z" fill="black"/>
<path d="M126 126C121.456 126 118 122.544 118 118C118 113.456 121.456 110 126 110C130.544 110 134 113.456 134 118C134 122.544 130.544 126 126 126ZM126 128C131.526 128 136 123.526 136 118C136 112.474 131.526 108 126 108C120.474 108 116 112.474 116 118C116 123.526 120.474 128 126 128Z" fill="#333333"/>
<rect x="121.5" y="131" width="9" height="2" rx="1" fill="black"/>
<rect x="121.5" y="131" width="9" height="2" rx="1" fill="black"/>
<rect x="121.5" y="131" width="9" height="2" rx="1" fill="black"/>
<rect x="121.5" y="131" width="9" height="2" rx="1" fill="black"/>
<rect x="121.5" y="131" width="9" height="2" rx="1" fill="black"/>
<rect x="121.5" y="134" width="9" height="2" rx="1" fill="black"/>
<rect x="121.5" y="134" width="9" height="2" rx="1" fill="black"/>
<rect x="121.5" y="134" width="9" height="2" rx="1" fill="black"/>
<rect x="121.5" y="134" width="9" height="2" rx="1" fill="black"/>
<rect x="121.5" y="134" width="9" height="2" rx="1" fill="black"/>
<rect x="123.5" y="137" width="5" height="2" rx="1" fill="black"/>
<rect x="123.5" y="137" width="5" height="2" rx="1" fill="black"/>
<rect x="123.5" y="137" width="5" height="2" rx="1" fill="black"/>
<rect x="123.5" y="137" width="5" height="2" rx="1" fill="black"/>
<rect x="123.5" y="137" width="5" height="2" rx="1" fill="black"/>
</g>
<defs>
<filter id="filter0_d_58_11" x="0" y="0" width="349" height="168" filterUnits="userSpaceOnUse" color-interpolation-filters="sRGB">
<feFlood flood-opacity="0" result="BackgroundImageFix"/>
<feColorMatrix in="SourceAlpha" type="matrix" values="0 0 0 0 0 0 0 0 0 0 0 0 0 0 0 0 0 0 127 0" result="hardAlpha"/>
<feOffset dy="4"/>
<feGaussianBlur stdDeviation="2"/>
<feComposite in2="hardAlpha" operator="out"/>
<feColorMatrix type="matrix" values="0 0 0 0 0 0 0 0 0 0 0 0 0 0 0 0 0 0 0.25 0"/>
<feBlend mode="normal" in2="BackgroundImageFix" result="effect1_dropShadow_58_11"/>
<feBlend mode="normal" in="SourceGraphic" in2="effect1_dropShadow_58_11" result="shape"/>
</filter>
<filter id="filter1_d_58_11" x="16" y="101" width="131" height="51" filterUnits="userSpaceOnUse" color-interpolation-filters="sRGB">
<feFlood flood-opacity="0" result="BackgroundImageFix"/>
<feColorMatrix in="SourceAlpha" type="matrix" values="0 0 0 0 0 0 0 0 0 0 0 0 0 0 0 0 0 0 127 0" result="hardAlpha"/>
<feOffset dy="4"/>
<feGaussianBlur stdDeviation="2"/>
<feComposite in2="hardAlpha" operator="out"/>
<feColorMatrix type="matrix" values="0 0 0 0 0 0 0 0 0 0 0 0 0 0 0 0 0 0 0.25 0"/>
<feBlend mode="normal" in2="BackgroundImageFix" result="effect1_dropShadow_58_11"/>
<feBlend mode="normal" in="SourceGraphic" in2="effect1_dropShadow_58_11" result="shape"/>
</filter>
</defs>
</svg>
