<svg width="285" height="143" viewBox="0 0 285 143" fill="none" xmlns="http://www.w3.org/2000/svg">
<g filter="url(#filter0_d_25_4)">
<rect x="4" width="276" height="135" rx="1" fill="white"/>
</g>
<rect x="22.4535" y="29.2611" width="44.1279" height="9.31034" rx="4" fill="#DF9844"/>
<path d="M30.5151 34.4109C30.4419 34.3572 30.3475 34.3304 30.2319 34.3304C30.1489 34.3304 30.0757 34.3467 30.0122 34.3792C29.9487 34.4101 29.8926 34.4525 29.8438 34.5062C29.7965 34.5599 29.7559 34.6225 29.7217 34.6942C29.6891 34.7641 29.6623 34.8374 29.6411 34.9139C29.6216 34.9904 29.6069 35.0677 29.5972 35.1458C29.589 35.2239 29.585 35.298 29.585 35.368V36.5911H29.2749V34.0911H29.585V34.6258H29.5947C29.624 34.5346 29.6606 34.4533 29.7046 34.3817C29.7502 34.3084 29.8022 34.2474 29.8608 34.1985C29.9194 34.1481 29.9829 34.1098 30.0513 34.0838C30.1213 34.0578 30.1945 34.0447 30.271 34.0447C30.3215 34.0447 30.3662 34.048 30.4053 34.0545C30.446 34.061 30.4826 34.0708 30.5151 34.0838V34.4109ZM31.0498 35.3973C31.0514 35.5503 31.0718 35.6878 31.1108 35.8099C31.1499 35.9319 31.2061 36.0353 31.2793 36.1199C31.3525 36.2046 31.4412 36.2697 31.5454 36.3152C31.6512 36.3592 31.77 36.3812 31.9019 36.3812C32.1834 36.3812 32.4495 36.2827 32.7002 36.0858V36.3934C32.4609 36.5643 32.1712 36.6497 31.8311 36.6497C31.6634 36.6497 31.5112 36.6204 31.3745 36.5618C31.2378 36.5032 31.1214 36.4186 31.0254 36.3079C30.9294 36.1956 30.8553 36.0581 30.8032 35.8953C30.7511 35.7326 30.7251 35.547 30.7251 35.3387C30.7251 35.1515 30.7536 34.9782 30.8105 34.8187C30.8675 34.6592 30.9465 34.5216 31.0474 34.4061C31.1483 34.2889 31.2679 34.1977 31.4062 34.1326C31.5446 34.0659 31.696 34.0325 31.8604 34.0325C32.0215 34.0325 32.1639 34.061 32.2876 34.118C32.4113 34.1733 32.5146 34.2531 32.5977 34.3572C32.6823 34.4614 32.7466 34.5884 32.7905 34.7381C32.8345 34.8878 32.8564 35.0555 32.8564 35.241V35.3973H31.0498ZM32.5342 35.1238C32.5293 34.8634 32.4674 34.6616 32.3486 34.5184C32.2298 34.3751 32.0646 34.3035 31.853 34.3035C31.7472 34.3035 31.6488 34.3222 31.5576 34.3597C31.4681 34.3971 31.3892 34.4516 31.3208 34.5233C31.2524 34.5932 31.1955 34.6795 31.1499 34.782C31.106 34.883 31.075 34.9969 31.0571 35.1238H32.5342ZM36.6113 36.5911V35.1214C36.6113 34.9717 36.5999 34.8455 36.5771 34.743C36.5544 34.6388 36.5186 34.5542 36.4697 34.4891C36.4225 34.424 36.3615 34.3768 36.2866 34.3475C36.2134 34.3182 36.1255 34.3035 36.0229 34.3035C35.9318 34.3035 35.8455 34.3255 35.7642 34.3694C35.6828 34.4118 35.6112 34.4712 35.5493 34.5477C35.4891 34.6225 35.4411 34.7112 35.4053 34.8138C35.3711 34.9163 35.354 35.027 35.354 35.1458V36.5911H35.0415V35.0897C35.0415 34.5656 34.8405 34.3035 34.4385 34.3035C34.3457 34.3035 34.2594 34.3247 34.1797 34.367C34.0999 34.4077 34.0299 34.4655 33.9697 34.5403C33.9111 34.6152 33.8647 34.7055 33.8306 34.8113C33.798 34.9155 33.7817 35.0311 33.7817 35.158V36.5911H33.4692V34.0911H33.7817V34.4964H33.7915C33.9673 34.1872 34.2236 34.0325 34.5605 34.0325C34.6484 34.0325 34.7314 34.0464 34.8096 34.074C34.8877 34.1001 34.9577 34.1375 35.0195 34.1863C35.0814 34.2335 35.1343 34.2905 35.1782 34.3572C35.2238 34.424 35.258 34.4972 35.2808 34.577C35.3687 34.3996 35.4826 34.2645 35.6226 34.1717C35.7642 34.0789 35.9237 34.0325 36.1011 34.0325C36.6496 34.0325 36.9238 34.3711 36.9238 35.0482V36.5911H36.6113ZM37.832 33.4588C37.7718 33.4588 37.7197 33.4376 37.6758 33.3953C37.6318 33.353 37.6099 33.2993 37.6099 33.2342C37.6099 33.1707 37.6318 33.1186 37.6758 33.0779C37.7197 33.0356 37.7718 33.0145 37.832 33.0145C37.863 33.0145 37.8923 33.0202 37.9199 33.0316C37.9476 33.0413 37.9712 33.056 37.9907 33.0755C38.0119 33.095 38.0282 33.1186 38.0396 33.1463C38.0526 33.1723 38.0591 33.2016 38.0591 33.2342C38.0591 33.2651 38.0534 33.2944 38.042 33.3221C38.0306 33.3498 38.0143 33.3742 37.9932 33.3953C37.972 33.4149 37.9476 33.4303 37.9199 33.4417C37.8939 33.4531 37.8646 33.4588 37.832 33.4588ZM37.6782 36.5911V34.0911H37.9907V36.5911H37.6782ZM40.4834 36.5911V35.1507C40.4834 34.5859 40.2783 34.3035 39.8682 34.3035C39.7591 34.3035 39.6582 34.3255 39.5654 34.3694C39.4727 34.4118 39.3921 34.4712 39.3237 34.5477C39.257 34.6242 39.2041 34.7153 39.165 34.8211C39.1276 34.9253 39.1089 35.0384 39.1089 35.1605V36.5911H38.7964V34.0911H39.1089V34.5257H39.1187C39.3042 34.1969 39.5833 34.0325 39.9561 34.0325C40.2295 34.0325 40.4378 34.1212 40.5811 34.2986C40.7243 34.4761 40.7959 34.7324 40.7959 35.0677V36.5911H40.4834ZM43.3032 36.5911V36.1517H43.2935C43.2104 36.3095 43.0916 36.4324 42.937 36.5203C42.784 36.6066 42.6099 36.6497 42.4146 36.6497C42.2583 36.6497 42.1159 36.6212 41.9873 36.5643C41.8604 36.5057 41.7513 36.4219 41.6602 36.3128C41.569 36.2038 41.4982 36.0719 41.4478 35.9173C41.3989 35.7627 41.3745 35.5877 41.3745 35.3924C41.3745 35.1906 41.4014 35.0067 41.4551 34.8406C41.5104 34.673 41.5877 34.5298 41.687 34.4109C41.7879 34.2905 41.9084 34.1977 42.0483 34.1326C42.1899 34.0659 42.347 34.0325 42.5195 34.0325C42.8792 34.0325 43.1372 34.1766 43.2935 34.4647H43.3032V32.89H43.6157V36.5911H43.3032ZM43.3032 35.0823C43.3032 34.9733 43.2845 34.8716 43.2471 34.7772C43.2096 34.6828 43.1576 34.6006 43.0908 34.5306C43.0241 34.4606 42.9435 34.4053 42.8491 34.3646C42.7563 34.3239 42.6538 34.3035 42.5415 34.3035C42.4178 34.3035 42.3039 34.3279 42.1997 34.3768C42.0955 34.4256 42.006 34.4964 41.9312 34.5892C41.8579 34.6803 41.8001 34.7918 41.7578 34.9236C41.7171 35.0555 41.6968 35.2052 41.6968 35.3729C41.6968 35.5307 41.7155 35.6723 41.7529 35.7977C41.7904 35.923 41.8433 36.0288 41.9116 36.1151C41.9816 36.2013 42.0646 36.2672 42.1606 36.3128C42.2567 36.3584 42.3633 36.3812 42.4805 36.3812C42.6074 36.3812 42.7214 36.3584 42.8223 36.3128C42.9248 36.2672 43.0111 36.2046 43.0811 36.1248C43.1527 36.0451 43.2072 35.9515 43.2446 35.8441C43.2837 35.7366 43.3032 35.6219 43.3032 35.4998V35.0823ZM44.5703 35.3973C44.5719 35.5503 44.5923 35.6878 44.6313 35.8099C44.6704 35.9319 44.7266 36.0353 44.7998 36.1199C44.873 36.2046 44.9618 36.2697 45.0659 36.3152C45.1717 36.3592 45.2905 36.3812 45.4224 36.3812C45.7039 36.3812 45.9701 36.2827 46.2207 36.0858V36.3934C45.9814 36.5643 45.6917 36.6497 45.3516 36.6497C45.1839 36.6497 45.0317 36.6204 44.895 36.5618C44.7583 36.5032 44.6419 36.4186 44.5459 36.3079C44.4499 36.1956 44.3758 36.0581 44.3237 35.8953C44.2716 35.7326 44.2456 35.547 44.2456 35.3387C44.2456 35.1515 44.2741 34.9782 44.3311 34.8187C44.388 34.6592 44.467 34.5216 44.5679 34.4061C44.6688 34.2889 44.7884 34.1977 44.9268 34.1326C45.0651 34.0659 45.2165 34.0325 45.3809 34.0325C45.542 34.0325 45.6844 34.061 45.8081 34.118C45.9318 34.1733 46.0352 34.2531 46.1182 34.3572C46.2028 34.4614 46.2671 34.5884 46.311 34.7381C46.355 34.8878 46.377 35.0555 46.377 35.241V35.3973H44.5703ZM46.0547 35.1238C46.0498 34.8634 45.988 34.6616 45.8691 34.5184C45.7503 34.3751 45.5851 34.3035 45.3735 34.3035C45.2677 34.3035 45.1693 34.3222 45.0781 34.3597C44.9886 34.3971 44.9097 34.4516 44.8413 34.5233C44.7729 34.5932 44.716 34.6795 44.6704 34.782C44.6265 34.883 44.5955 34.9969 44.5776 35.1238H46.0547ZM48.23 34.4109C48.1567 34.3572 48.0623 34.3304 47.9468 34.3304C47.8638 34.3304 47.7905 34.3467 47.7271 34.3792C47.6636 34.4101 47.6074 34.4525 47.5586 34.5062C47.5114 34.5599 47.4707 34.6225 47.4365 34.6942C47.404 34.7641 47.3771 34.8374 47.356 34.9139C47.3364 34.9904 47.3218 35.0677 47.312 35.1458C47.3039 35.2239 47.2998 35.298 47.2998 35.368V36.5911H46.9897V34.0911H47.2998V34.6258H47.3096C47.3389 34.5346 47.3755 34.4533 47.4194 34.3817C47.465 34.3084 47.5171 34.2474 47.5757 34.1985C47.6343 34.1481 47.6978 34.1098 47.7661 34.0838C47.8361 34.0578 47.9093 34.0447 47.9858 34.0447C48.0363 34.0447 48.0811 34.048 48.1201 34.0545C48.1608 34.061 48.1974 34.0708 48.23 34.0838V34.4109ZM51.2207 33.1854C51.1507 33.1398 51.0604 33.117 50.9497 33.117C50.6567 33.117 50.5103 33.3082 50.5103 33.6907V34.0911H51.1328V34.3646H50.5103V36.5911H50.1978V34.3646H49.7607V34.0911H50.1978V33.6712C50.1978 33.5459 50.2132 33.4328 50.2441 33.3318C50.2767 33.2293 50.3239 33.1422 50.3857 33.0706C50.4476 32.9974 50.5249 32.9412 50.6177 32.9022C50.7121 32.8631 50.8203 32.8436 50.9424 32.8436C51.0596 32.8436 51.1523 32.859 51.2207 32.89V33.1854ZM51.5308 36.5911V32.89H51.8433V36.5911H51.5308ZM54.0894 36.5911V36.1468H54.0796C53.9982 36.3063 53.8867 36.43 53.7451 36.5179C53.6051 36.6058 53.4465 36.6497 53.269 36.6497C53.1486 36.6497 53.0396 36.6326 52.9419 36.5984C52.8459 36.5643 52.7637 36.5163 52.6953 36.4544C52.6286 36.3909 52.5765 36.3152 52.5391 36.2274C52.5033 36.1395 52.4854 36.0426 52.4854 35.9368C52.4854 35.7106 52.5553 35.5307 52.6953 35.3973C52.8353 35.2622 53.0469 35.1743 53.3301 35.1336L54.0894 35.0237C54.0894 34.5436 53.903 34.3035 53.5303 34.3035C53.2389 34.3035 52.9688 34.4101 52.7197 34.6234V34.2816C52.7718 34.2441 52.8304 34.2108 52.8955 34.1815C52.9622 34.1505 53.0322 34.1245 53.1055 34.1033C53.1787 34.0805 53.2536 34.0635 53.3301 34.0521C53.4082 34.039 53.4839 34.0325 53.5571 34.0325C53.8354 34.0325 54.0454 34.1107 54.187 34.2669C54.3302 34.4232 54.4019 34.6559 54.4019 34.9651V36.5911H54.0894ZM53.4448 35.3777C53.3325 35.394 53.2365 35.4144 53.1567 35.4388C53.077 35.4632 53.0111 35.4966 52.959 35.5389C52.9069 35.5796 52.8687 35.6308 52.8442 35.6927C52.8198 35.7529 52.8076 35.8278 52.8076 35.9173C52.8076 35.984 52.819 36.0459 52.8418 36.1028C52.8662 36.1598 52.9004 36.2095 52.9443 36.2518C52.9899 36.2925 53.0444 36.3242 53.1079 36.347C53.173 36.3698 53.2463 36.3812 53.3276 36.3812C53.4383 36.3812 53.54 36.36 53.6328 36.3177C53.7256 36.2754 53.8053 36.2168 53.8721 36.1419C53.9404 36.067 53.9933 35.9775 54.0308 35.8734C54.0698 35.7692 54.0894 35.6561 54.0894 35.534V35.2874L53.4448 35.3777ZM55.3076 33.4588C55.2474 33.4588 55.1953 33.4376 55.1514 33.3953C55.1074 33.353 55.0854 33.2993 55.0854 33.2342C55.0854 33.1707 55.1074 33.1186 55.1514 33.0779C55.1953 33.0356 55.2474 33.0145 55.3076 33.0145C55.3385 33.0145 55.3678 33.0202 55.3955 33.0316C55.4232 33.0413 55.4468 33.056 55.4663 33.0755C55.4875 33.095 55.5037 33.1186 55.5151 33.1463C55.5282 33.1723 55.5347 33.2016 55.5347 33.2342C55.5347 33.2651 55.529 33.2944 55.5176 33.3221C55.5062 33.3498 55.4899 33.3742 55.4688 33.3953C55.4476 33.4149 55.4232 33.4303 55.3955 33.4417C55.3695 33.4531 55.3402 33.4588 55.3076 33.4588ZM55.1538 36.5911V34.0911H55.4663V36.5911H55.1538ZM57.5122 34.4109C57.439 34.3572 57.3446 34.3304 57.229 34.3304C57.146 34.3304 57.0728 34.3467 57.0093 34.3792C56.9458 34.4101 56.8896 34.4525 56.8408 34.5062C56.7936 34.5599 56.7529 34.6225 56.7188 34.6942C56.6862 34.7641 56.6593 34.8374 56.6382 34.9139C56.6187 34.9904 56.604 35.0677 56.5942 35.1458C56.5861 35.2239 56.582 35.298 56.582 35.368V36.5911H56.272V34.0911H56.582V34.6258H56.5918C56.6211 34.5346 56.6577 34.4533 56.7017 34.3817C56.7472 34.3084 56.7993 34.2474 56.8579 34.1985C56.9165 34.1481 56.98 34.1098 57.0483 34.0838C57.1183 34.0578 57.1916 34.0447 57.2681 34.0447C57.3185 34.0447 57.3633 34.048 57.4023 34.0545C57.443 34.061 57.4797 34.0708 57.5122 34.0838V34.4109Z" fill="black"/>
<g filter="url(#filter1_d_25_4)">
<rect x="15" y="97" width="104" height="29" rx="4" fill="#0991CD" fill-opacity="0.24" shape-rendering="crispEdges"/>
</g>
<path d="M50.918 116V108.998H52.8516C55.319 108.998 56.5527 110.136 56.5527 112.411C56.5527 113.492 56.2093 114.361 55.5225 115.019C54.8389 115.673 53.9225 116 52.7734 116H50.918ZM51.7383 109.74V115.258H52.7832C53.7012 115.258 54.4157 115.012 54.9268 114.521C55.4378 114.029 55.6934 113.332 55.6934 112.431C55.6934 110.637 54.7396 109.74 52.832 109.74H51.7383ZM61.6406 116H57.9297V108.998H61.4844V109.74H58.75V112.069H61.2793V112.807H58.75V115.258H61.6406V116ZM66.6211 116H62.9883V108.998H63.8086V115.258H66.6211V116ZM71.4062 116H67.6953V108.998H71.25V109.74H68.5156V112.069H71.0449V112.807H68.5156V115.258H71.4062V116ZM76.8945 109.74H74.873V116H74.0527V109.74H72.0361V108.998H76.8945V109.74ZM81.709 116H77.998V108.998H81.5527V109.74H78.8184V112.069H81.3477V112.807H78.8184V115.258H81.709V116Z" fill="black"/>
<path d="M23.2861 15.6396C23.1396 15.5322 22.9508 15.4785 22.7197 15.4785C22.5537 15.4785 22.4072 15.5111 22.2803 15.5762C22.1533 15.638 22.041 15.7227 21.9434 15.8301C21.849 15.9375 21.7676 16.0628 21.6992 16.2061C21.6341 16.346 21.5804 16.4925 21.5381 16.6455C21.499 16.7985 21.4697 16.9531 21.4502 17.1094C21.4339 17.2656 21.4258 17.4137 21.4258 17.5537V20H20.8057V15H21.4258V16.0693H21.4453C21.5039 15.887 21.5771 15.7243 21.665 15.5811C21.7562 15.4346 21.8604 15.3125 21.9775 15.2148C22.0947 15.1139 22.2217 15.0374 22.3584 14.9854C22.4984 14.9333 22.6449 14.9072 22.7979 14.9072C22.8988 14.9072 22.9883 14.9137 23.0664 14.9268C23.1478 14.9398 23.221 14.9593 23.2861 14.9854V15.6396ZM24.3555 17.6123C24.3587 17.9183 24.3994 18.1934 24.4775 18.4375C24.5557 18.6816 24.668 18.8883 24.8145 19.0576C24.9609 19.2269 25.1383 19.3571 25.3467 19.4482C25.5583 19.5361 25.7959 19.5801 26.0596 19.5801C26.6227 19.5801 27.1549 19.3831 27.6562 18.9893V19.6045C27.1777 19.9463 26.5983 20.1172 25.918 20.1172C25.5827 20.1172 25.2783 20.0586 25.0049 19.9414C24.7314 19.8242 24.4987 19.6549 24.3066 19.4336C24.1146 19.209 23.9665 18.9339 23.8623 18.6084C23.7581 18.2829 23.7061 17.9118 23.7061 17.4951C23.7061 17.1208 23.763 16.7741 23.877 16.4551C23.9909 16.1361 24.1488 15.861 24.3506 15.6299C24.5524 15.3955 24.7917 15.2132 25.0684 15.083C25.3451 14.9495 25.6478 14.8828 25.9766 14.8828C26.2988 14.8828 26.5837 14.9398 26.8311 15.0537C27.0785 15.1644 27.2852 15.3239 27.4512 15.5322C27.6204 15.7406 27.749 15.9945 27.8369 16.2939C27.9248 16.5934 27.9688 16.9287 27.9688 17.2998V17.6123H24.3555ZM27.3242 17.0654C27.3145 16.5446 27.1908 16.141 26.9531 15.8545C26.7155 15.568 26.3851 15.4248 25.9619 15.4248C25.7503 15.4248 25.5534 15.4622 25.3711 15.5371C25.1921 15.612 25.0342 15.721 24.8975 15.8643C24.7607 16.0042 24.6468 16.1768 24.5557 16.3818C24.4678 16.5837 24.4059 16.8115 24.3701 17.0654H27.3242ZM35.4785 20V17.0605C35.4785 16.7611 35.4557 16.5088 35.4102 16.3037C35.3646 16.0954 35.293 15.9261 35.1953 15.7959C35.1009 15.6657 34.9788 15.5713 34.8291 15.5127C34.6826 15.4541 34.5068 15.4248 34.3018 15.4248C34.1195 15.4248 33.9469 15.4688 33.7842 15.5566C33.6214 15.6413 33.4782 15.7601 33.3545 15.9131C33.234 16.0628 33.138 16.2402 33.0664 16.4453C32.998 16.6504 32.9639 16.8717 32.9639 17.1094V20H32.3389V16.9971C32.3389 15.9489 31.9368 15.4248 31.1328 15.4248C30.9473 15.4248 30.7747 15.4671 30.6152 15.5518C30.4557 15.6331 30.3158 15.7487 30.1953 15.8984C30.0781 16.0482 29.9854 16.2288 29.917 16.4404C29.8519 16.6488 29.8193 16.8799 29.8193 17.1338V20H29.1943V15H29.8193V15.8105H29.8389C30.1904 15.1921 30.7031 14.8828 31.377 14.8828C31.5527 14.8828 31.7188 14.9105 31.875 14.9658C32.0312 15.0179 32.1712 15.0928 32.2949 15.1904C32.4186 15.2848 32.5244 15.3988 32.6123 15.5322C32.7035 15.6657 32.7718 15.8122 32.8174 15.9717C32.9932 15.6169 33.221 15.3467 33.501 15.1611C33.7842 14.9756 34.1032 14.8828 34.458 14.8828C35.555 14.8828 36.1035 15.5599 36.1035 16.9141V20H35.4785ZM37.9199 13.7354C37.7995 13.7354 37.6953 13.693 37.6074 13.6084C37.5195 13.5238 37.4756 13.4163 37.4756 13.2861C37.4756 13.1592 37.5195 13.055 37.6074 12.9736C37.6953 12.889 37.7995 12.8467 37.9199 12.8467C37.9818 12.8467 38.0404 12.8581 38.0957 12.8809C38.151 12.9004 38.1982 12.9297 38.2373 12.9688C38.2796 13.0078 38.3122 13.055 38.335 13.1104C38.361 13.1624 38.374 13.221 38.374 13.2861C38.374 13.348 38.3626 13.4066 38.3398 13.4619C38.3171 13.5173 38.2845 13.5661 38.2422 13.6084C38.1999 13.6475 38.151 13.6784 38.0957 13.7012C38.0436 13.724 37.985 13.7354 37.9199 13.7354ZM37.6123 20V15H38.2373V20H37.6123ZM43.2227 20V17.1191C43.2227 15.9896 42.8125 15.4248 41.9922 15.4248C41.7741 15.4248 41.5723 15.4688 41.3867 15.5566C41.2012 15.6413 41.04 15.7601 40.9033 15.9131C40.7699 16.0661 40.6641 16.2484 40.5859 16.46C40.5111 16.6683 40.4736 16.8945 40.4736 17.1387V20H39.8486V15H40.4736V15.8691H40.4932C40.8643 15.2116 41.4225 14.8828 42.168 14.8828C42.7148 14.8828 43.1315 15.0602 43.418 15.415C43.7044 15.7699 43.8477 16.2826 43.8477 16.9531V20H43.2227ZM48.8623 20V19.1211H48.8428C48.6768 19.4368 48.4391 19.6826 48.1299 19.8584C47.8239 20.0309 47.4756 20.1172 47.085 20.1172C46.7725 20.1172 46.4876 20.0602 46.2305 19.9463C45.9766 19.8291 45.7585 19.6615 45.5762 19.4434C45.3939 19.2253 45.2523 18.9616 45.1514 18.6523C45.0537 18.3431 45.0049 17.9932 45.0049 17.6025C45.0049 17.1989 45.0586 16.8311 45.166 16.499C45.2767 16.1637 45.4313 15.8773 45.6299 15.6396C45.8317 15.3988 46.0726 15.2132 46.3525 15.083C46.6357 14.9495 46.9499 14.8828 47.2949 14.8828C48.0143 14.8828 48.5303 15.1709 48.8428 15.7471H48.8623V12.5977H49.4873V20H48.8623ZM48.8623 16.9824C48.8623 16.7643 48.8249 16.5609 48.75 16.3721C48.6751 16.1833 48.571 16.0189 48.4375 15.8789C48.304 15.7389 48.1429 15.6283 47.9541 15.5469C47.7686 15.4655 47.5635 15.4248 47.3389 15.4248C47.0915 15.4248 46.8636 15.4736 46.6553 15.5713C46.4469 15.6689 46.2679 15.8105 46.1182 15.9961C45.9717 16.1784 45.8561 16.4014 45.7715 16.665C45.6901 16.9287 45.6494 17.2282 45.6494 17.5635C45.6494 17.8792 45.6868 18.1624 45.7617 18.4131C45.8366 18.6637 45.9424 18.8753 46.0791 19.0479C46.2191 19.2204 46.3851 19.3522 46.5771 19.4434C46.7692 19.5345 46.9824 19.5801 47.2168 19.5801C47.4707 19.5801 47.6986 19.5345 47.9004 19.4434C48.1055 19.3522 48.278 19.2269 48.418 19.0674C48.5612 18.9079 48.6702 18.7207 48.7451 18.5059C48.8232 18.291 48.8623 18.0615 48.8623 17.8174V16.9824ZM51.3965 17.6123C51.3997 17.9183 51.4404 18.1934 51.5186 18.4375C51.5967 18.6816 51.709 18.8883 51.8555 19.0576C52.002 19.2269 52.1794 19.3571 52.3877 19.4482C52.5993 19.5361 52.8369 19.5801 53.1006 19.5801C53.6637 19.5801 54.196 19.3831 54.6973 18.9893V19.6045C54.2188 19.9463 53.6393 20.1172 52.959 20.1172C52.6237 20.1172 52.3193 20.0586 52.0459 19.9414C51.7725 19.8242 51.5397 19.6549 51.3477 19.4336C51.1556 19.209 51.0075 18.9339 50.9033 18.6084C50.7992 18.2829 50.7471 17.9118 50.7471 17.4951C50.7471 17.1208 50.804 16.7741 50.918 16.4551C51.0319 16.1361 51.1898 15.861 51.3916 15.6299C51.5934 15.3955 51.8327 15.2132 52.1094 15.083C52.3861 14.9495 52.6888 14.8828 53.0176 14.8828C53.3398 14.8828 53.6247 14.9398 53.8721 15.0537C54.1195 15.1644 54.3262 15.3239 54.4922 15.5322C54.6615 15.7406 54.79 15.9945 54.8779 16.2939C54.9658 16.5934 55.0098 16.9287 55.0098 17.2998V17.6123H51.3965ZM54.3652 17.0654C54.3555 16.5446 54.2318 16.141 53.9941 15.8545C53.7565 15.568 53.4261 15.4248 53.0029 15.4248C52.7913 15.4248 52.5944 15.4622 52.4121 15.5371C52.2331 15.612 52.0752 15.721 51.9385 15.8643C51.8018 16.0042 51.6878 16.1768 51.5967 16.3818C51.5088 16.5837 51.4469 16.8115 51.4111 17.0654H54.3652ZM58.7158 15.6396C58.5693 15.5322 58.3805 15.4785 58.1494 15.4785C57.9834 15.4785 57.8369 15.5111 57.71 15.5762C57.583 15.638 57.4707 15.7227 57.373 15.8301C57.2786 15.9375 57.1973 16.0628 57.1289 16.2061C57.0638 16.346 57.0101 16.4925 56.9678 16.6455C56.9287 16.7985 56.8994 16.9531 56.8799 17.1094C56.8636 17.2656 56.8555 17.4137 56.8555 17.5537V20H56.2354V15H56.8555V16.0693H56.875C56.9336 15.887 57.0068 15.7243 57.0947 15.5811C57.1859 15.4346 57.29 15.3125 57.4072 15.2148C57.5244 15.1139 57.6514 15.0374 57.7881 14.9854C57.9281 14.9333 58.0745 14.9072 58.2275 14.9072C58.3285 14.9072 58.418 14.9137 58.4961 14.9268C58.5775 14.9398 58.6507 14.9593 58.7158 14.9854V15.6396ZM66.499 19.6143C66.499 20.542 66.2874 21.2288 65.8643 21.6748C65.4443 22.124 64.7949 22.3486 63.916 22.3486C63.3691 22.3486 62.8516 22.2266 62.3633 21.9824V21.3477C62.9069 21.6504 63.4245 21.8018 63.916 21.8018C65.2214 21.8018 65.874 21.1117 65.874 19.7314V19.1309H65.8545C65.4704 19.7884 64.8844 20.1172 64.0967 20.1172C63.7874 20.1172 63.5042 20.0602 63.2471 19.9463C62.9932 19.8324 62.7751 19.668 62.5928 19.4531C62.4105 19.2383 62.2689 18.9779 62.168 18.6719C62.0671 18.3626 62.0166 18.0143 62.0166 17.627C62.0166 17.2168 62.0703 16.8441 62.1777 16.5088C62.2852 16.1702 62.4382 15.8805 62.6367 15.6396C62.8353 15.3988 63.0745 15.2132 63.3545 15.083C63.6377 14.9495 63.9551 14.8828 64.3066 14.8828C65.013 14.8828 65.529 15.1693 65.8545 15.7422H65.874V15H66.499V19.6143ZM65.874 16.9629C65.874 16.7546 65.8366 16.5576 65.7617 16.3721C65.6868 16.1865 65.5827 16.0238 65.4492 15.8838C65.3158 15.7438 65.1562 15.6331 64.9707 15.5518C64.7884 15.4671 64.5866 15.4248 64.3652 15.4248C64.1048 15.4248 63.8688 15.4753 63.6572 15.5762C63.4489 15.6771 63.2699 15.8203 63.1201 16.0059C62.9736 16.1914 62.8597 16.4176 62.7783 16.6846C62.7002 16.9482 62.6611 17.2461 62.6611 17.5781C62.6611 17.8841 62.6986 18.1608 62.7734 18.4082C62.8483 18.6556 62.9541 18.8656 63.0908 19.0381C63.2275 19.2106 63.3919 19.3441 63.584 19.4385C63.7793 19.5329 63.9958 19.5801 64.2334 19.5801C64.4808 19.5801 64.7054 19.5361 64.9072 19.4482C65.109 19.3571 65.2816 19.2334 65.4248 19.0771C65.568 18.9176 65.6787 18.7321 65.7568 18.5205C65.835 18.3057 65.874 18.0745 65.874 17.8271V16.9629ZM70.1562 20.1172C69.7852 20.1172 69.4515 20.0553 69.1553 19.9316C68.8623 19.8079 68.6117 19.6338 68.4033 19.4092C68.195 19.1813 68.0355 18.9095 67.9248 18.5938C67.8141 18.278 67.7588 17.9281 67.7588 17.5439C67.7588 17.1273 67.8174 16.7546 67.9346 16.4258C68.0518 16.097 68.2178 15.8187 68.4326 15.5908C68.6507 15.3597 68.9128 15.1839 69.2188 15.0635C69.5247 14.943 69.8665 14.8828 70.2441 14.8828C70.6055 14.8828 70.931 14.943 71.2207 15.0635C71.5104 15.1807 71.7562 15.3516 71.958 15.5762C72.1598 15.8008 72.3145 16.0742 72.4219 16.3965C72.5293 16.7188 72.583 17.085 72.583 17.4951C72.583 17.8857 72.526 18.2422 72.4121 18.5645C72.3014 18.8835 72.1419 19.1585 71.9336 19.3896C71.7253 19.6208 71.4714 19.7998 71.1719 19.9268C70.8724 20.0537 70.5339 20.1172 70.1562 20.1172ZM70.2051 15.4248C69.9316 15.4248 69.6842 15.472 69.4629 15.5664C69.2415 15.6608 69.0511 15.7992 68.8916 15.9814C68.7354 16.1605 68.6149 16.3818 68.5303 16.6455C68.4456 16.9059 68.4033 17.2021 68.4033 17.5342C68.4033 17.8467 68.4456 18.1283 68.5303 18.3789C68.6149 18.6296 68.7337 18.8444 68.8867 19.0234C69.043 19.2025 69.2318 19.3408 69.4531 19.4385C69.6745 19.5329 69.9219 19.5801 70.1953 19.5801C70.4753 19.5801 70.7227 19.5345 70.9375 19.4434C71.1523 19.349 71.3346 19.2139 71.4844 19.0381C71.6341 18.859 71.7464 18.641 71.8213 18.3838C71.8994 18.1266 71.9385 17.8337 71.9385 17.5049C71.9385 16.8311 71.7887 16.3167 71.4893 15.9619C71.1898 15.6038 70.7617 15.4248 70.2051 15.4248ZM74.1406 17.6123C74.1439 17.9183 74.1846 18.1934 74.2627 18.4375C74.3408 18.6816 74.4531 18.8883 74.5996 19.0576C74.7461 19.2269 74.9235 19.3571 75.1318 19.4482C75.3434 19.5361 75.5811 19.5801 75.8447 19.5801C76.4079 19.5801 76.9401 19.3831 77.4414 18.9893V19.6045C76.9629 19.9463 76.3835 20.1172 75.7031 20.1172C75.3678 20.1172 75.0635 20.0586 74.79 19.9414C74.5166 19.8242 74.2839 19.6549 74.0918 19.4336C73.8997 19.209 73.7516 18.9339 73.6475 18.6084C73.5433 18.2829 73.4912 17.9118 73.4912 17.4951C73.4912 17.1208 73.5482 16.7741 73.6621 16.4551C73.776 16.1361 73.9339 15.861 74.1357 15.6299C74.3376 15.3955 74.5768 15.2132 74.8535 15.083C75.1302 14.9495 75.4329 14.8828 75.7617 14.8828C76.084 14.8828 76.3688 14.9398 76.6162 15.0537C76.8636 15.1644 77.0703 15.3239 77.2363 15.5322C77.4056 15.7406 77.5342 15.9945 77.6221 16.2939C77.71 16.5934 77.7539 16.9287 77.7539 17.2998V17.6123H74.1406ZM77.1094 17.0654C77.0996 16.5446 76.9759 16.141 76.7383 15.8545C76.5007 15.568 76.1702 15.4248 75.7471 15.4248C75.5355 15.4248 75.3385 15.4622 75.1562 15.5371C74.9772 15.612 74.8193 15.721 74.6826 15.8643C74.5459 16.0042 74.432 16.1768 74.3408 16.3818C74.2529 16.5837 74.1911 16.8115 74.1553 17.0654H77.1094ZM78.6963 19.1016C78.7907 19.1764 78.8932 19.2432 79.0039 19.3018C79.1146 19.3604 79.2285 19.4108 79.3457 19.4531C79.4629 19.4954 79.5801 19.528 79.6973 19.5508C79.8177 19.5703 79.9316 19.5801 80.0391 19.5801C80.7812 19.5801 81.1523 19.3018 81.1523 18.7451C81.1523 18.6182 81.1263 18.5091 81.0742 18.418C81.0221 18.3236 80.9473 18.2389 80.8496 18.1641C80.752 18.0859 80.6348 18.0143 80.498 17.9492C80.3613 17.8841 80.2067 17.8158 80.0342 17.7441C79.8031 17.6497 79.6045 17.5537 79.4385 17.4561C79.2725 17.3584 79.1357 17.2526 79.0283 17.1387C78.9209 17.0215 78.8411 16.8945 78.7891 16.7578C78.737 16.6178 78.7109 16.46 78.7109 16.2842C78.7109 16.0628 78.7581 15.8659 78.8525 15.6934C78.9502 15.5208 79.0804 15.3743 79.2432 15.2539C79.4059 15.1335 79.5931 15.0423 79.8047 14.9805C80.0195 14.9154 80.2441 14.8828 80.4785 14.8828C80.9115 14.8828 81.2891 14.9642 81.6113 15.127V15.7861C81.237 15.5452 80.8333 15.4248 80.4004 15.4248C80.2441 15.4248 80.1009 15.4443 79.9707 15.4834C79.8438 15.5225 79.7347 15.5778 79.6436 15.6494C79.5524 15.721 79.4808 15.8073 79.4287 15.9082C79.3799 16.0059 79.3555 16.1149 79.3555 16.2354C79.3555 16.359 79.375 16.4681 79.4141 16.5625C79.4531 16.6536 79.5133 16.7367 79.5947 16.8115C79.6794 16.8864 79.7868 16.958 79.917 17.0264C80.0505 17.0947 80.2116 17.168 80.4004 17.2461C80.6413 17.3438 80.8496 17.4414 81.0254 17.5391C81.2012 17.6335 81.346 17.7376 81.46 17.8516C81.5739 17.9622 81.6585 18.0876 81.7139 18.2275C81.7692 18.3643 81.7969 18.5238 81.7969 18.7061C81.7969 18.9307 81.7497 19.1309 81.6553 19.3066C81.5641 19.4824 81.4355 19.6305 81.2695 19.751C81.1068 19.8714 80.9147 19.9626 80.6934 20.0244C80.472 20.0863 80.2311 20.1172 79.9707 20.1172C79.4661 20.1172 79.0413 20.0114 78.6963 19.7998V19.1016ZM89.1602 20V17.0605C89.1602 16.5007 89.0592 16.0889 88.8574 15.8252C88.6556 15.5583 88.3415 15.4248 87.915 15.4248C87.7132 15.4248 87.5212 15.4655 87.3389 15.5469C87.1566 15.6283 86.9971 15.7454 86.8604 15.8984C86.7236 16.0514 86.6146 16.2386 86.5332 16.46C86.4518 16.6781 86.4111 16.9255 86.4111 17.2021V20H85.7861V12.5977H86.4111V15.8643H86.4307C86.8213 15.21 87.3812 14.8828 88.1104 14.8828C88.667 14.8828 89.0853 15.0537 89.3652 15.3955C89.6452 15.7373 89.7852 16.2419 89.7852 16.9092V20H89.1602ZM91.5918 17.6123C91.5951 17.9183 91.6357 18.1934 91.7139 18.4375C91.792 18.6816 91.9043 18.8883 92.0508 19.0576C92.1973 19.2269 92.3747 19.3571 92.583 19.4482C92.7946 19.5361 93.0322 19.5801 93.2959 19.5801C93.859 19.5801 94.3913 19.3831 94.8926 18.9893V19.6045C94.4141 19.9463 93.8346 20.1172 93.1543 20.1172C92.819 20.1172 92.5146 20.0586 92.2412 19.9414C91.9678 19.8242 91.735 19.6549 91.543 19.4336C91.3509 19.209 91.2028 18.9339 91.0986 18.6084C90.9945 18.2829 90.9424 17.9118 90.9424 17.4951C90.9424 17.1208 90.9993 16.7741 91.1133 16.4551C91.2272 16.1361 91.3851 15.861 91.5869 15.6299C91.7887 15.3955 92.028 15.2132 92.3047 15.083C92.5814 14.9495 92.8841 14.8828 93.2129 14.8828C93.5352 14.8828 93.82 14.9398 94.0674 15.0537C94.3148 15.1644 94.5215 15.3239 94.6875 15.5322C94.8568 15.7406 94.9854 15.9945 95.0732 16.2939C95.1611 16.5934 95.2051 16.9287 95.2051 17.2998V17.6123H91.5918ZM94.5605 17.0654C94.5508 16.5446 94.4271 16.141 94.1895 15.8545C93.9518 15.568 93.6214 15.4248 93.1982 15.4248C92.9867 15.4248 92.7897 15.4622 92.6074 15.5371C92.4284 15.612 92.2705 15.721 92.1338 15.8643C91.9971 16.0042 91.8831 16.1768 91.792 16.3818C91.7041 16.5837 91.6423 16.8115 91.6064 17.0654H94.5605ZM98.9111 15.6396C98.7646 15.5322 98.5758 15.4785 98.3447 15.4785C98.1787 15.4785 98.0322 15.5111 97.9053 15.5762C97.7783 15.638 97.666 15.7227 97.5684 15.8301C97.474 15.9375 97.3926 16.0628 97.3242 16.2061C97.2591 16.346 97.2054 16.4925 97.1631 16.6455C97.124 16.7985 97.0947 16.9531 97.0752 17.1094C97.0589 17.2656 97.0508 17.4137 97.0508 17.5537V20H96.4307V15H97.0508V16.0693H97.0703C97.1289 15.887 97.2021 15.7243 97.29 15.5811C97.3812 15.4346 97.4854 15.3125 97.6025 15.2148C97.7197 15.1139 97.8467 15.0374 97.9834 14.9854C98.1234 14.9333 98.2699 14.9072 98.4229 14.9072C98.5238 14.9072 98.6133 14.9137 98.6914 14.9268C98.7728 14.9398 98.846 14.9593 98.9111 14.9854V15.6396ZM99.9805 17.6123C99.9837 17.9183 100.024 18.1934 100.103 18.4375C100.181 18.6816 100.293 18.8883 100.439 19.0576C100.586 19.2269 100.763 19.3571 100.972 19.4482C101.183 19.5361 101.421 19.5801 101.685 19.5801C102.248 19.5801 102.78 19.3831 103.281 18.9893V19.6045C102.803 19.9463 102.223 20.1172 101.543 20.1172C101.208 20.1172 100.903 20.0586 100.63 19.9414C100.356 19.8242 100.124 19.6549 99.9316 19.4336C99.7396 19.209 99.5915 18.9339 99.4873 18.6084C99.3831 18.2829 99.3311 17.9118 99.3311 17.4951C99.3311 17.1208 99.388 16.7741 99.502 16.4551C99.6159 16.1361 99.7738 15.861 99.9756 15.6299C100.177 15.3955 100.417 15.2132 100.693 15.083C100.97 14.9495 101.273 14.8828 101.602 14.8828C101.924 14.8828 102.209 14.9398 102.456 15.0537C102.703 15.1644 102.91 15.3239 103.076 15.5322C103.245 15.7406 103.374 15.9945 103.462 16.2939C103.55 16.5934 103.594 16.9287 103.594 17.2998V17.6123H99.9805ZM102.949 17.0654C102.939 16.5446 102.816 16.141 102.578 15.8545C102.34 15.568 102.01 15.4248 101.587 15.4248C101.375 15.4248 101.178 15.4622 100.996 15.5371C100.817 15.612 100.659 15.721 100.522 15.8643C100.386 16.0042 100.272 16.1768 100.181 16.3818C100.093 16.5837 100.031 16.8115 99.9951 17.0654H102.949Z" fill="black"/>
<path d="M17.0508 79.4863C16.9668 79.4219 16.8457 79.3896 16.6875 79.3896C16.4824 79.3896 16.3105 79.4863 16.1719 79.6797C16.0352 79.873 15.9668 80.1367 15.9668 80.4707V82H15.4863V79H15.9668V79.6182H15.9785C16.0469 79.4072 16.1514 79.2432 16.292 79.126C16.4326 79.0068 16.5898 78.9473 16.7637 78.9473C16.8887 78.9473 16.9844 78.9609 17.0508 78.9883V79.4863ZM19.9834 80.6201H17.8652C17.873 80.9541 17.9629 81.2119 18.1348 81.3936C18.3066 81.5752 18.543 81.666 18.8438 81.666C19.1816 81.666 19.4922 81.5547 19.7754 81.332V81.7832C19.5117 81.9746 19.1631 82.0703 18.7295 82.0703C18.3057 82.0703 17.9727 81.9346 17.7305 81.6631C17.4883 81.3896 17.3672 81.0059 17.3672 80.5117C17.3672 80.0449 17.499 79.665 17.7627 79.3721C18.0283 79.0771 18.3574 78.9297 18.75 78.9297C19.1426 78.9297 19.4463 79.0566 19.6611 79.3105C19.876 79.5645 19.9834 79.917 19.9834 80.3682V80.6201ZM19.4912 80.2129C19.4893 79.9355 19.4219 79.7197 19.2891 79.5654C19.1582 79.4111 18.9756 79.334 18.7412 79.334C18.5146 79.334 18.3223 79.415 18.1641 79.5771C18.0059 79.7393 17.9082 79.9512 17.8711 80.2129H19.4912ZM24.9727 82H24.4922V80.2773C24.4922 79.9453 24.4404 79.7051 24.3369 79.5566C24.2354 79.4082 24.0635 79.334 23.8213 79.334C23.6162 79.334 23.4414 79.4277 23.2969 79.6152C23.1543 79.8027 23.083 80.0273 23.083 80.2891V82H22.6025V80.2188C22.6025 79.6289 22.375 79.334 21.9199 79.334C21.709 79.334 21.5352 79.4229 21.3984 79.6006C21.2617 79.7764 21.1934 80.0059 21.1934 80.2891V82H20.7129V79H21.1934V79.4746H21.2051C21.418 79.1113 21.7285 78.9297 22.1367 78.9297C22.3418 78.9297 22.5205 78.9873 22.6729 79.1025C22.8252 79.2158 22.9297 79.3652 22.9863 79.5508C23.209 79.1367 23.541 78.9297 23.9824 78.9297C24.6426 78.9297 24.9727 79.3369 24.9727 80.1514V82ZM27.1348 82.0703C26.6914 82.0703 26.3369 81.9307 26.0713 81.6514C25.8076 81.3701 25.6758 80.998 25.6758 80.5352C25.6758 80.0312 25.8135 79.6377 26.0889 79.3545C26.3643 79.0713 26.7363 78.9297 27.2051 78.9297C27.6523 78.9297 28.001 79.0674 28.251 79.3428C28.5029 79.6182 28.6289 80 28.6289 80.4883C28.6289 80.9668 28.4932 81.3506 28.2217 81.6396C27.9521 81.9268 27.5898 82.0703 27.1348 82.0703ZM27.1699 79.334C26.8613 79.334 26.6172 79.4395 26.4375 79.6504C26.2578 79.8594 26.168 80.1484 26.168 80.5176C26.168 80.873 26.2588 81.1533 26.4404 81.3584C26.6221 81.5635 26.8652 81.666 27.1699 81.666C27.4805 81.666 27.7188 81.5654 27.8848 81.3643C28.0527 81.1631 28.1367 80.877 28.1367 80.5059C28.1367 80.1309 28.0527 79.8418 27.8848 79.6387C27.7188 79.4355 27.4805 79.334 27.1699 79.334ZM31.7549 79L30.5596 82H30.0879L28.9512 79H29.4785L30.2402 81.1797C30.2969 81.3398 30.332 81.4795 30.3457 81.5986H30.3574C30.377 81.4482 30.4082 81.3125 30.4512 81.1914L31.248 79H31.7549ZM34.6846 80.6201H32.5664C32.5742 80.9541 32.6641 81.2119 32.8359 81.3936C33.0078 81.5752 33.2441 81.666 33.5449 81.666C33.8828 81.666 34.1934 81.5547 34.4766 81.332V81.7832C34.2129 81.9746 33.8643 82.0703 33.4307 82.0703C33.0068 82.0703 32.6738 81.9346 32.4316 81.6631C32.1895 81.3896 32.0684 81.0059 32.0684 80.5117C32.0684 80.0449 32.2002 79.665 32.4639 79.3721C32.7295 79.0771 33.0586 78.9297 33.4512 78.9297C33.8438 78.9297 34.1475 79.0566 34.3623 79.3105C34.5771 79.5645 34.6846 79.917 34.6846 80.3682V80.6201ZM34.1924 80.2129C34.1904 79.9355 34.123 79.7197 33.9902 79.5654C33.8594 79.4111 33.6768 79.334 33.4424 79.334C33.2158 79.334 33.0234 79.415 32.8652 79.5771C32.707 79.7393 32.6094 79.9512 32.5723 80.2129H34.1924ZM37.5527 81.5664H37.541V83.3799H37.0605V79H37.541V79.5273H37.5527C37.7891 79.1289 38.1348 78.9297 38.5898 78.9297C38.9766 78.9297 39.2783 79.0645 39.4951 79.334C39.7119 79.6016 39.8203 79.9609 39.8203 80.4121C39.8203 80.9141 39.6982 81.3164 39.4541 81.6191C39.21 81.9199 38.876 82.0703 38.4521 82.0703C38.0635 82.0703 37.7637 81.9023 37.5527 81.5664ZM37.541 80.3564V80.7754C37.541 81.0234 37.6211 81.2344 37.7812 81.4082C37.9434 81.5801 38.1484 81.666 38.3965 81.666C38.6875 81.666 38.915 81.5547 39.0791 81.332C39.2451 81.1094 39.3281 80.7998 39.3281 80.4033C39.3281 80.0693 39.251 79.8076 39.0967 79.6182C38.9424 79.4287 38.7334 79.334 38.4697 79.334C38.1904 79.334 37.9658 79.4316 37.7959 79.627C37.626 79.8203 37.541 80.0635 37.541 80.3564ZM42.1523 79.4863C42.0684 79.4219 41.9473 79.3896 41.7891 79.3896C41.584 79.3896 41.4121 79.4863 41.2734 79.6797C41.1367 79.873 41.0684 80.1367 41.0684 80.4707V82H40.5879V79H41.0684V79.6182H41.0801C41.1484 79.4072 41.2529 79.2432 41.3936 79.126C41.5342 79.0068 41.6914 78.9473 41.8652 78.9473C41.9902 78.9473 42.0859 78.9609 42.1523 78.9883V79.4863ZM45.085 80.6201H42.9668C42.9746 80.9541 43.0645 81.2119 43.2363 81.3936C43.4082 81.5752 43.6445 81.666 43.9453 81.666C44.2832 81.666 44.5938 81.5547 44.877 81.332V81.7832C44.6133 81.9746 44.2646 82.0703 43.8311 82.0703C43.4072 82.0703 43.0742 81.9346 42.832 81.6631C42.5898 81.3896 42.4688 81.0059 42.4688 80.5117C42.4688 80.0449 42.6006 79.665 42.8643 79.3721C43.1299 79.0771 43.459 78.9297 43.8516 78.9297C44.2441 78.9297 44.5479 79.0566 44.7627 79.3105C44.9775 79.5645 45.085 79.917 45.085 80.3682V80.6201ZM44.5928 80.2129C44.5908 79.9355 44.5234 79.7197 44.3906 79.5654C44.2598 79.4111 44.0771 79.334 43.8428 79.334C43.6162 79.334 43.4238 79.415 43.2656 79.5771C43.1074 79.7393 43.0098 79.9512 42.9727 80.2129H44.5928ZM46.3066 81.5664H46.2949V83.3799H45.8145V79H46.2949V79.5273H46.3066C46.543 79.1289 46.8887 78.9297 47.3438 78.9297C47.7305 78.9297 48.0322 79.0645 48.249 79.334C48.4658 79.6016 48.5742 79.9609 48.5742 80.4121C48.5742 80.9141 48.4521 81.3164 48.208 81.6191C47.9639 81.9199 47.6299 82.0703 47.2061 82.0703C46.8174 82.0703 46.5176 81.9023 46.3066 81.5664ZM46.2949 80.3564V80.7754C46.2949 81.0234 46.375 81.2344 46.5352 81.4082C46.6973 81.5801 46.9023 81.666 47.1504 81.666C47.4414 81.666 47.6689 81.5547 47.833 81.332C47.999 81.1094 48.082 80.7998 48.082 80.4033C48.082 80.0693 48.0049 79.8076 47.8506 79.6182C47.6963 79.4287 47.4873 79.334 47.2236 79.334C46.9443 79.334 46.7197 79.4316 46.5498 79.627C46.3799 79.8203 46.2949 80.0635 46.2949 80.3564ZM51.7676 82H51.2871V81.5254H51.2754C51.0762 81.8887 50.7676 82.0703 50.3496 82.0703C49.6348 82.0703 49.2773 81.6445 49.2773 80.793V79H49.7549V80.7168C49.7549 81.3496 49.9971 81.666 50.4814 81.666C50.7158 81.666 50.9082 81.5801 51.0586 81.4082C51.2109 81.2344 51.2871 81.0078 51.2871 80.7285V79H51.7676V82ZM53.2324 81.5664H53.2207V82H52.7402V77.5586H53.2207V79.5273H53.2324C53.4688 79.1289 53.8145 78.9297 54.2695 78.9297C54.6543 78.9297 54.9551 79.0645 55.1719 79.334C55.3906 79.6016 55.5 79.9609 55.5 80.4121C55.5 80.9141 55.3779 81.3164 55.1338 81.6191C54.8896 81.9199 54.5557 82.0703 54.1318 82.0703C53.7354 82.0703 53.4355 81.9023 53.2324 81.5664ZM53.2207 80.3564V80.7754C53.2207 81.0234 53.3008 81.2344 53.4609 81.4082C53.623 81.5801 53.8281 81.666 54.0762 81.666C54.3672 81.666 54.5947 81.5547 54.7588 81.332C54.9248 81.1094 55.0078 80.7998 55.0078 80.4033C55.0078 80.0693 54.9307 79.8076 54.7764 79.6182C54.6221 79.4287 54.4131 79.334 54.1494 79.334C53.8701 79.334 53.6455 79.4316 53.4756 79.627C53.3057 79.8203 53.2207 80.0635 53.2207 80.3564ZM56.748 82H56.2676V77.5586H56.748V82ZM57.9668 78.2383C57.8809 78.2383 57.8076 78.209 57.7471 78.1504C57.6865 78.0918 57.6562 78.0176 57.6562 77.9277C57.6562 77.8379 57.6865 77.7637 57.7471 77.7051C57.8076 77.6445 57.8809 77.6143 57.9668 77.6143C58.0547 77.6143 58.1289 77.6445 58.1895 77.7051C58.252 77.7637 58.2832 77.8379 58.2832 77.9277C58.2832 78.0137 58.252 78.0869 58.1895 78.1475C58.1289 78.208 58.0547 78.2383 57.9668 78.2383ZM58.2012 82H57.7207V79H58.2012V82ZM58.9922 81.8916V81.376C59.2539 81.5693 59.542 81.666 59.8564 81.666C60.2783 81.666 60.4893 81.5254 60.4893 81.2441C60.4893 81.1641 60.4707 81.0967 60.4336 81.042C60.3984 80.9854 60.3496 80.9355 60.2871 80.8926C60.2266 80.8496 60.1543 80.8115 60.0703 80.7783C59.9883 80.7432 59.8994 80.707 59.8037 80.6699C59.6709 80.6172 59.5537 80.5645 59.4521 80.5117C59.3525 80.457 59.2686 80.3965 59.2002 80.3301C59.1338 80.2617 59.083 80.1846 59.0479 80.0986C59.0146 80.0127 58.998 79.9121 58.998 79.7969C58.998 79.6562 59.0303 79.5322 59.0947 79.4248C59.1592 79.3154 59.2451 79.2246 59.3525 79.1523C59.46 79.0781 59.582 79.0225 59.7188 78.9854C59.8574 78.9482 60 78.9297 60.1465 78.9297C60.4062 78.9297 60.6387 78.9746 60.8438 79.0645V79.5508C60.623 79.4062 60.3691 79.334 60.082 79.334C59.9922 79.334 59.9111 79.3447 59.8389 79.3662C59.7666 79.3857 59.7041 79.4141 59.6514 79.4512C59.6006 79.4883 59.5605 79.5332 59.5312 79.5859C59.5039 79.6367 59.4902 79.6934 59.4902 79.7559C59.4902 79.834 59.5039 79.8994 59.5312 79.9521C59.5605 80.0049 59.6025 80.0518 59.6572 80.0928C59.7119 80.1338 59.7783 80.1709 59.8564 80.2041C59.9346 80.2373 60.0234 80.2734 60.123 80.3125C60.2559 80.3633 60.375 80.416 60.4805 80.4707C60.5859 80.5234 60.6758 80.584 60.75 80.6523C60.8242 80.7188 60.8809 80.7959 60.9199 80.8838C60.9609 80.9717 60.9814 81.0762 60.9814 81.1973C60.9814 81.3457 60.9482 81.4746 60.8818 81.584C60.8174 81.6934 60.7305 81.7842 60.6211 81.8564C60.5117 81.9287 60.3857 81.9824 60.2432 82.0176C60.1006 82.0527 59.9512 82.0703 59.7949 82.0703C59.4863 82.0703 59.2188 82.0107 58.9922 81.8916ZM64.2129 82H63.7324V80.2715C63.7324 79.6465 63.5 79.334 63.0352 79.334C62.8008 79.334 62.6035 79.4248 62.4434 79.6064C62.2832 79.7861 62.2031 80.0176 62.2031 80.3008V82H61.7227V77.5586H62.2031V79.498H62.2148C62.4453 79.1191 62.7734 78.9297 63.1992 78.9297C63.875 78.9297 64.2129 79.3369 64.2129 80.1514V82ZM66.5859 81.8916V81.376C66.8477 81.5693 67.1357 81.666 67.4502 81.666C67.8721 81.666 68.083 81.5254 68.083 81.2441C68.083 81.1641 68.0645 81.0967 68.0273 81.042C67.9922 80.9854 67.9434 80.9355 67.8809 80.8926C67.8203 80.8496 67.748 80.8115 67.6641 80.7783C67.582 80.7432 67.4932 80.707 67.3975 80.6699C67.2646 80.6172 67.1475 80.5645 67.0459 80.5117C66.9463 80.457 66.8623 80.3965 66.7939 80.3301C66.7275 80.2617 66.6768 80.1846 66.6416 80.0986C66.6084 80.0127 66.5918 79.9121 66.5918 79.7969C66.5918 79.6562 66.624 79.5322 66.6885 79.4248C66.7529 79.3154 66.8389 79.2246 66.9463 79.1523C67.0537 79.0781 67.1758 79.0225 67.3125 78.9854C67.4512 78.9482 67.5938 78.9297 67.7402 78.9297C68 78.9297 68.2324 78.9746 68.4375 79.0645V79.5508C68.2168 79.4062 67.9629 79.334 67.6758 79.334C67.5859 79.334 67.5049 79.3447 67.4326 79.3662C67.3604 79.3857 67.2979 79.4141 67.2451 79.4512C67.1943 79.4883 67.1543 79.5332 67.125 79.5859C67.0977 79.6367 67.084 79.6934 67.084 79.7559C67.084 79.834 67.0977 79.8994 67.125 79.9521C67.1543 80.0049 67.1963 80.0518 67.251 80.0928C67.3057 80.1338 67.3721 80.1709 67.4502 80.2041C67.5283 80.2373 67.6172 80.2734 67.7168 80.3125C67.8496 80.3633 67.9688 80.416 68.0742 80.4707C68.1797 80.5234 68.2695 80.584 68.3438 80.6523C68.418 80.7188 68.4746 80.7959 68.5137 80.8838C68.5547 80.9717 68.5752 81.0762 68.5752 81.1973C68.5752 81.3457 68.542 81.4746 68.4756 81.584C68.4111 81.6934 68.3242 81.7842 68.2148 81.8564C68.1055 81.9287 67.9795 81.9824 67.8369 82.0176C67.6943 82.0527 67.5449 82.0703 67.3887 82.0703C67.0801 82.0703 66.8125 82.0107 66.5859 81.8916ZM71.3613 81.8623C71.1309 82.001 70.8574 82.0703 70.541 82.0703C70.1133 82.0703 69.7676 81.9316 69.5039 81.6543C69.2422 81.375 69.1113 81.0137 69.1113 80.5703C69.1113 80.0762 69.2529 79.6797 69.5361 79.3809C69.8193 79.0801 70.1973 78.9297 70.6699 78.9297C70.9336 78.9297 71.166 78.9785 71.3672 79.0762V79.5684C71.1445 79.4121 70.9062 79.334 70.6523 79.334C70.3457 79.334 70.0938 79.4443 69.8965 79.665C69.7012 79.8838 69.6035 80.1719 69.6035 80.5293C69.6035 80.8809 69.6953 81.1582 69.8789 81.3613C70.0645 81.5645 70.3125 81.666 70.623 81.666C70.8848 81.666 71.1309 81.5791 71.3613 81.4053V81.8623ZM73.6523 79.4863C73.5684 79.4219 73.4473 79.3896 73.2891 79.3896C73.084 79.3896 72.9121 79.4863 72.7734 79.6797C72.6367 79.873 72.5684 80.1367 72.5684 80.4707V82H72.0879V79H72.5684V79.6182H72.5801C72.6484 79.4072 72.7529 79.2432 72.8936 79.126C73.0342 79.0068 73.1914 78.9473 73.3652 78.9473C73.4902 78.9473 73.5859 78.9609 73.6523 78.9883V79.4863ZM74.4199 78.2383C74.334 78.2383 74.2607 78.209 74.2002 78.1504C74.1396 78.0918 74.1094 78.0176 74.1094 77.9277C74.1094 77.8379 74.1396 77.7637 74.2002 77.7051C74.2607 77.6445 74.334 77.6143 74.4199 77.6143C74.5078 77.6143 74.582 77.6445 74.6426 77.7051C74.7051 77.7637 74.7363 77.8379 74.7363 77.9277C74.7363 78.0137 74.7051 78.0869 74.6426 78.1475C74.582 78.208 74.5078 78.2383 74.4199 78.2383ZM74.6543 82H74.1738V79H74.6543V82ZM76.1191 81.5664H76.1074V83.3799H75.627V79H76.1074V79.5273H76.1191C76.3555 79.1289 76.7012 78.9297 77.1562 78.9297C77.543 78.9297 77.8447 79.0645 78.0615 79.334C78.2783 79.6016 78.3867 79.9609 78.3867 80.4121C78.3867 80.9141 78.2646 81.3164 78.0205 81.6191C77.7764 81.9199 77.4424 82.0703 77.0186 82.0703C76.6299 82.0703 76.3301 81.9023 76.1191 81.5664ZM76.1074 80.3564V80.7754C76.1074 81.0234 76.1875 81.2344 76.3477 81.4082C76.5098 81.5801 76.7148 81.666 76.9629 81.666C77.2539 81.666 77.4814 81.5547 77.6455 81.332C77.8115 81.1094 77.8945 80.7998 77.8945 80.4033C77.8945 80.0693 77.8174 79.8076 77.6631 79.6182C77.5088 79.4287 77.2998 79.334 77.0361 79.334C76.7568 79.334 76.5322 79.4316 76.3623 79.627C76.1924 79.8203 76.1074 80.0635 76.1074 80.3564ZM80.5459 81.9707C80.4326 82.0332 80.2832 82.0645 80.0977 82.0645C79.5723 82.0645 79.3096 81.7715 79.3096 81.1855V79.4102H78.7939V79H79.3096V78.2676L79.79 78.1123V79H80.5459V79.4102H79.79V81.1006C79.79 81.3018 79.8242 81.4453 79.8926 81.5312C79.9609 81.6172 80.0742 81.6602 80.2324 81.6602C80.3535 81.6602 80.458 81.627 80.5459 81.5605V81.9707ZM84.3164 77.9805C84.2227 77.9277 84.1162 77.9014 83.9971 77.9014C83.6611 77.9014 83.4932 78.1133 83.4932 78.5371V79H84.1963V79.4102H83.4932V82H83.0156V79.4102H82.5029V79H83.0156V78.5137C83.0156 78.1992 83.1064 77.9512 83.2881 77.7695C83.4697 77.5859 83.6963 77.4941 83.9678 77.4941C84.1143 77.4941 84.2305 77.5117 84.3164 77.5469V77.9805ZM86.2793 79.4863C86.1953 79.4219 86.0742 79.3896 85.916 79.3896C85.7109 79.3896 85.5391 79.4863 85.4004 79.6797C85.2637 79.873 85.1953 80.1367 85.1953 80.4707V82H84.7148V79H85.1953V79.6182H85.207C85.2754 79.4072 85.3799 79.2432 85.5205 79.126C85.6611 79.0068 85.8184 78.9473 85.9922 78.9473C86.1172 78.9473 86.2129 78.9609 86.2793 78.9883V79.4863ZM88.0547 82.0703C87.6113 82.0703 87.2568 81.9307 86.9912 81.6514C86.7275 81.3701 86.5957 80.998 86.5957 80.5352C86.5957 80.0312 86.7334 79.6377 87.0088 79.3545C87.2842 79.0713 87.6562 78.9297 88.125 78.9297C88.5723 78.9297 88.9209 79.0674 89.1709 79.3428C89.4229 79.6182 89.5488 80 89.5488 80.4883C89.5488 80.9668 89.4131 81.3506 89.1416 81.6396C88.8721 81.9268 88.5098 82.0703 88.0547 82.0703ZM88.0898 79.334C87.7812 79.334 87.5371 79.4395 87.3574 79.6504C87.1777 79.8594 87.0879 80.1484 87.0879 80.5176C87.0879 80.873 87.1787 81.1533 87.3604 81.3584C87.542 81.5635 87.7852 81.666 88.0898 81.666C88.4004 81.666 88.6387 81.5654 88.8047 81.3643C88.9727 81.1631 89.0566 80.877 89.0566 80.5059C89.0566 80.1309 88.9727 79.8418 88.8047 79.6387C88.6387 79.4355 88.4004 79.334 88.0898 79.334ZM94.5762 82H94.0957V80.2773C94.0957 79.9453 94.0439 79.7051 93.9404 79.5566C93.8389 79.4082 93.667 79.334 93.4248 79.334C93.2197 79.334 93.0449 79.4277 92.9004 79.6152C92.7578 79.8027 92.6865 80.0273 92.6865 80.2891V82H92.2061V80.2188C92.2061 79.6289 91.9785 79.334 91.5234 79.334C91.3125 79.334 91.1387 79.4229 91.002 79.6006C90.8652 79.7764 90.7969 80.0059 90.7969 80.2891V82H90.3164V79H90.7969V79.4746H90.8086C91.0215 79.1113 91.332 78.9297 91.7402 78.9297C91.9453 78.9297 92.124 78.9873 92.2764 79.1025C92.4287 79.2158 92.5332 79.3652 92.5898 79.5508C92.8125 79.1367 93.1445 78.9297 93.5859 78.9297C94.2461 78.9297 94.5762 79.3369 94.5762 80.1514V82ZM99.2783 82H98.7979V81.5312H98.7861C98.5771 81.8906 98.2695 82.0703 97.8633 82.0703C97.5645 82.0703 97.3301 81.9912 97.1602 81.833C96.9922 81.6748 96.9082 81.4648 96.9082 81.2031C96.9082 80.6426 97.2383 80.3164 97.8984 80.2246L98.7979 80.0986C98.7979 79.5889 98.5918 79.334 98.1797 79.334C97.8184 79.334 97.4922 79.457 97.2012 79.7031V79.2109C97.4961 79.0234 97.8359 78.9297 98.2207 78.9297C98.9258 78.9297 99.2783 79.3027 99.2783 80.0488V82ZM98.7979 80.4824L98.0742 80.582C97.8516 80.6133 97.6836 80.6689 97.5703 80.749C97.457 80.8271 97.4004 80.9668 97.4004 81.168C97.4004 81.3145 97.4521 81.4346 97.5557 81.5283C97.6611 81.6201 97.8008 81.666 97.9746 81.666C98.2129 81.666 98.4092 81.583 98.5635 81.417C98.7197 81.249 98.7979 81.0371 98.7979 80.7812V80.4824ZM102.744 82H102.264V81.4902H102.252C102.029 81.877 101.686 82.0703 101.221 82.0703C100.844 82.0703 100.542 81.9365 100.315 81.6689C100.091 81.3994 99.9785 81.0332 99.9785 80.5703C99.9785 80.0742 100.104 79.6768 100.354 79.3779C100.604 79.0791 100.937 78.9297 101.353 78.9297C101.765 78.9297 102.064 79.0918 102.252 79.416H102.264V77.5586H102.744V82ZM102.264 80.6436V80.2012C102.264 79.959 102.184 79.7539 102.023 79.5859C101.863 79.418 101.66 79.334 101.414 79.334C101.121 79.334 100.891 79.4414 100.723 79.6562C100.555 79.8711 100.471 80.168 100.471 80.5469C100.471 80.8926 100.551 81.166 100.711 81.3672C100.873 81.5664 101.09 81.666 101.361 81.666C101.629 81.666 101.846 81.5693 102.012 81.376C102.18 81.1826 102.264 80.9385 102.264 80.6436ZM105.864 82H105.384V81.5312H105.372C105.163 81.8906 104.855 82.0703 104.449 82.0703C104.15 82.0703 103.916 81.9912 103.746 81.833C103.578 81.6748 103.494 81.4648 103.494 81.2031C103.494 80.6426 103.824 80.3164 104.484 80.2246L105.384 80.0986C105.384 79.5889 105.178 79.334 104.766 79.334C104.404 79.334 104.078 79.457 103.787 79.7031V79.2109C104.082 79.0234 104.422 78.9297 104.807 78.9297C105.512 78.9297 105.864 79.3027 105.864 80.0488V82ZM105.384 80.4824L104.66 80.582C104.438 80.6133 104.27 80.6689 104.156 80.749C104.043 80.8271 103.986 80.9668 103.986 81.168C103.986 81.3145 104.038 81.4346 104.142 81.5283C104.247 81.6201 104.387 81.666 104.561 81.666C104.799 81.666 104.995 81.583 105.149 81.417C105.306 81.249 105.384 81.0371 105.384 80.7812V80.4824ZM107.262 81.5664H107.25V83.3799H106.77V79H107.25V79.5273H107.262C107.498 79.1289 107.844 78.9297 108.299 78.9297C108.686 78.9297 108.987 79.0645 109.204 79.334C109.421 79.6016 109.529 79.9609 109.529 80.4121C109.529 80.9141 109.407 81.3164 109.163 81.6191C108.919 81.9199 108.585 82.0703 108.161 82.0703C107.772 82.0703 107.473 81.9023 107.262 81.5664ZM107.25 80.3564V80.7754C107.25 81.0234 107.33 81.2344 107.49 81.4082C107.652 81.5801 107.857 81.666 108.105 81.666C108.396 81.666 108.624 81.5547 108.788 81.332C108.954 81.1094 109.037 80.7998 109.037 80.4033C109.037 80.0693 108.96 79.8076 108.806 79.6182C108.651 79.4287 108.442 79.334 108.179 79.334C107.899 79.334 107.675 79.4316 107.505 79.627C107.335 79.8203 107.25 80.0635 107.25 80.3564ZM111.688 81.9707C111.575 82.0332 111.426 82.0645 111.24 82.0645C110.715 82.0645 110.452 81.7715 110.452 81.1855V79.4102H109.937V79H110.452V78.2676L110.933 78.1123V79H111.688V79.4102H110.933V81.1006C110.933 81.3018 110.967 81.4453 111.035 81.5312C111.104 81.6172 111.217 81.6602 111.375 81.6602C111.496 81.6602 111.601 81.627 111.688 81.5605V81.9707ZM114.741 80.6201H112.623C112.631 80.9541 112.721 81.2119 112.893 81.3936C113.064 81.5752 113.301 81.666 113.602 81.666C113.939 81.666 114.25 81.5547 114.533 81.332V81.7832C114.27 81.9746 113.921 82.0703 113.487 82.0703C113.063 82.0703 112.73 81.9346 112.488 81.6631C112.246 81.3896 112.125 81.0059 112.125 80.5117C112.125 80.0449 112.257 79.665 112.521 79.3721C112.786 79.0771 113.115 78.9297 113.508 78.9297C113.9 78.9297 114.204 79.0566 114.419 79.3105C114.634 79.5645 114.741 79.917 114.741 80.3682V80.6201ZM114.249 80.2129C114.247 79.9355 114.18 79.7197 114.047 79.5654C113.916 79.4111 113.733 79.334 113.499 79.334C113.272 79.334 113.08 79.415 112.922 79.5771C112.764 79.7393 112.666 79.9512 112.629 80.2129H114.249ZM117.035 79.4863C116.951 79.4219 116.83 79.3896 116.672 79.3896C116.467 79.3896 116.295 79.4863 116.156 79.6797C116.02 79.873 115.951 80.1367 115.951 80.4707V82H115.471V79H115.951V79.6182H115.963C116.031 79.4072 116.136 79.2432 116.276 79.126C116.417 79.0068 116.574 78.9473 116.748 78.9473C116.873 78.9473 116.969 78.9609 117.035 78.9883V79.4863ZM119.092 80.5176H117.492V80.1396H119.092V80.5176ZM119.777 81.8916V81.376C120.039 81.5693 120.327 81.666 120.642 81.666C121.063 81.666 121.274 81.5254 121.274 81.2441C121.274 81.1641 121.256 81.0967 121.219 81.042C121.184 80.9854 121.135 80.9355 121.072 80.8926C121.012 80.8496 120.939 80.8115 120.855 80.7783C120.773 80.7432 120.685 80.707 120.589 80.6699C120.456 80.6172 120.339 80.5645 120.237 80.5117C120.138 80.457 120.054 80.3965 119.985 80.3301C119.919 80.2617 119.868 80.1846 119.833 80.0986C119.8 80.0127 119.783 79.9121 119.783 79.7969C119.783 79.6562 119.815 79.5322 119.88 79.4248C119.944 79.3154 120.03 79.2246 120.138 79.1523C120.245 79.0781 120.367 79.0225 120.504 78.9854C120.643 78.9482 120.785 78.9297 120.932 78.9297C121.191 78.9297 121.424 78.9746 121.629 79.0645V79.5508C121.408 79.4062 121.154 79.334 120.867 79.334C120.777 79.334 120.696 79.3447 120.624 79.3662C120.552 79.3857 120.489 79.4141 120.437 79.4512C120.386 79.4883 120.346 79.5332 120.316 79.5859C120.289 79.6367 120.275 79.6934 120.275 79.7559C120.275 79.834 120.289 79.8994 120.316 79.9521C120.346 80.0049 120.388 80.0518 120.442 80.0928C120.497 80.1338 120.563 80.1709 120.642 80.2041C120.72 80.2373 120.809 80.2734 120.908 80.3125C121.041 80.3633 121.16 80.416 121.266 80.4707C121.371 80.5234 121.461 80.584 121.535 80.6523C121.609 80.7188 121.666 80.7959 121.705 80.8838C121.746 80.9717 121.767 81.0762 121.767 81.1973C121.767 81.3457 121.733 81.4746 121.667 81.584C121.603 81.6934 121.516 81.7842 121.406 81.8564C121.297 81.9287 121.171 81.9824 121.028 82.0176C120.886 82.0527 120.736 82.0703 120.58 82.0703C120.271 82.0703 120.004 82.0107 119.777 81.8916ZM123.899 81.9707C123.786 82.0332 123.637 82.0645 123.451 82.0645C122.926 82.0645 122.663 81.7715 122.663 81.1855V79.4102H122.147V79H122.663V78.2676L123.144 78.1123V79H123.899V79.4102H123.144V81.1006C123.144 81.3018 123.178 81.4453 123.246 81.5312C123.314 81.6172 123.428 81.6602 123.586 81.6602C123.707 81.6602 123.812 81.627 123.899 81.5605V81.9707ZM126.688 82H126.208V81.5312H126.196C125.987 81.8906 125.68 82.0703 125.273 82.0703C124.975 82.0703 124.74 81.9912 124.57 81.833C124.402 81.6748 124.318 81.4648 124.318 81.2031C124.318 80.6426 124.648 80.3164 125.309 80.2246L126.208 80.0986C126.208 79.5889 126.002 79.334 125.59 79.334C125.229 79.334 124.902 79.457 124.611 79.7031V79.2109C124.906 79.0234 125.246 78.9297 125.631 78.9297C126.336 78.9297 126.688 79.3027 126.688 80.0488V82ZM126.208 80.4824L125.484 80.582C125.262 80.6133 125.094 80.6689 124.98 80.749C124.867 80.8271 124.811 80.9668 124.811 81.168C124.811 81.3145 124.862 81.4346 124.966 81.5283C125.071 81.6201 125.211 81.666 125.385 81.666C125.623 81.666 125.819 81.583 125.974 81.417C126.13 81.249 126.208 81.0371 126.208 80.7812V80.4824ZM128.985 81.9707C128.872 82.0332 128.723 82.0645 128.537 82.0645C128.012 82.0645 127.749 81.7715 127.749 81.1855V79.4102H127.233V79H127.749V78.2676L128.229 78.1123V79H128.985V79.4102H128.229V81.1006C128.229 81.3018 128.264 81.4453 128.332 81.5312C128.4 81.6172 128.514 81.6602 128.672 81.6602C128.793 81.6602 128.897 81.627 128.985 81.5605V81.9707ZM129.873 78.2383C129.787 78.2383 129.714 78.209 129.653 78.1504C129.593 78.0918 129.562 78.0176 129.562 77.9277C129.562 77.8379 129.593 77.7637 129.653 77.7051C129.714 77.6445 129.787 77.6143 129.873 77.6143C129.961 77.6143 130.035 77.6445 130.096 77.7051C130.158 77.7637 130.189 77.8379 130.189 77.9277C130.189 78.0137 130.158 78.0869 130.096 78.1475C130.035 78.208 129.961 78.2383 129.873 78.2383ZM130.107 82H129.627V79H130.107V82ZM133.125 81.8623C132.895 82.001 132.621 82.0703 132.305 82.0703C131.877 82.0703 131.531 81.9316 131.268 81.6543C131.006 81.375 130.875 81.0137 130.875 80.5703C130.875 80.0762 131.017 79.6797 131.3 79.3809C131.583 79.0801 131.961 78.9297 132.434 78.9297C132.697 78.9297 132.93 78.9785 133.131 79.0762V79.5684C132.908 79.4121 132.67 79.334 132.416 79.334C132.109 79.334 131.857 79.4443 131.66 79.665C131.465 79.8838 131.367 80.1719 131.367 80.5293C131.367 80.8809 131.459 81.1582 131.643 81.3613C131.828 81.5645 132.076 81.666 132.387 81.666C132.648 81.666 132.895 81.5791 133.125 81.4053V81.8623Z" fill="black"/>
<path d="M237.792 42.0519C237.792 42.2414 237.756 42.4142 237.684 42.5705C237.613 42.7248 237.513 42.8576 237.382 42.9689C237.253 43.0783 237.098 43.1633 236.916 43.2238C236.734 43.2844 236.534 43.3146 236.315 43.3146C235.915 43.3146 235.597 43.2385 235.36 43.0861V42.5705C235.644 42.7932 235.968 42.9045 236.333 42.9045C236.479 42.9045 236.611 42.8859 236.729 42.8488C236.848 42.8117 236.949 42.758 237.033 42.6877C237.119 42.6174 237.185 42.5324 237.229 42.4328C237.276 42.3332 237.3 42.2209 237.3 42.0959C237.3 41.5471 236.909 41.2726 236.128 41.2726H235.779V40.8654H236.11C236.802 40.8654 237.147 40.6076 237.147 40.092C237.147 39.6154 236.884 39.3771 236.356 39.3771C236.06 39.3771 235.781 39.4767 235.521 39.676V39.2101C235.789 39.05 236.107 38.9699 236.477 38.9699C236.652 38.9699 236.812 38.9943 236.954 39.0432C237.097 39.092 237.219 39.1603 237.32 39.2482C237.422 39.3361 237.5 39.4416 237.555 39.5646C237.611 39.6877 237.64 39.8234 237.64 39.9719C237.64 40.5246 237.36 40.8801 236.802 41.0383V41.05C236.944 41.0656 237.076 41.1008 237.197 41.1555C237.318 41.2082 237.423 41.2775 237.511 41.3635C237.599 41.4494 237.667 41.551 237.716 41.6682C237.767 41.7834 237.792 41.9113 237.792 42.0519ZM240.355 43.2414H239.875V39.6115C239.838 39.6486 239.783 39.6916 239.711 39.7404C239.641 39.7873 239.561 39.8342 239.471 39.881C239.383 39.9279 239.289 39.9719 239.189 40.0129C239.092 40.0539 238.996 40.0861 238.902 40.1096V39.6232C239.008 39.5939 239.119 39.5549 239.236 39.506C239.355 39.4553 239.472 39.3996 239.585 39.3391C239.7 39.2766 239.809 39.2121 239.91 39.1457C240.012 39.0773 240.1 39.0109 240.174 38.9465H240.355V43.2414ZM246.388 41.7355C246.388 42.2336 246.282 42.6213 246.071 42.8986C245.86 43.174 245.578 43.3117 245.225 43.3117C245.061 43.3117 244.926 43.2883 244.82 43.2414V42.7551C244.926 42.8312 245.062 42.8693 245.23 42.8693C245.674 42.8693 245.896 42.4933 245.896 41.7414V39.0402H246.388V41.7355ZM250.53 41.5422C250.53 42.7219 249.998 43.3117 248.934 43.3117C247.914 43.3117 247.404 42.7443 247.404 41.6096V39.0402H247.896V41.5773C247.896 42.4387 248.26 42.8693 248.986 42.8693C249.688 42.8693 250.038 42.4533 250.038 41.6213V39.0402H250.53V41.5422ZM253.762 43.2414H251.582V39.0402H252.074V42.7961H253.762V43.2414ZM256.785 39.0402L255.399 41.6887V43.2414H254.907V41.7004L253.557 39.0402H254.116L255.057 40.9387C255.068 40.9621 255.103 41.048 255.159 41.1965H255.168C255.188 41.1301 255.225 41.0441 255.279 40.9387L256.264 39.0402H256.785ZM260.729 40.1418C260.729 40.0129 260.708 39.9006 260.667 39.8049C260.628 39.7092 260.573 39.6301 260.503 39.5676C260.435 39.5031 260.354 39.4553 260.26 39.424C260.166 39.3928 260.064 39.3771 259.955 39.3771C259.861 39.3771 259.77 39.3898 259.68 39.4152C259.59 39.4406 259.502 39.4758 259.416 39.5207C259.332 39.5656 259.25 39.6193 259.17 39.6818C259.092 39.7443 259.019 39.8137 258.95 39.8898V39.3742C259.085 39.2433 259.235 39.1437 259.401 39.0754C259.569 39.0051 259.773 38.9699 260.014 38.9699C260.186 38.9699 260.345 38.9953 260.491 39.0461C260.638 39.0949 260.765 39.1672 260.872 39.2629C260.979 39.3586 261.063 39.4767 261.124 39.6174C261.187 39.758 261.218 39.9191 261.218 40.1008C261.218 40.2668 261.198 40.4172 261.159 40.5519C261.122 40.6867 261.064 40.8137 260.986 40.9328C260.91 41.0519 260.813 41.1662 260.696 41.2756C260.579 41.3849 260.441 41.4963 260.283 41.6096C260.086 41.7502 259.923 41.8703 259.794 41.9699C259.667 42.0695 259.565 42.1633 259.489 42.2512C259.415 42.3371 259.362 42.424 259.331 42.5119C259.302 42.5978 259.287 42.6974 259.287 42.8107H261.379V43.2414H258.786V43.0334C258.786 42.8537 258.806 42.6955 258.845 42.5588C258.884 42.4221 258.948 42.2922 259.038 42.1691C259.128 42.0461 259.245 41.923 259.39 41.8C259.536 41.6769 259.715 41.5383 259.926 41.384C260.078 41.2746 260.205 41.1701 260.307 41.0705C260.41 40.9709 260.493 40.8713 260.556 40.7717C260.618 40.6721 260.662 40.5715 260.688 40.4699C260.715 40.3664 260.729 40.257 260.729 40.1418ZM264.689 41.1232C264.689 41.4748 264.657 41.7863 264.593 42.0578C264.53 42.3293 264.438 42.5588 264.317 42.7463C264.198 42.9318 264.051 43.0734 263.875 43.1711C263.701 43.2668 263.503 43.3146 263.28 43.3146C263.069 43.3146 262.881 43.2687 262.715 43.1769C262.551 43.0832 262.412 42.9474 262.299 42.7697C262.186 42.592 262.1 42.3742 262.041 42.1164C261.982 41.8566 261.953 41.5598 261.953 41.2258C261.953 40.8586 261.983 40.5344 262.044 40.2531C262.106 39.9719 262.197 39.7365 262.316 39.5471C262.436 39.3557 262.583 39.2121 262.759 39.1164C262.937 39.0187 263.14 38.9699 263.368 38.9699C264.249 38.9699 264.689 39.6877 264.689 41.1232ZM264.197 41.1701C264.197 39.9748 263.913 39.3771 263.345 39.3771C262.745 39.3771 262.445 39.9855 262.445 41.2023C262.445 42.3371 262.739 42.9045 263.327 42.9045C263.907 42.9045 264.197 42.3264 264.197 41.1701ZM267.197 40.1418C267.197 40.0129 267.177 39.9006 267.136 39.8049C267.097 39.7092 267.042 39.6301 266.972 39.5676C266.903 39.5031 266.822 39.4553 266.729 39.424C266.635 39.3928 266.533 39.3771 266.424 39.3771C266.33 39.3771 266.238 39.3898 266.148 39.4152C266.059 39.4406 265.971 39.4758 265.885 39.5207C265.801 39.5656 265.719 39.6193 265.639 39.6818C265.561 39.7443 265.487 39.8137 265.419 39.8898V39.3742C265.554 39.2433 265.704 39.1437 265.87 39.0754C266.038 39.0051 266.242 38.9699 266.482 38.9699C266.654 38.9699 266.813 38.9953 266.96 39.0461C267.106 39.0949 267.233 39.1672 267.341 39.2629C267.448 39.3586 267.532 39.4767 267.593 39.6174C267.655 39.758 267.687 39.9191 267.687 40.1008C267.687 40.2668 267.667 40.4172 267.628 40.5519C267.591 40.6867 267.533 40.8137 267.455 40.9328C267.379 41.0519 267.282 41.1662 267.165 41.2756C267.048 41.3849 266.91 41.4963 266.752 41.6096C266.555 41.7502 266.392 41.8703 266.263 41.9699C266.136 42.0695 266.034 42.1633 265.958 42.2512C265.884 42.3371 265.831 42.424 265.8 42.5119C265.771 42.5978 265.756 42.6974 265.756 42.8107H267.848V43.2414H265.255V43.0334C265.255 42.8537 265.274 42.6955 265.313 42.5588C265.353 42.4221 265.417 42.2922 265.507 42.1691C265.597 42.0461 265.714 41.923 265.858 41.8C266.005 41.6769 266.184 41.5383 266.395 41.384C266.547 41.2746 266.674 41.1701 266.775 41.0705C266.879 40.9709 266.962 40.8713 267.024 40.7717C267.087 40.6721 267.131 40.5715 267.156 40.4699C267.184 40.3664 267.197 40.257 267.197 40.1418ZM270.432 40.1418C270.432 40.0129 270.411 39.9006 270.37 39.8049C270.331 39.7092 270.276 39.6301 270.206 39.5676C270.138 39.5031 270.057 39.4553 269.963 39.424C269.869 39.3928 269.768 39.3771 269.658 39.3771C269.564 39.3771 269.473 39.3898 269.383 39.4152C269.293 39.4406 269.205 39.4758 269.119 39.5207C269.035 39.5656 268.953 39.6193 268.873 39.6818C268.795 39.7443 268.722 39.8137 268.653 39.8898V39.3742C268.788 39.2433 268.938 39.1437 269.104 39.0754C269.272 39.0051 269.477 38.9699 269.717 38.9699C269.889 38.9699 270.048 38.9953 270.194 39.0461C270.341 39.0949 270.468 39.1672 270.575 39.2629C270.683 39.3586 270.767 39.4767 270.827 39.6174C270.89 39.758 270.921 39.9191 270.921 40.1008C270.921 40.2668 270.901 40.4172 270.862 40.5519C270.825 40.6867 270.768 40.8137 270.689 40.9328C270.613 41.0519 270.517 41.1662 270.399 41.2756C270.282 41.3849 270.145 41.4963 269.986 41.6096C269.789 41.7502 269.626 41.8703 269.497 41.9699C269.37 42.0695 269.269 42.1633 269.192 42.2512C269.118 42.3371 269.065 42.424 269.034 42.5119C269.005 42.5978 268.99 42.6974 268.99 42.8107H271.082V43.2414H268.489V43.0334C268.489 42.8537 268.509 42.6955 268.548 42.5588C268.587 42.4221 268.651 42.2922 268.741 42.1691C268.831 42.0461 268.948 41.923 269.093 41.8C269.239 41.6769 269.418 41.5383 269.629 41.384C269.781 41.2746 269.908 41.1701 270.01 41.0705C270.113 40.9709 270.196 40.8713 270.259 40.7717C270.321 40.6721 270.365 40.5715 270.391 40.4699C270.418 40.3664 270.432 40.257 270.432 40.1418Z" fill="#0991CD"/>
<path d="M247.967 54H247.486V49.5586H247.967V54ZM250.193 54.0703C249.75 54.0703 249.396 53.9307 249.13 53.6514C248.866 53.3701 248.734 52.998 248.734 52.5352C248.734 52.0312 248.872 51.6377 249.147 51.3545C249.423 51.0713 249.795 50.9297 250.264 50.9297C250.711 50.9297 251.06 51.0674 251.31 51.3428C251.562 51.6182 251.688 52 251.688 52.4883C251.688 52.9668 251.552 53.3506 251.28 53.6396C251.011 53.9268 250.648 54.0703 250.193 54.0703ZM250.229 51.334C249.92 51.334 249.676 51.4395 249.496 51.6504C249.316 51.8594 249.227 52.1484 249.227 52.5176C249.227 52.873 249.317 53.1533 249.499 53.3584C249.681 53.5635 249.924 53.666 250.229 53.666C250.539 53.666 250.777 53.5654 250.943 53.3643C251.111 53.1631 251.195 52.877 251.195 52.5059C251.195 52.1309 251.111 51.8418 250.943 51.6387C250.777 51.4355 250.539 51.334 250.229 51.334ZM254.5 53.8623C254.27 54.001 253.996 54.0703 253.68 54.0703C253.252 54.0703 252.906 53.9316 252.643 53.6543C252.381 53.375 252.25 53.0137 252.25 52.5703C252.25 52.0762 252.392 51.6797 252.675 51.3809C252.958 51.0801 253.336 50.9297 253.809 50.9297C254.072 50.9297 254.305 50.9785 254.506 51.0762V51.5684C254.283 51.4121 254.045 51.334 253.791 51.334C253.484 51.334 253.232 51.4443 253.035 51.665C252.84 51.8838 252.742 52.1719 252.742 52.5293C252.742 52.8809 252.834 53.1582 253.018 53.3613C253.203 53.5645 253.451 53.666 253.762 53.666C254.023 53.666 254.27 53.5791 254.5 53.4053V53.8623ZM257.374 54H256.894V53.5312H256.882C256.673 53.8906 256.365 54.0703 255.959 54.0703C255.66 54.0703 255.426 53.9912 255.256 53.833C255.088 53.6748 255.004 53.4648 255.004 53.2031C255.004 52.6426 255.334 52.3164 255.994 52.2246L256.894 52.0986C256.894 51.5889 256.688 51.334 256.275 51.334C255.914 51.334 255.588 51.457 255.297 51.7031V51.2109C255.592 51.0234 255.932 50.9297 256.316 50.9297C257.021 50.9297 257.374 51.3027 257.374 52.0488V54ZM256.894 52.4824L256.17 52.582C255.947 52.6133 255.779 52.6689 255.666 52.749C255.553 52.8271 255.496 52.9668 255.496 53.168C255.496 53.3145 255.548 53.4346 255.651 53.5283C255.757 53.6201 255.896 53.666 256.07 53.666C256.309 53.666 256.505 53.583 256.659 53.417C256.815 53.249 256.894 53.0371 256.894 52.7812V52.4824ZM259.671 53.9707C259.558 54.0332 259.408 54.0645 259.223 54.0645C258.697 54.0645 258.435 53.7715 258.435 53.1855V51.4102H257.919V51H258.435V50.2676L258.915 50.1123V51H259.671V51.4102H258.915V53.1006C258.915 53.3018 258.949 53.4453 259.018 53.5312C259.086 53.6172 259.199 53.6602 259.357 53.6602C259.479 53.6602 259.583 53.627 259.671 53.5605V53.9707ZM260.559 50.2383C260.473 50.2383 260.399 50.209 260.339 50.1504C260.278 50.0918 260.248 50.0176 260.248 49.9277C260.248 49.8379 260.278 49.7637 260.339 49.7051C260.399 49.6445 260.473 49.6143 260.559 49.6143C260.646 49.6143 260.721 49.6445 260.781 49.7051C260.844 49.7637 260.875 49.8379 260.875 49.9277C260.875 50.0137 260.844 50.0869 260.781 50.1475C260.721 50.208 260.646 50.2383 260.559 50.2383ZM260.793 54H260.312V51H260.793V54ZM263.02 54.0703C262.576 54.0703 262.222 53.9307 261.956 53.6514C261.692 53.3701 261.561 52.998 261.561 52.5352C261.561 52.0312 261.698 51.6377 261.974 51.3545C262.249 51.0713 262.621 50.9297 263.09 50.9297C263.537 50.9297 263.886 51.0674 264.136 51.3428C264.388 51.6182 264.514 52 264.514 52.4883C264.514 52.9668 264.378 53.3506 264.106 53.6396C263.837 53.9268 263.475 54.0703 263.02 54.0703ZM263.055 51.334C262.746 51.334 262.502 51.4395 262.322 51.6504C262.143 51.8594 262.053 52.1484 262.053 52.5176C262.053 52.873 262.144 53.1533 262.325 53.3584C262.507 53.5635 262.75 53.666 263.055 53.666C263.365 53.666 263.604 53.5654 263.77 53.3643C263.938 53.1631 264.021 52.877 264.021 52.5059C264.021 52.1309 263.938 51.8418 263.77 51.6387C263.604 51.4355 263.365 51.334 263.055 51.334ZM267.771 54H267.291V52.2891C267.291 51.6523 267.059 51.334 266.594 51.334C266.354 51.334 266.154 51.4248 265.996 51.6064C265.84 51.7861 265.762 52.0137 265.762 52.2891V54H265.281V51H265.762V51.498H265.773C266 51.1191 266.328 50.9297 266.758 50.9297C267.086 50.9297 267.337 51.0361 267.511 51.249C267.685 51.46 267.771 51.7656 267.771 52.166V54Z" fill="#032D40"/>
<path d="M257.878 61.9707C257.765 62.0332 257.615 62.0645 257.43 62.0645C256.904 62.0645 256.642 61.7715 256.642 61.1855V59.4102H256.126V59H256.642V58.2676L257.122 58.1123V59H257.878V59.4102H257.122V61.1006C257.122 61.3018 257.156 61.4453 257.225 61.5312C257.293 61.6172 257.406 61.6602 257.564 61.6602C257.686 61.6602 257.79 61.627 257.878 61.5605V61.9707ZM258.766 58.2383C258.68 58.2383 258.606 58.209 258.546 58.1504C258.485 58.0918 258.455 58.0176 258.455 57.9277C258.455 57.8379 258.485 57.7637 258.546 57.7051C258.606 57.6445 258.68 57.6143 258.766 57.6143C258.854 57.6143 258.928 57.6445 258.988 57.7051C259.051 57.7637 259.082 57.8379 259.082 57.9277C259.082 58.0137 259.051 58.0869 258.988 58.1475C258.928 58.208 258.854 58.2383 258.766 58.2383ZM259 62H258.52V59H259V62ZM264.232 62H263.752V60.2773C263.752 59.9453 263.7 59.7051 263.597 59.5566C263.495 59.4082 263.323 59.334 263.081 59.334C262.876 59.334 262.701 59.4277 262.557 59.6152C262.414 59.8027 262.343 60.0273 262.343 60.2891V62H261.862V60.2188C261.862 59.6289 261.635 59.334 261.18 59.334C260.969 59.334 260.795 59.4229 260.658 59.6006C260.521 59.7764 260.453 60.0059 260.453 60.2891V62H259.973V59H260.453V59.4746H260.465C260.678 59.1113 260.988 58.9297 261.396 58.9297C261.602 58.9297 261.78 58.9873 261.933 59.1025C262.085 59.2158 262.189 59.3652 262.246 59.5508C262.469 59.1367 262.801 58.9297 263.242 58.9297C263.902 58.9297 264.232 59.3369 264.232 60.1514V62ZM267.552 60.6201H265.434C265.441 60.9541 265.531 61.2119 265.703 61.3936C265.875 61.5752 266.111 61.666 266.412 61.666C266.75 61.666 267.061 61.5547 267.344 61.332V61.7832C267.08 61.9746 266.731 62.0703 266.298 62.0703C265.874 62.0703 265.541 61.9346 265.299 61.6631C265.057 61.3896 264.936 61.0059 264.936 60.5117C264.936 60.0449 265.067 59.665 265.331 59.3721C265.597 59.0771 265.926 58.9297 266.318 58.9297C266.711 58.9297 267.015 59.0566 267.229 59.3105C267.444 59.5645 267.552 59.917 267.552 60.3682V60.6201ZM267.06 60.2129C267.058 59.9355 266.99 59.7197 266.857 59.5654C266.727 59.4111 266.544 59.334 266.31 59.334C266.083 59.334 265.891 59.415 265.732 59.5771C265.574 59.7393 265.477 59.9512 265.439 60.2129H267.06Z" fill="#032D40"/>
<defs>
<filter id="filter0_d_25_4" x="0" y="0" width="284" height="143" filterUnits="userSpaceOnUse" color-interpolation-filters="sRGB">
<feFlood flood-opacity="0" result="BackgroundImageFix"/>
<feColorMatrix in="SourceAlpha" type="matrix" values="0 0 0 0 0 0 0 0 0 0 0 0 0 0 0 0 0 0 127 0" result="hardAlpha"/>
<feOffset dy="4"/>
<feGaussianBlur stdDeviation="2"/>
<feComposite in2="hardAlpha" operator="out"/>
<feColorMatrix type="matrix" values="0 0 0 0 0 0 0 0 0 0 0 0 0 0 0 0 0 0 0.25 0"/>
<feBlend mode="normal" in2="BackgroundImageFix" result="effect1_dropShadow_25_4"/>
<feBlend mode="normal" in="SourceGraphic" in2="effect1_dropShadow_25_4" result="shape"/>
</filter>
<filter id="filter1_d_25_4" x="11" y="97" width="112" height="37" filterUnits="userSpaceOnUse" color-interpolation-filters="sRGB">
<feFlood flood-opacity="0" result="BackgroundImageFix"/>
<feColorMatrix in="SourceAlpha" type="matrix" values="0 0 0 0 0 0 0 0 0 0 0 0 0 0 0 0 0 0 127 0" result="hardAlpha"/>
<feOffset dy="4"/>
<feGaussianBlur stdDeviation="2"/>
<feComposite in2="hardAlpha" operator="out"/>
<feColorMatrix type="matrix" values="0 0 0 0 0 0 0 0 0 0 0 0 0 0 0 0 0 0 0.25 0"/>
<feBlend mode="normal" in2="BackgroundImageFix" result="effect1_dropShadow_25_4"/>
<feBlend mode="normal" in="SourceGraphic" in2="effect1_dropShadow_25_4" result="shape"/>
</filter>
</defs>
</svg>
