<svg width="236" height="143" viewBox="0 0 236 143" fill="none" xmlns="http://www.w3.org/2000/svg">
<g filter="url(#filter0_d_25_4)">
<rect x="-45" width="276" height="135" rx="1" fill="white"/>
</g>
<rect x="-26.5465" y="29.2611" width="44.1279" height="9.31034" rx="4" fill="#DF9844"/>
<path d="M-18.4849 34.4109C-18.5581 34.3572 -18.6525 34.3304 -18.7681 34.3304C-18.8511 34.3304 -18.9243 34.3467 -18.9878 34.3792C-19.0513 34.4101 -19.1074 34.4525 -19.1562 34.5062C-19.2035 34.5599 -19.2441 34.6225 -19.2783 34.6942C-19.3109 34.7641 -19.3377 34.8374 -19.3589 34.9139C-19.3784 34.9904 -19.3931 35.0677 -19.4028 35.1458C-19.411 35.2239 -19.415 35.298 -19.415 35.368V36.5911H-19.7251V34.0911H-19.415V34.6258H-19.4053C-19.376 34.5346 -19.3394 34.4533 -19.2954 34.3817C-19.2498 34.3084 -19.1978 34.2474 -19.1392 34.1985C-19.0806 34.1481 -19.0171 34.1098 -18.9487 34.0838C-18.8787 34.0578 -18.8055 34.0447 -18.729 34.0447C-18.6785 34.0447 -18.6338 34.048 -18.5947 34.0545C-18.554 34.061 -18.5174 34.0708 -18.4849 34.0838V34.4109ZM-17.9502 35.3973C-17.9486 35.5503 -17.9282 35.6878 -17.8892 35.8099C-17.8501 35.9319 -17.7939 36.0353 -17.7207 36.1199C-17.6475 36.2046 -17.5588 36.2697 -17.4546 36.3152C-17.3488 36.3592 -17.23 36.3812 -17.0981 36.3812C-16.8166 36.3812 -16.5505 36.2827 -16.2998 36.0858V36.3934C-16.5391 36.5643 -16.8288 36.6497 -17.1689 36.6497C-17.3366 36.6497 -17.4888 36.6204 -17.6255 36.5618C-17.7622 36.5032 -17.8786 36.4186 -17.9746 36.3079C-18.0706 36.1956 -18.1447 36.0581 -18.1968 35.8953C-18.2489 35.7326 -18.2749 35.547 -18.2749 35.3387C-18.2749 35.1515 -18.2464 34.9782 -18.1895 34.8187C-18.1325 34.6592 -18.0535 34.5216 -17.9526 34.4061C-17.8517 34.2889 -17.7321 34.1977 -17.5938 34.1326C-17.4554 34.0659 -17.304 34.0325 -17.1396 34.0325C-16.9785 34.0325 -16.8361 34.061 -16.7124 34.118C-16.5887 34.1733 -16.4854 34.2531 -16.4023 34.3572C-16.3177 34.4614 -16.2534 34.5884 -16.2095 34.7381C-16.1655 34.8878 -16.1436 35.0555 -16.1436 35.241V35.3973H-17.9502ZM-16.4658 35.1238C-16.4707 34.8634 -16.5326 34.6616 -16.6514 34.5184C-16.7702 34.3751 -16.9354 34.3035 -17.147 34.3035C-17.2528 34.3035 -17.3512 34.3222 -17.4424 34.3597C-17.5319 34.3971 -17.6108 34.4516 -17.6792 34.5233C-17.7476 34.5932 -17.8045 34.6795 -17.8501 34.782C-17.894 34.883 -17.925 34.9969 -17.9429 35.1238H-16.4658ZM-12.3887 36.5911V35.1214C-12.3887 34.9717 -12.4001 34.8455 -12.4229 34.743C-12.4456 34.6388 -12.4814 34.5542 -12.5303 34.4891C-12.5775 34.424 -12.6385 34.3768 -12.7134 34.3475C-12.7866 34.3182 -12.8745 34.3035 -12.9771 34.3035C-13.0682 34.3035 -13.1545 34.3255 -13.2358 34.3694C-13.3172 34.4118 -13.3888 34.4712 -13.4507 34.5477C-13.5109 34.6225 -13.5589 34.7112 -13.5947 34.8138C-13.6289 34.9163 -13.646 35.027 -13.646 35.1458V36.5911H-13.9585V35.0897C-13.9585 34.5656 -14.1595 34.3035 -14.5615 34.3035C-14.6543 34.3035 -14.7406 34.3247 -14.8203 34.367C-14.9001 34.4077 -14.9701 34.4655 -15.0303 34.5403C-15.0889 34.6152 -15.1353 34.7055 -15.1694 34.8113C-15.202 34.9155 -15.2183 35.0311 -15.2183 35.158V36.5911H-15.5308V34.0911H-15.2183V34.4964H-15.2085C-15.0327 34.1872 -14.7764 34.0325 -14.4395 34.0325C-14.3516 34.0325 -14.2686 34.0464 -14.1904 34.074C-14.1123 34.1001 -14.0423 34.1375 -13.9805 34.1863C-13.9186 34.2335 -13.8657 34.2905 -13.8218 34.3572C-13.7762 34.424 -13.742 34.4972 -13.7192 34.577C-13.6313 34.3996 -13.5174 34.2645 -13.3774 34.1717C-13.2358 34.0789 -13.0763 34.0325 -12.8989 34.0325C-12.3504 34.0325 -12.0762 34.3711 -12.0762 35.0482V36.5911H-12.3887ZM-11.168 33.4588C-11.2282 33.4588 -11.2803 33.4376 -11.3242 33.3953C-11.3682 33.353 -11.3901 33.2993 -11.3901 33.2342C-11.3901 33.1707 -11.3682 33.1186 -11.3242 33.0779C-11.2803 33.0356 -11.2282 33.0145 -11.168 33.0145C-11.137 33.0145 -11.1077 33.0202 -11.0801 33.0316C-11.0524 33.0413 -11.0288 33.056 -11.0093 33.0755C-10.9881 33.095 -10.9718 33.1186 -10.9604 33.1463C-10.9474 33.1723 -10.9409 33.2016 -10.9409 33.2342C-10.9409 33.2651 -10.9466 33.2944 -10.958 33.3221C-10.9694 33.3498 -10.9857 33.3742 -11.0068 33.3953C-11.028 33.4149 -11.0524 33.4303 -11.0801 33.4417C-11.1061 33.4531 -11.1354 33.4588 -11.168 33.4588ZM-11.3218 36.5911V34.0911H-11.0093V36.5911H-11.3218ZM-8.5166 36.5911V35.1507C-8.5166 34.5859 -8.72168 34.3035 -9.13184 34.3035C-9.24089 34.3035 -9.3418 34.3255 -9.43457 34.3694C-9.52734 34.4118 -9.60791 34.4712 -9.67627 34.5477C-9.743 34.6242 -9.7959 34.7153 -9.83496 34.8211C-9.8724 34.9253 -9.89111 35.0384 -9.89111 35.1605V36.5911H-10.2036V34.0911H-9.89111V34.5257H-9.88135C-9.6958 34.1969 -9.41667 34.0325 -9.04395 34.0325C-8.77051 34.0325 -8.56217 34.1212 -8.41895 34.2986C-8.27572 34.4761 -8.2041 34.7324 -8.2041 35.0677V36.5911H-8.5166ZM-5.69678 36.5911V36.1517H-5.70654C-5.78955 36.3095 -5.90837 36.4324 -6.06299 36.5203C-6.21598 36.6066 -6.39014 36.6497 -6.58545 36.6497C-6.7417 36.6497 -6.88411 36.6212 -7.0127 36.5643C-7.13965 36.5057 -7.2487 36.4219 -7.33984 36.3128C-7.43099 36.2038 -7.50179 36.0719 -7.55225 35.9173C-7.60107 35.7627 -7.62549 35.5877 -7.62549 35.3924C-7.62549 35.1906 -7.59863 35.0067 -7.54492 34.8406C-7.48958 34.673 -7.41227 34.5298 -7.31299 34.4109C-7.21208 34.2905 -7.09163 34.1977 -6.95166 34.1326C-6.81006 34.0659 -6.65299 34.0325 -6.48047 34.0325C-6.12077 34.0325 -5.86279 34.1766 -5.70654 34.4647H-5.69678V32.89H-5.38428V36.5911H-5.69678ZM-5.69678 35.0823C-5.69678 34.9733 -5.71549 34.8716 -5.75293 34.7772C-5.79036 34.6828 -5.84245 34.6006 -5.90918 34.5306C-5.97591 34.4606 -6.05648 34.4053 -6.15088 34.3646C-6.24365 34.3239 -6.34619 34.3035 -6.4585 34.3035C-6.58219 34.3035 -6.69613 34.3279 -6.80029 34.3768C-6.90446 34.4256 -6.99398 34.4964 -7.06885 34.5892C-7.14209 34.6803 -7.19987 34.7918 -7.24219 34.9236C-7.28288 35.0555 -7.30322 35.2052 -7.30322 35.3729C-7.30322 35.5307 -7.28451 35.6723 -7.24707 35.7977C-7.20964 35.923 -7.15674 36.0288 -7.08838 36.1151C-7.01839 36.2013 -6.93538 36.2672 -6.83936 36.3128C-6.74333 36.3584 -6.63672 36.3812 -6.51953 36.3812C-6.39258 36.3812 -6.27865 36.3584 -6.17773 36.3128C-6.0752 36.2672 -5.98893 36.2046 -5.91895 36.1248C-5.84733 36.0451 -5.79281 35.9515 -5.75537 35.8441C-5.71631 35.7366 -5.69678 35.6219 -5.69678 35.4998V35.0823ZM-4.42969 35.3973C-4.42806 35.5503 -4.40771 35.6878 -4.36865 35.8099C-4.32959 35.9319 -4.27344 36.0353 -4.2002 36.1199C-4.12695 36.2046 -4.03825 36.2697 -3.93408 36.3152C-3.82829 36.3592 -3.70947 36.3812 -3.57764 36.3812C-3.29606 36.3812 -3.02995 36.2827 -2.7793 36.0858V36.3934C-3.01855 36.5643 -3.30827 36.6497 -3.64844 36.6497C-3.81608 36.6497 -3.96826 36.6204 -4.10498 36.5618C-4.2417 36.5032 -4.35807 36.4186 -4.4541 36.3079C-4.55013 36.1956 -4.62419 36.0581 -4.67627 35.8953C-4.72835 35.7326 -4.75439 35.547 -4.75439 35.3387C-4.75439 35.1515 -4.72591 34.9782 -4.66895 34.8187C-4.61198 34.6592 -4.53304 34.5216 -4.43213 34.4061C-4.33122 34.2889 -4.21159 34.1977 -4.07324 34.1326C-3.9349 34.0659 -3.78353 34.0325 -3.61914 34.0325C-3.45801 34.0325 -3.31559 34.061 -3.19189 34.118C-3.0682 34.1733 -2.96484 34.2531 -2.88184 34.3572C-2.7972 34.4614 -2.73291 34.5884 -2.68896 34.7381C-2.64502 34.8878 -2.62305 35.0555 -2.62305 35.241V35.3973H-4.42969ZM-2.94531 35.1238C-2.9502 34.8634 -3.01204 34.6616 -3.13086 34.5184C-3.24967 34.3751 -3.41488 34.3035 -3.62646 34.3035C-3.73226 34.3035 -3.83073 34.3222 -3.92188 34.3597C-4.01139 34.3971 -4.09033 34.4516 -4.15869 34.5233C-4.22705 34.5932 -4.28402 34.6795 -4.32959 34.782C-4.37354 34.883 -4.40446 34.9969 -4.42236 35.1238H-2.94531ZM-0.77002 34.4109C-0.843262 34.3572 -0.937663 34.3304 -1.05322 34.3304C-1.13623 34.3304 -1.20947 34.3467 -1.27295 34.3792C-1.33643 34.4101 -1.39258 34.4525 -1.44141 34.5062C-1.48861 34.5599 -1.5293 34.6225 -1.56348 34.6942C-1.59603 34.7641 -1.62288 34.8374 -1.64404 34.9139C-1.66357 34.9904 -1.67822 35.0677 -1.68799 35.1458C-1.69613 35.2239 -1.7002 35.298 -1.7002 35.368V36.5911H-2.01025V34.0911H-1.7002V34.6258H-1.69043C-1.66113 34.5346 -1.62451 34.4533 -1.58057 34.3817C-1.53499 34.3084 -1.48291 34.2474 -1.42432 34.1985C-1.36572 34.1481 -1.30225 34.1098 -1.23389 34.0838C-1.1639 34.0578 -1.09066 34.0447 -1.01416 34.0447C-0.963704 34.0447 -0.918945 34.048 -0.879883 34.0545C-0.839193 34.061 -0.802572 34.0708 -0.77002 34.0838V34.4109ZM2.2207 33.1854C2.15072 33.1398 2.06038 33.117 1.94971 33.117C1.65674 33.117 1.51025 33.3082 1.51025 33.6907V34.0911H2.13281V34.3646H1.51025V36.5911H1.19775V34.3646H0.760742V34.0911H1.19775V33.6712C1.19775 33.5459 1.21322 33.4328 1.24414 33.3318C1.27669 33.2293 1.32389 33.1422 1.38574 33.0706C1.44759 32.9974 1.5249 32.9412 1.61768 32.9022C1.71208 32.8631 1.82031 32.8436 1.94238 32.8436C2.05957 32.8436 2.15234 32.859 2.2207 32.89V33.1854ZM2.53076 36.5911V32.89H2.84326V36.5911H2.53076ZM5.08936 36.5911V36.1468H5.07959C4.99821 36.3063 4.88672 36.43 4.74512 36.5179C4.60514 36.6058 4.44645 36.6497 4.26904 36.6497C4.1486 36.6497 4.03955 36.6326 3.94189 36.5984C3.84587 36.5643 3.76367 36.5163 3.69531 36.4544C3.62858 36.3909 3.5765 36.3152 3.53906 36.2274C3.50326 36.1395 3.48535 36.0426 3.48535 35.9368C3.48535 35.7106 3.55534 35.5307 3.69531 35.3973C3.83529 35.2622 4.04688 35.1743 4.33008 35.1336L5.08936 35.0237C5.08936 34.5436 4.90299 34.3035 4.53027 34.3035C4.23893 34.3035 3.96875 34.4101 3.71973 34.6234V34.2816C3.77181 34.2441 3.8304 34.2108 3.89551 34.1815C3.96224 34.1505 4.03223 34.1245 4.10547 34.1033C4.17871 34.0805 4.25358 34.0635 4.33008 34.0521C4.4082 34.039 4.48389 34.0325 4.55713 34.0325C4.83545 34.0325 5.04541 34.1107 5.18701 34.2669C5.33024 34.4232 5.40186 34.6559 5.40186 34.9651V36.5911H5.08936ZM4.44482 35.3777C4.33252 35.394 4.23649 35.4144 4.15674 35.4388C4.07699 35.4632 4.01107 35.4966 3.95898 35.5389C3.9069 35.5796 3.86865 35.6308 3.84424 35.6927C3.81982 35.7529 3.80762 35.8278 3.80762 35.9173C3.80762 35.984 3.81901 36.0459 3.8418 36.1028C3.86621 36.1598 3.90039 36.2095 3.94434 36.2518C3.98991 36.2925 4.04443 36.3242 4.10791 36.347C4.17301 36.3698 4.24626 36.3812 4.32764 36.3812C4.43831 36.3812 4.54004 36.36 4.63281 36.3177C4.72559 36.2754 4.80534 36.2168 4.87207 36.1419C4.94043 36.067 4.99333 35.9775 5.03076 35.8734C5.06982 35.7692 5.08936 35.6561 5.08936 35.534V35.2874L4.44482 35.3777ZM6.30762 33.4588C6.2474 33.4588 6.19531 33.4376 6.15137 33.3953C6.10742 33.353 6.08545 33.2993 6.08545 33.2342C6.08545 33.1707 6.10742 33.1186 6.15137 33.0779C6.19531 33.0356 6.2474 33.0145 6.30762 33.0145C6.33854 33.0145 6.36784 33.0202 6.39551 33.0316C6.42318 33.0413 6.44678 33.056 6.46631 33.0755C6.48747 33.095 6.50374 33.1186 6.51514 33.1463C6.52816 33.1723 6.53467 33.2016 6.53467 33.2342C6.53467 33.2651 6.52897 33.2944 6.51758 33.3221C6.50618 33.3498 6.48991 33.3742 6.46875 33.3953C6.44759 33.4149 6.42318 33.4303 6.39551 33.4417C6.36947 33.4531 6.34017 33.4588 6.30762 33.4588ZM6.15381 36.5911V34.0911H6.46631V36.5911H6.15381ZM8.51221 34.4109C8.43896 34.3572 8.34456 34.3304 8.229 34.3304C8.146 34.3304 8.07275 34.3467 8.00928 34.3792C7.9458 34.4101 7.88965 34.4525 7.84082 34.5062C7.79362 34.5599 7.75293 34.6225 7.71875 34.6942C7.6862 34.7641 7.65934 34.8374 7.63818 34.9139C7.61865 34.9904 7.604 35.0677 7.59424 35.1458C7.5861 35.2239 7.58203 35.298 7.58203 35.368V36.5911H7.27197V34.0911H7.58203V34.6258H7.5918C7.62109 34.5346 7.65771 34.4533 7.70166 34.3817C7.74723 34.3084 7.79932 34.2474 7.85791 34.1985C7.9165 34.1481 7.97998 34.1098 8.04834 34.0838C8.11833 34.0578 8.19157 34.0447 8.26807 34.0447C8.31852 34.0447 8.36328 34.048 8.40234 34.0545C8.44303 34.061 8.47965 34.0708 8.51221 34.0838V34.4109Z" fill="black"/>
<g filter="url(#filter1_d_25_4)">
<rect x="-34" y="97" width="104" height="29" rx="4" fill="#0991CD" fill-opacity="0.24" shape-rendering="crispEdges"/>
</g>
<path d="M1.91797 116V108.998H3.85156C6.31901 108.998 7.55273 110.136 7.55273 112.411C7.55273 113.492 7.20931 114.361 6.52246 115.019C5.83887 115.673 4.92253 116 3.77344 116H1.91797ZM2.73828 109.74V115.258H3.7832C4.70117 115.258 5.41569 115.012 5.92676 114.521C6.43783 114.029 6.69336 113.332 6.69336 112.431C6.69336 110.637 5.73958 109.74 3.83203 109.74H2.73828ZM12.6406 116H8.92969V108.998H12.4844V109.74H9.75V112.069H12.2793V112.807H9.75V115.258H12.6406V116ZM17.6211 116H13.9883V108.998H14.8086V115.258H17.6211V116ZM22.4062 116H18.6953V108.998H22.25V109.74H19.5156V112.069H22.0449V112.807H19.5156V115.258H22.4062V116ZM27.8945 109.74H25.873V116H25.0527V109.74H23.0361V108.998H27.8945V109.74ZM32.709 116H28.998V108.998H32.5527V109.74H29.8184V112.069H32.3477V112.807H29.8184V115.258H32.709V116Z" fill="black"/>
<path d="M-25.7139 15.6396C-25.8604 15.5322 -26.0492 15.4785 -26.2803 15.4785C-26.4463 15.4785 -26.5928 15.5111 -26.7197 15.5762C-26.8467 15.638 -26.959 15.7227 -27.0566 15.8301C-27.151 15.9375 -27.2324 16.0628 -27.3008 16.2061C-27.3659 16.346 -27.4196 16.4925 -27.4619 16.6455C-27.501 16.7985 -27.5303 16.9531 -27.5498 17.1094C-27.5661 17.2656 -27.5742 17.4137 -27.5742 17.5537V20H-28.1943V15H-27.5742V16.0693H-27.5547C-27.4961 15.887 -27.4229 15.7243 -27.335 15.5811C-27.2438 15.4346 -27.1396 15.3125 -27.0225 15.2148C-26.9053 15.1139 -26.7783 15.0374 -26.6416 14.9854C-26.5016 14.9333 -26.3551 14.9072 -26.2021 14.9072C-26.1012 14.9072 -26.0117 14.9137 -25.9336 14.9268C-25.8522 14.9398 -25.779 14.9593 -25.7139 14.9854V15.6396ZM-24.6445 17.6123C-24.6413 17.9183 -24.6006 18.1934 -24.5225 18.4375C-24.4443 18.6816 -24.332 18.8883 -24.1855 19.0576C-24.0391 19.2269 -23.8617 19.3571 -23.6533 19.4482C-23.4417 19.5361 -23.2041 19.5801 -22.9404 19.5801C-22.3773 19.5801 -21.8451 19.3831 -21.3438 18.9893V19.6045C-21.8223 19.9463 -22.4017 20.1172 -23.082 20.1172C-23.4173 20.1172 -23.7217 20.0586 -23.9951 19.9414C-24.2686 19.8242 -24.5013 19.6549 -24.6934 19.4336C-24.8854 19.209 -25.0335 18.9339 -25.1377 18.6084C-25.2419 18.2829 -25.2939 17.9118 -25.2939 17.4951C-25.2939 17.1208 -25.237 16.7741 -25.123 16.4551C-25.0091 16.1361 -24.8512 15.861 -24.6494 15.6299C-24.4476 15.3955 -24.2083 15.2132 -23.9316 15.083C-23.6549 14.9495 -23.3522 14.8828 -23.0234 14.8828C-22.7012 14.8828 -22.4163 14.9398 -22.1689 15.0537C-21.9215 15.1644 -21.7148 15.3239 -21.5488 15.5322C-21.3796 15.7406 -21.251 15.9945 -21.1631 16.2939C-21.0752 16.5934 -21.0312 16.9287 -21.0312 17.2998V17.6123H-24.6445ZM-21.6758 17.0654C-21.6855 16.5446 -21.8092 16.141 -22.0469 15.8545C-22.2845 15.568 -22.6149 15.4248 -23.0381 15.4248C-23.2497 15.4248 -23.4466 15.4622 -23.6289 15.5371C-23.8079 15.612 -23.9658 15.721 -24.1025 15.8643C-24.2393 16.0042 -24.3532 16.1768 -24.4443 16.3818C-24.5322 16.5837 -24.5941 16.8115 -24.6299 17.0654H-21.6758ZM-13.5215 20V17.0605C-13.5215 16.7611 -13.5443 16.5088 -13.5898 16.3037C-13.6354 16.0954 -13.707 15.9261 -13.8047 15.7959C-13.8991 15.6657 -14.0212 15.5713 -14.1709 15.5127C-14.3174 15.4541 -14.4932 15.4248 -14.6982 15.4248C-14.8805 15.4248 -15.0531 15.4688 -15.2158 15.5566C-15.3786 15.6413 -15.5218 15.7601 -15.6455 15.9131C-15.766 16.0628 -15.862 16.2402 -15.9336 16.4453C-16.002 16.6504 -16.0361 16.8717 -16.0361 17.1094V20H-16.6611V16.9971C-16.6611 15.9489 -17.0632 15.4248 -17.8672 15.4248C-18.0527 15.4248 -18.2253 15.4671 -18.3848 15.5518C-18.5443 15.6331 -18.6842 15.7487 -18.8047 15.8984C-18.9219 16.0482 -19.0146 16.2288 -19.083 16.4404C-19.1481 16.6488 -19.1807 16.8799 -19.1807 17.1338V20H-19.8057V15H-19.1807V15.8105H-19.1611C-18.8096 15.1921 -18.2969 14.8828 -17.623 14.8828C-17.4473 14.8828 -17.2812 14.9105 -17.125 14.9658C-16.9688 15.0179 -16.8288 15.0928 -16.7051 15.1904C-16.5814 15.2848 -16.4756 15.3988 -16.3877 15.5322C-16.2965 15.6657 -16.2282 15.8122 -16.1826 15.9717C-16.0068 15.6169 -15.779 15.3467 -15.499 15.1611C-15.2158 14.9756 -14.8968 14.8828 -14.542 14.8828C-13.445 14.8828 -12.8965 15.5599 -12.8965 16.9141V20H-13.5215ZM-11.0801 13.7354C-11.2005 13.7354 -11.3047 13.693 -11.3926 13.6084C-11.4805 13.5238 -11.5244 13.4163 -11.5244 13.2861C-11.5244 13.1592 -11.4805 13.055 -11.3926 12.9736C-11.3047 12.889 -11.2005 12.8467 -11.0801 12.8467C-11.0182 12.8467 -10.9596 12.8581 -10.9043 12.8809C-10.849 12.9004 -10.8018 12.9297 -10.7627 12.9688C-10.7204 13.0078 -10.6878 13.055 -10.665 13.1104C-10.639 13.1624 -10.626 13.221 -10.626 13.2861C-10.626 13.348 -10.6374 13.4066 -10.6602 13.4619C-10.6829 13.5173 -10.7155 13.5661 -10.7578 13.6084C-10.8001 13.6475 -10.849 13.6784 -10.9043 13.7012C-10.9564 13.724 -11.015 13.7354 -11.0801 13.7354ZM-11.3877 20V15H-10.7627V20H-11.3877ZM-5.77734 20V17.1191C-5.77734 15.9896 -6.1875 15.4248 -7.00781 15.4248C-7.22591 15.4248 -7.42773 15.4688 -7.61328 15.5566C-7.79883 15.6413 -7.95996 15.7601 -8.09668 15.9131C-8.23014 16.0661 -8.33594 16.2484 -8.41406 16.46C-8.48893 16.6683 -8.52637 16.8945 -8.52637 17.1387V20H-9.15137V15H-8.52637V15.8691H-8.50684C-8.13574 15.2116 -7.57747 14.8828 -6.83203 14.8828C-6.28516 14.8828 -5.86849 15.0602 -5.58203 15.415C-5.29557 15.7699 -5.15234 16.2826 -5.15234 16.9531V20H-5.77734ZM-0.137695 20V19.1211H-0.157227C-0.323242 19.4368 -0.560872 19.6826 -0.870117 19.8584C-1.17611 20.0309 -1.52441 20.1172 -1.91504 20.1172C-2.22754 20.1172 -2.51237 20.0602 -2.76953 19.9463C-3.02344 19.8291 -3.24154 19.6615 -3.42383 19.4434C-3.60612 19.2253 -3.74772 18.9616 -3.84863 18.6523C-3.94629 18.3431 -3.99512 17.9932 -3.99512 17.6025C-3.99512 17.1989 -3.94141 16.8311 -3.83398 16.499C-3.72331 16.1637 -3.56868 15.8773 -3.37012 15.6396C-3.16829 15.3988 -2.92741 15.2132 -2.64746 15.083C-2.36426 14.9495 -2.05013 14.8828 -1.70508 14.8828C-0.985677 14.8828 -0.469727 15.1709 -0.157227 15.7471H-0.137695V12.5977H0.487305V20H-0.137695ZM-0.137695 16.9824C-0.137695 16.7643 -0.17513 16.5609 -0.25 16.3721C-0.32487 16.1833 -0.429036 16.0189 -0.5625 15.8789C-0.695964 15.7389 -0.857096 15.6283 -1.0459 15.5469C-1.23145 15.4655 -1.43652 15.4248 -1.66113 15.4248C-1.90853 15.4248 -2.13639 15.4736 -2.34473 15.5713C-2.55306 15.6689 -2.7321 15.8105 -2.88184 15.9961C-3.02832 16.1784 -3.14388 16.4014 -3.22852 16.665C-3.3099 16.9287 -3.35059 17.2282 -3.35059 17.5635C-3.35059 17.8792 -3.31315 18.1624 -3.23828 18.4131C-3.16341 18.6637 -3.05762 18.8753 -2.9209 19.0479C-2.78092 19.2204 -2.61491 19.3522 -2.42285 19.4434C-2.23079 19.5345 -2.01758 19.5801 -1.7832 19.5801C-1.5293 19.5801 -1.30143 19.5345 -1.09961 19.4434C-0.894531 19.3522 -0.722005 19.2269 -0.582031 19.0674C-0.438802 18.9079 -0.329753 18.7207 -0.254883 18.5059C-0.176758 18.291 -0.137695 18.0615 -0.137695 17.8174V16.9824ZM2.39648 17.6123C2.39974 17.9183 2.44043 18.1934 2.51855 18.4375C2.59668 18.6816 2.70898 18.8883 2.85547 19.0576C3.00195 19.2269 3.17936 19.3571 3.3877 19.4482C3.59928 19.5361 3.83691 19.5801 4.10059 19.5801C4.66374 19.5801 5.19596 19.3831 5.69727 18.9893V19.6045C5.21875 19.9463 4.63932 20.1172 3.95898 20.1172C3.6237 20.1172 3.31934 20.0586 3.0459 19.9414C2.77246 19.8242 2.53971 19.6549 2.34766 19.4336C2.1556 19.209 2.00749 18.9339 1.90332 18.6084C1.79915 18.2829 1.74707 17.9118 1.74707 17.4951C1.74707 17.1208 1.80404 16.7741 1.91797 16.4551C2.0319 16.1361 2.18978 15.861 2.3916 15.6299C2.59342 15.3955 2.83268 15.2132 3.10938 15.083C3.38607 14.9495 3.6888 14.8828 4.01758 14.8828C4.33984 14.8828 4.62467 14.9398 4.87207 15.0537C5.11947 15.1644 5.32617 15.3239 5.49219 15.5322C5.66146 15.7406 5.79004 15.9945 5.87793 16.2939C5.96582 16.5934 6.00977 16.9287 6.00977 17.2998V17.6123H2.39648ZM5.36523 17.0654C5.35547 16.5446 5.23177 16.141 4.99414 15.8545C4.75651 15.568 4.42611 15.4248 4.00293 15.4248C3.79134 15.4248 3.5944 15.4622 3.41211 15.5371C3.23307 15.612 3.0752 15.721 2.93848 15.8643C2.80176 16.0042 2.68783 16.1768 2.59668 16.3818C2.50879 16.5837 2.44694 16.8115 2.41113 17.0654H5.36523ZM9.71582 15.6396C9.56934 15.5322 9.38053 15.4785 9.14941 15.4785C8.9834 15.4785 8.83691 15.5111 8.70996 15.5762C8.58301 15.638 8.4707 15.7227 8.37305 15.8301C8.27865 15.9375 8.19727 16.0628 8.12891 16.2061C8.0638 16.346 8.01009 16.4925 7.96777 16.6455C7.92871 16.7985 7.89941 16.9531 7.87988 17.1094C7.86361 17.2656 7.85547 17.4137 7.85547 17.5537V20H7.23535V15H7.85547V16.0693H7.875C7.93359 15.887 8.00684 15.7243 8.09473 15.5811C8.18587 15.4346 8.29004 15.3125 8.40723 15.2148C8.52441 15.1139 8.65137 15.0374 8.78809 14.9854C8.92806 14.9333 9.07454 14.9072 9.22754 14.9072C9.32845 14.9072 9.41797 14.9137 9.49609 14.9268C9.57747 14.9398 9.65072 14.9593 9.71582 14.9854V15.6396ZM17.499 19.6143C17.499 20.542 17.2874 21.2288 16.8643 21.6748C16.4443 22.124 15.7949 22.3486 14.916 22.3486C14.3691 22.3486 13.8516 22.2266 13.3633 21.9824V21.3477C13.9069 21.6504 14.4245 21.8018 14.916 21.8018C16.2214 21.8018 16.874 21.1117 16.874 19.7314V19.1309H16.8545C16.4704 19.7884 15.8844 20.1172 15.0967 20.1172C14.7874 20.1172 14.5042 20.0602 14.2471 19.9463C13.9932 19.8324 13.7751 19.668 13.5928 19.4531C13.4105 19.2383 13.2689 18.9779 13.168 18.6719C13.0671 18.3626 13.0166 18.0143 13.0166 17.627C13.0166 17.2168 13.0703 16.8441 13.1777 16.5088C13.2852 16.1702 13.4382 15.8805 13.6367 15.6396C13.8353 15.3988 14.0745 15.2132 14.3545 15.083C14.6377 14.9495 14.9551 14.8828 15.3066 14.8828C16.013 14.8828 16.529 15.1693 16.8545 15.7422H16.874V15H17.499V19.6143ZM16.874 16.9629C16.874 16.7546 16.8366 16.5576 16.7617 16.3721C16.6868 16.1865 16.5827 16.0238 16.4492 15.8838C16.3158 15.7438 16.1562 15.6331 15.9707 15.5518C15.7884 15.4671 15.5866 15.4248 15.3652 15.4248C15.1048 15.4248 14.8688 15.4753 14.6572 15.5762C14.4489 15.6771 14.2699 15.8203 14.1201 16.0059C13.9736 16.1914 13.8597 16.4176 13.7783 16.6846C13.7002 16.9482 13.6611 17.2461 13.6611 17.5781C13.6611 17.8841 13.6986 18.1608 13.7734 18.4082C13.8483 18.6556 13.9541 18.8656 14.0908 19.0381C14.2275 19.2106 14.3919 19.3441 14.584 19.4385C14.7793 19.5329 14.9958 19.5801 15.2334 19.5801C15.4808 19.5801 15.7054 19.5361 15.9072 19.4482C16.109 19.3571 16.2816 19.2334 16.4248 19.0771C16.568 18.9176 16.6787 18.7321 16.7568 18.5205C16.835 18.3057 16.874 18.0745 16.874 17.8271V16.9629ZM21.1562 20.1172C20.7852 20.1172 20.4515 20.0553 20.1553 19.9316C19.8623 19.8079 19.6117 19.6338 19.4033 19.4092C19.195 19.1813 19.0355 18.9095 18.9248 18.5938C18.8141 18.278 18.7588 17.9281 18.7588 17.5439C18.7588 17.1273 18.8174 16.7546 18.9346 16.4258C19.0518 16.097 19.2178 15.8187 19.4326 15.5908C19.6507 15.3597 19.9128 15.1839 20.2188 15.0635C20.5247 14.943 20.8665 14.8828 21.2441 14.8828C21.6055 14.8828 21.931 14.943 22.2207 15.0635C22.5104 15.1807 22.7562 15.3516 22.958 15.5762C23.1598 15.8008 23.3145 16.0742 23.4219 16.3965C23.5293 16.7188 23.583 17.085 23.583 17.4951C23.583 17.8857 23.526 18.2422 23.4121 18.5645C23.3014 18.8835 23.1419 19.1585 22.9336 19.3896C22.7253 19.6208 22.4714 19.7998 22.1719 19.9268C21.8724 20.0537 21.5339 20.1172 21.1562 20.1172ZM21.2051 15.4248C20.9316 15.4248 20.6842 15.472 20.4629 15.5664C20.2415 15.6608 20.0511 15.7992 19.8916 15.9814C19.7354 16.1605 19.6149 16.3818 19.5303 16.6455C19.4456 16.9059 19.4033 17.2021 19.4033 17.5342C19.4033 17.8467 19.4456 18.1283 19.5303 18.3789C19.6149 18.6296 19.7337 18.8444 19.8867 19.0234C20.043 19.2025 20.2318 19.3408 20.4531 19.4385C20.6745 19.5329 20.9219 19.5801 21.1953 19.5801C21.4753 19.5801 21.7227 19.5345 21.9375 19.4434C22.1523 19.349 22.3346 19.2139 22.4844 19.0381C22.6341 18.859 22.7464 18.641 22.8213 18.3838C22.8994 18.1266 22.9385 17.8337 22.9385 17.5049C22.9385 16.8311 22.7887 16.3167 22.4893 15.9619C22.1898 15.6038 21.7617 15.4248 21.2051 15.4248ZM25.1406 17.6123C25.1439 17.9183 25.1846 18.1934 25.2627 18.4375C25.3408 18.6816 25.4531 18.8883 25.5996 19.0576C25.7461 19.2269 25.9235 19.3571 26.1318 19.4482C26.3434 19.5361 26.5811 19.5801 26.8447 19.5801C27.4079 19.5801 27.9401 19.3831 28.4414 18.9893V19.6045C27.9629 19.9463 27.3835 20.1172 26.7031 20.1172C26.3678 20.1172 26.0635 20.0586 25.79 19.9414C25.5166 19.8242 25.2839 19.6549 25.0918 19.4336C24.8997 19.209 24.7516 18.9339 24.6475 18.6084C24.5433 18.2829 24.4912 17.9118 24.4912 17.4951C24.4912 17.1208 24.5482 16.7741 24.6621 16.4551C24.776 16.1361 24.9339 15.861 25.1357 15.6299C25.3376 15.3955 25.5768 15.2132 25.8535 15.083C26.1302 14.9495 26.4329 14.8828 26.7617 14.8828C27.084 14.8828 27.3688 14.9398 27.6162 15.0537C27.8636 15.1644 28.0703 15.3239 28.2363 15.5322C28.4056 15.7406 28.5342 15.9945 28.6221 16.2939C28.71 16.5934 28.7539 16.9287 28.7539 17.2998V17.6123H25.1406ZM28.1094 17.0654C28.0996 16.5446 27.9759 16.141 27.7383 15.8545C27.5007 15.568 27.1702 15.4248 26.7471 15.4248C26.5355 15.4248 26.3385 15.4622 26.1562 15.5371C25.9772 15.612 25.8193 15.721 25.6826 15.8643C25.5459 16.0042 25.432 16.1768 25.3408 16.3818C25.2529 16.5837 25.1911 16.8115 25.1553 17.0654H28.1094ZM29.6963 19.1016C29.7907 19.1764 29.8932 19.2432 30.0039 19.3018C30.1146 19.3604 30.2285 19.4108 30.3457 19.4531C30.4629 19.4954 30.5801 19.528 30.6973 19.5508C30.8177 19.5703 30.9316 19.5801 31.0391 19.5801C31.7812 19.5801 32.1523 19.3018 32.1523 18.7451C32.1523 18.6182 32.1263 18.5091 32.0742 18.418C32.0221 18.3236 31.9473 18.2389 31.8496 18.1641C31.752 18.0859 31.6348 18.0143 31.498 17.9492C31.3613 17.8841 31.2067 17.8158 31.0342 17.7441C30.8031 17.6497 30.6045 17.5537 30.4385 17.4561C30.2725 17.3584 30.1357 17.2526 30.0283 17.1387C29.9209 17.0215 29.8411 16.8945 29.7891 16.7578C29.737 16.6178 29.7109 16.46 29.7109 16.2842C29.7109 16.0628 29.7581 15.8659 29.8525 15.6934C29.9502 15.5208 30.0804 15.3743 30.2432 15.2539C30.4059 15.1335 30.5931 15.0423 30.8047 14.9805C31.0195 14.9154 31.2441 14.8828 31.4785 14.8828C31.9115 14.8828 32.2891 14.9642 32.6113 15.127V15.7861C32.237 15.5452 31.8333 15.4248 31.4004 15.4248C31.2441 15.4248 31.1009 15.4443 30.9707 15.4834C30.8438 15.5225 30.7347 15.5778 30.6436 15.6494C30.5524 15.721 30.4808 15.8073 30.4287 15.9082C30.3799 16.0059 30.3555 16.1149 30.3555 16.2354C30.3555 16.359 30.375 16.4681 30.4141 16.5625C30.4531 16.6536 30.5133 16.7367 30.5947 16.8115C30.6794 16.8864 30.7868 16.958 30.917 17.0264C31.0505 17.0947 31.2116 17.168 31.4004 17.2461C31.6413 17.3438 31.8496 17.4414 32.0254 17.5391C32.2012 17.6335 32.346 17.7376 32.46 17.8516C32.5739 17.9622 32.6585 18.0876 32.7139 18.2275C32.7692 18.3643 32.7969 18.5238 32.7969 18.7061C32.7969 18.9307 32.7497 19.1309 32.6553 19.3066C32.5641 19.4824 32.4355 19.6305 32.2695 19.751C32.1068 19.8714 31.9147 19.9626 31.6934 20.0244C31.472 20.0863 31.2311 20.1172 30.9707 20.1172C30.4661 20.1172 30.0413 20.0114 29.6963 19.7998V19.1016ZM40.1602 20V17.0605C40.1602 16.5007 40.0592 16.0889 39.8574 15.8252C39.6556 15.5583 39.3415 15.4248 38.915 15.4248C38.7132 15.4248 38.5212 15.4655 38.3389 15.5469C38.1566 15.6283 37.9971 15.7454 37.8604 15.8984C37.7236 16.0514 37.6146 16.2386 37.5332 16.46C37.4518 16.6781 37.4111 16.9255 37.4111 17.2021V20H36.7861V12.5977H37.4111V15.8643H37.4307C37.8213 15.21 38.3812 14.8828 39.1104 14.8828C39.667 14.8828 40.0853 15.0537 40.3652 15.3955C40.6452 15.7373 40.7852 16.2419 40.7852 16.9092V20H40.1602ZM42.5918 17.6123C42.5951 17.9183 42.6357 18.1934 42.7139 18.4375C42.792 18.6816 42.9043 18.8883 43.0508 19.0576C43.1973 19.2269 43.3747 19.3571 43.583 19.4482C43.7946 19.5361 44.0322 19.5801 44.2959 19.5801C44.859 19.5801 45.3913 19.3831 45.8926 18.9893V19.6045C45.4141 19.9463 44.8346 20.1172 44.1543 20.1172C43.819 20.1172 43.5146 20.0586 43.2412 19.9414C42.9678 19.8242 42.735 19.6549 42.543 19.4336C42.3509 19.209 42.2028 18.9339 42.0986 18.6084C41.9945 18.2829 41.9424 17.9118 41.9424 17.4951C41.9424 17.1208 41.9993 16.7741 42.1133 16.4551C42.2272 16.1361 42.3851 15.861 42.5869 15.6299C42.7887 15.3955 43.028 15.2132 43.3047 15.083C43.5814 14.9495 43.8841 14.8828 44.2129 14.8828C44.5352 14.8828 44.82 14.9398 45.0674 15.0537C45.3148 15.1644 45.5215 15.3239 45.6875 15.5322C45.8568 15.7406 45.9854 15.9945 46.0732 16.2939C46.1611 16.5934 46.2051 16.9287 46.2051 17.2998V17.6123H42.5918ZM45.5605 17.0654C45.5508 16.5446 45.4271 16.141 45.1895 15.8545C44.9518 15.568 44.6214 15.4248 44.1982 15.4248C43.9867 15.4248 43.7897 15.4622 43.6074 15.5371C43.4284 15.612 43.2705 15.721 43.1338 15.8643C42.9971 16.0042 42.8831 16.1768 42.792 16.3818C42.7041 16.5837 42.6423 16.8115 42.6064 17.0654H45.5605ZM49.9111 15.6396C49.7646 15.5322 49.5758 15.4785 49.3447 15.4785C49.1787 15.4785 49.0322 15.5111 48.9053 15.5762C48.7783 15.638 48.666 15.7227 48.5684 15.8301C48.474 15.9375 48.3926 16.0628 48.3242 16.2061C48.2591 16.346 48.2054 16.4925 48.1631 16.6455C48.124 16.7985 48.0947 16.9531 48.0752 17.1094C48.0589 17.2656 48.0508 17.4137 48.0508 17.5537V20H47.4307V15H48.0508V16.0693H48.0703C48.1289 15.887 48.2021 15.7243 48.29 15.5811C48.3812 15.4346 48.4854 15.3125 48.6025 15.2148C48.7197 15.1139 48.8467 15.0374 48.9834 14.9854C49.1234 14.9333 49.2699 14.9072 49.4229 14.9072C49.5238 14.9072 49.6133 14.9137 49.6914 14.9268C49.7728 14.9398 49.846 14.9593 49.9111 14.9854V15.6396ZM50.9805 17.6123C50.9837 17.9183 51.0244 18.1934 51.1025 18.4375C51.1807 18.6816 51.293 18.8883 51.4395 19.0576C51.5859 19.2269 51.7633 19.3571 51.9717 19.4482C52.1833 19.5361 52.4209 19.5801 52.6846 19.5801C53.2477 19.5801 53.7799 19.3831 54.2812 18.9893V19.6045C53.8027 19.9463 53.2233 20.1172 52.543 20.1172C52.2077 20.1172 51.9033 20.0586 51.6299 19.9414C51.3564 19.8242 51.1237 19.6549 50.9316 19.4336C50.7396 19.209 50.5915 18.9339 50.4873 18.6084C50.3831 18.2829 50.3311 17.9118 50.3311 17.4951C50.3311 17.1208 50.388 16.7741 50.502 16.4551C50.6159 16.1361 50.7738 15.861 50.9756 15.6299C51.1774 15.3955 51.4167 15.2132 51.6934 15.083C51.9701 14.9495 52.2728 14.8828 52.6016 14.8828C52.9238 14.8828 53.2087 14.9398 53.4561 15.0537C53.7035 15.1644 53.9102 15.3239 54.0762 15.5322C54.2454 15.7406 54.374 15.9945 54.4619 16.2939C54.5498 16.5934 54.5938 16.9287 54.5938 17.2998V17.6123H50.9805ZM53.9492 17.0654C53.9395 16.5446 53.8158 16.141 53.5781 15.8545C53.3405 15.568 53.0101 15.4248 52.5869 15.4248C52.3753 15.4248 52.1784 15.4622 51.9961 15.5371C51.8171 15.612 51.6592 15.721 51.5225 15.8643C51.3857 16.0042 51.2718 16.1768 51.1807 16.3818C51.0928 16.5837 51.0309 16.8115 50.9951 17.0654H53.9492Z" fill="black"/>
<path d="M-31.9492 79.4863C-32.0332 79.4219 -32.1543 79.3896 -32.3125 79.3896C-32.5176 79.3896 -32.6895 79.4863 -32.8281 79.6797C-32.9648 79.873 -33.0332 80.1367 -33.0332 80.4707V82H-33.5137V79H-33.0332V79.6182H-33.0215C-32.9531 79.4072 -32.8486 79.2432 -32.708 79.126C-32.5674 79.0068 -32.4102 78.9473 -32.2363 78.9473C-32.1113 78.9473 -32.0156 78.9609 -31.9492 78.9883V79.4863ZM-29.0166 80.6201H-31.1348C-31.127 80.9541 -31.0371 81.2119 -30.8652 81.3936C-30.6934 81.5752 -30.457 81.666 -30.1562 81.666C-29.8184 81.666 -29.5078 81.5547 -29.2246 81.332V81.7832C-29.4883 81.9746 -29.8369 82.0703 -30.2705 82.0703C-30.6943 82.0703 -31.0273 81.9346 -31.2695 81.6631C-31.5117 81.3896 -31.6328 81.0059 -31.6328 80.5117C-31.6328 80.0449 -31.501 79.665 -31.2373 79.3721C-30.9717 79.0771 -30.6426 78.9297 -30.25 78.9297C-29.8574 78.9297 -29.5537 79.0566 -29.3389 79.3105C-29.124 79.5645 -29.0166 79.917 -29.0166 80.3682V80.6201ZM-29.5088 80.2129C-29.5107 79.9355 -29.5781 79.7197 -29.7109 79.5654C-29.8418 79.4111 -30.0244 79.334 -30.2588 79.334C-30.4854 79.334 -30.6777 79.415 -30.8359 79.5771C-30.9941 79.7393 -31.0918 79.9512 -31.1289 80.2129H-29.5088ZM-24.0273 82H-24.5078V80.2773C-24.5078 79.9453 -24.5596 79.7051 -24.6631 79.5566C-24.7646 79.4082 -24.9365 79.334 -25.1787 79.334C-25.3838 79.334 -25.5586 79.4277 -25.7031 79.6152C-25.8457 79.8027 -25.917 80.0273 -25.917 80.2891V82H-26.3975V80.2188C-26.3975 79.6289 -26.625 79.334 -27.0801 79.334C-27.291 79.334 -27.4648 79.4229 -27.6016 79.6006C-27.7383 79.7764 -27.8066 80.0059 -27.8066 80.2891V82H-28.2871V79H-27.8066V79.4746H-27.7949C-27.582 79.1113 -27.2715 78.9297 -26.8633 78.9297C-26.6582 78.9297 -26.4795 78.9873 -26.3271 79.1025C-26.1748 79.2158 -26.0703 79.3652 -26.0137 79.5508C-25.791 79.1367 -25.459 78.9297 -25.0176 78.9297C-24.3574 78.9297 -24.0273 79.3369 -24.0273 80.1514V82ZM-21.8652 82.0703C-22.3086 82.0703 -22.6631 81.9307 -22.9287 81.6514C-23.1924 81.3701 -23.3242 80.998 -23.3242 80.5352C-23.3242 80.0312 -23.1865 79.6377 -22.9111 79.3545C-22.6357 79.0713 -22.2637 78.9297 -21.7949 78.9297C-21.3477 78.9297 -20.999 79.0674 -20.749 79.3428C-20.4971 79.6182 -20.3711 80 -20.3711 80.4883C-20.3711 80.9668 -20.5068 81.3506 -20.7783 81.6396C-21.0479 81.9268 -21.4102 82.0703 -21.8652 82.0703ZM-21.8301 79.334C-22.1387 79.334 -22.3828 79.4395 -22.5625 79.6504C-22.7422 79.8594 -22.832 80.1484 -22.832 80.5176C-22.832 80.873 -22.7412 81.1533 -22.5596 81.3584C-22.3779 81.5635 -22.1348 81.666 -21.8301 81.666C-21.5195 81.666 -21.2812 81.5654 -21.1152 81.3643C-20.9473 81.1631 -20.8633 80.877 -20.8633 80.5059C-20.8633 80.1309 -20.9473 79.8418 -21.1152 79.6387C-21.2812 79.4355 -21.5195 79.334 -21.8301 79.334ZM-17.2451 79L-18.4404 82H-18.9121L-20.0488 79H-19.5215L-18.7598 81.1797C-18.7031 81.3398 -18.668 81.4795 -18.6543 81.5986H-18.6426C-18.623 81.4482 -18.5918 81.3125 -18.5488 81.1914L-17.752 79H-17.2451ZM-14.3154 80.6201H-16.4336C-16.4258 80.9541 -16.3359 81.2119 -16.1641 81.3936C-15.9922 81.5752 -15.7559 81.666 -15.4551 81.666C-15.1172 81.666 -14.8066 81.5547 -14.5234 81.332V81.7832C-14.7871 81.9746 -15.1357 82.0703 -15.5693 82.0703C-15.9932 82.0703 -16.3262 81.9346 -16.5684 81.6631C-16.8105 81.3896 -16.9316 81.0059 -16.9316 80.5117C-16.9316 80.0449 -16.7998 79.665 -16.5361 79.3721C-16.2705 79.0771 -15.9414 78.9297 -15.5488 78.9297C-15.1562 78.9297 -14.8525 79.0566 -14.6377 79.3105C-14.4229 79.5645 -14.3154 79.917 -14.3154 80.3682V80.6201ZM-14.8076 80.2129C-14.8096 79.9355 -14.877 79.7197 -15.0098 79.5654C-15.1406 79.4111 -15.3232 79.334 -15.5576 79.334C-15.7842 79.334 -15.9766 79.415 -16.1348 79.5771C-16.293 79.7393 -16.3906 79.9512 -16.4277 80.2129H-14.8076ZM-11.4473 81.5664H-11.459V83.3799H-11.9395V79H-11.459V79.5273H-11.4473C-11.2109 79.1289 -10.8652 78.9297 -10.4102 78.9297C-10.0234 78.9297 -9.72168 79.0645 -9.50488 79.334C-9.28809 79.6016 -9.17969 79.9609 -9.17969 80.4121C-9.17969 80.9141 -9.30176 81.3164 -9.5459 81.6191C-9.79004 81.9199 -10.124 82.0703 -10.5479 82.0703C-10.9365 82.0703 -11.2363 81.9023 -11.4473 81.5664ZM-11.459 80.3564V80.7754C-11.459 81.0234 -11.3789 81.2344 -11.2188 81.4082C-11.0566 81.5801 -10.8516 81.666 -10.6035 81.666C-10.3125 81.666 -10.085 81.5547 -9.9209 81.332C-9.75488 81.1094 -9.67188 80.7998 -9.67188 80.4033C-9.67188 80.0693 -9.74902 79.8076 -9.90332 79.6182C-10.0576 79.4287 -10.2666 79.334 -10.5303 79.334C-10.8096 79.334 -11.0342 79.4316 -11.2041 79.627C-11.374 79.8203 -11.459 80.0635 -11.459 80.3564ZM-6.84766 79.4863C-6.93164 79.4219 -7.05273 79.3896 -7.21094 79.3896C-7.41602 79.3896 -7.58789 79.4863 -7.72656 79.6797C-7.86328 79.873 -7.93164 80.1367 -7.93164 80.4707V82H-8.41211V79H-7.93164V79.6182H-7.91992C-7.85156 79.4072 -7.74707 79.2432 -7.60645 79.126C-7.46582 79.0068 -7.30859 78.9473 -7.13477 78.9473C-7.00977 78.9473 -6.91406 78.9609 -6.84766 78.9883V79.4863ZM-3.91504 80.6201H-6.0332C-6.02539 80.9541 -5.93555 81.2119 -5.76367 81.3936C-5.5918 81.5752 -5.35547 81.666 -5.05469 81.666C-4.7168 81.666 -4.40625 81.5547 -4.12305 81.332V81.7832C-4.38672 81.9746 -4.73535 82.0703 -5.16895 82.0703C-5.59277 82.0703 -5.92578 81.9346 -6.16797 81.6631C-6.41016 81.3896 -6.53125 81.0059 -6.53125 80.5117C-6.53125 80.0449 -6.39941 79.665 -6.13574 79.3721C-5.87012 79.0771 -5.54102 78.9297 -5.14844 78.9297C-4.75586 78.9297 -4.45215 79.0566 -4.2373 79.3105C-4.02246 79.5645 -3.91504 79.917 -3.91504 80.3682V80.6201ZM-4.40723 80.2129C-4.40918 79.9355 -4.47656 79.7197 -4.60938 79.5654C-4.74023 79.4111 -4.92285 79.334 -5.15723 79.334C-5.38379 79.334 -5.57617 79.415 -5.73438 79.5771C-5.89258 79.7393 -5.99023 79.9512 -6.02734 80.2129H-4.40723ZM-2.69336 81.5664H-2.70508V83.3799H-3.18555V79H-2.70508V79.5273H-2.69336C-2.45703 79.1289 -2.11133 78.9297 -1.65625 78.9297C-1.26953 78.9297 -0.967773 79.0645 -0.750977 79.334C-0.53418 79.6016 -0.425781 79.9609 -0.425781 80.4121C-0.425781 80.9141 -0.547852 81.3164 -0.791992 81.6191C-1.03613 81.9199 -1.37012 82.0703 -1.79395 82.0703C-2.18262 82.0703 -2.48242 81.9023 -2.69336 81.5664ZM-2.70508 80.3564V80.7754C-2.70508 81.0234 -2.625 81.2344 -2.46484 81.4082C-2.30273 81.5801 -2.09766 81.666 -1.84961 81.666C-1.55859 81.666 -1.33105 81.5547 -1.16699 81.332C-1.00098 81.1094 -0.917969 80.7998 -0.917969 80.4033C-0.917969 80.0693 -0.995117 79.8076 -1.14941 79.6182C-1.30371 79.4287 -1.5127 79.334 -1.77637 79.334C-2.05566 79.334 -2.28027 79.4316 -2.4502 79.627C-2.62012 79.8203 -2.70508 80.0635 -2.70508 80.3564ZM2.76758 82H2.28711V81.5254H2.27539C2.07617 81.8887 1.76758 82.0703 1.34961 82.0703C0.634766 82.0703 0.277344 81.6445 0.277344 80.793V79H0.754883V80.7168C0.754883 81.3496 0.99707 81.666 1.48145 81.666C1.71582 81.666 1.9082 81.5801 2.05859 81.4082C2.21094 81.2344 2.28711 81.0078 2.28711 80.7285V79H2.76758V82ZM4.23242 81.5664H4.2207V82H3.74023V77.5586H4.2207V79.5273H4.23242C4.46875 79.1289 4.81445 78.9297 5.26953 78.9297C5.6543 78.9297 5.95508 79.0645 6.17188 79.334C6.39062 79.6016 6.5 79.9609 6.5 80.4121C6.5 80.9141 6.37793 81.3164 6.13379 81.6191C5.88965 81.9199 5.55566 82.0703 5.13184 82.0703C4.73535 82.0703 4.43555 81.9023 4.23242 81.5664ZM4.2207 80.3564V80.7754C4.2207 81.0234 4.30078 81.2344 4.46094 81.4082C4.62305 81.5801 4.82812 81.666 5.07617 81.666C5.36719 81.666 5.59473 81.5547 5.75879 81.332C5.9248 81.1094 6.00781 80.7998 6.00781 80.4033C6.00781 80.0693 5.93066 79.8076 5.77637 79.6182C5.62207 79.4287 5.41309 79.334 5.14941 79.334C4.87012 79.334 4.64551 79.4316 4.47559 79.627C4.30566 79.8203 4.2207 80.0635 4.2207 80.3564ZM7.74805 82H7.26758V77.5586H7.74805V82ZM8.9668 78.2383C8.88086 78.2383 8.80762 78.209 8.74707 78.1504C8.68652 78.0918 8.65625 78.0176 8.65625 77.9277C8.65625 77.8379 8.68652 77.7637 8.74707 77.7051C8.80762 77.6445 8.88086 77.6143 8.9668 77.6143C9.05469 77.6143 9.12891 77.6445 9.18945 77.7051C9.25195 77.7637 9.2832 77.8379 9.2832 77.9277C9.2832 78.0137 9.25195 78.0869 9.18945 78.1475C9.12891 78.208 9.05469 78.2383 8.9668 78.2383ZM9.20117 82H8.7207V79H9.20117V82ZM9.99219 81.8916V81.376C10.2539 81.5693 10.542 81.666 10.8564 81.666C11.2783 81.666 11.4893 81.5254 11.4893 81.2441C11.4893 81.1641 11.4707 81.0967 11.4336 81.042C11.3984 80.9854 11.3496 80.9355 11.2871 80.8926C11.2266 80.8496 11.1543 80.8115 11.0703 80.7783C10.9883 80.7432 10.8994 80.707 10.8037 80.6699C10.6709 80.6172 10.5537 80.5645 10.4521 80.5117C10.3525 80.457 10.2686 80.3965 10.2002 80.3301C10.1338 80.2617 10.083 80.1846 10.0479 80.0986C10.0146 80.0127 9.99805 79.9121 9.99805 79.7969C9.99805 79.6562 10.0303 79.5322 10.0947 79.4248C10.1592 79.3154 10.2451 79.2246 10.3525 79.1523C10.46 79.0781 10.582 79.0225 10.7188 78.9854C10.8574 78.9482 11 78.9297 11.1465 78.9297C11.4062 78.9297 11.6387 78.9746 11.8438 79.0645V79.5508C11.623 79.4062 11.3691 79.334 11.082 79.334C10.9922 79.334 10.9111 79.3447 10.8389 79.3662C10.7666 79.3857 10.7041 79.4141 10.6514 79.4512C10.6006 79.4883 10.5605 79.5332 10.5312 79.5859C10.5039 79.6367 10.4902 79.6934 10.4902 79.7559C10.4902 79.834 10.5039 79.8994 10.5312 79.9521C10.5605 80.0049 10.6025 80.0518 10.6572 80.0928C10.7119 80.1338 10.7783 80.1709 10.8564 80.2041C10.9346 80.2373 11.0234 80.2734 11.123 80.3125C11.2559 80.3633 11.375 80.416 11.4805 80.4707C11.5859 80.5234 11.6758 80.584 11.75 80.6523C11.8242 80.7188 11.8809 80.7959 11.9199 80.8838C11.9609 80.9717 11.9814 81.0762 11.9814 81.1973C11.9814 81.3457 11.9482 81.4746 11.8818 81.584C11.8174 81.6934 11.7305 81.7842 11.6211 81.8564C11.5117 81.9287 11.3857 81.9824 11.2432 82.0176C11.1006 82.0527 10.9512 82.0703 10.7949 82.0703C10.4863 82.0703 10.2188 82.0107 9.99219 81.8916ZM15.2129 82H14.7324V80.2715C14.7324 79.6465 14.5 79.334 14.0352 79.334C13.8008 79.334 13.6035 79.4248 13.4434 79.6064C13.2832 79.7861 13.2031 80.0176 13.2031 80.3008V82H12.7227V77.5586H13.2031V79.498H13.2148C13.4453 79.1191 13.7734 78.9297 14.1992 78.9297C14.875 78.9297 15.2129 79.3369 15.2129 80.1514V82ZM17.5859 81.8916V81.376C17.8477 81.5693 18.1357 81.666 18.4502 81.666C18.8721 81.666 19.083 81.5254 19.083 81.2441C19.083 81.1641 19.0645 81.0967 19.0273 81.042C18.9922 80.9854 18.9434 80.9355 18.8809 80.8926C18.8203 80.8496 18.748 80.8115 18.6641 80.7783C18.582 80.7432 18.4932 80.707 18.3975 80.6699C18.2646 80.6172 18.1475 80.5645 18.0459 80.5117C17.9463 80.457 17.8623 80.3965 17.7939 80.3301C17.7275 80.2617 17.6768 80.1846 17.6416 80.0986C17.6084 80.0127 17.5918 79.9121 17.5918 79.7969C17.5918 79.6562 17.624 79.5322 17.6885 79.4248C17.7529 79.3154 17.8389 79.2246 17.9463 79.1523C18.0537 79.0781 18.1758 79.0225 18.3125 78.9854C18.4512 78.9482 18.5938 78.9297 18.7402 78.9297C19 78.9297 19.2324 78.9746 19.4375 79.0645V79.5508C19.2168 79.4062 18.9629 79.334 18.6758 79.334C18.5859 79.334 18.5049 79.3447 18.4326 79.3662C18.3604 79.3857 18.2979 79.4141 18.2451 79.4512C18.1943 79.4883 18.1543 79.5332 18.125 79.5859C18.0977 79.6367 18.084 79.6934 18.084 79.7559C18.084 79.834 18.0977 79.8994 18.125 79.9521C18.1543 80.0049 18.1963 80.0518 18.251 80.0928C18.3057 80.1338 18.3721 80.1709 18.4502 80.2041C18.5283 80.2373 18.6172 80.2734 18.7168 80.3125C18.8496 80.3633 18.9688 80.416 19.0742 80.4707C19.1797 80.5234 19.2695 80.584 19.3438 80.6523C19.418 80.7188 19.4746 80.7959 19.5137 80.8838C19.5547 80.9717 19.5752 81.0762 19.5752 81.1973C19.5752 81.3457 19.542 81.4746 19.4756 81.584C19.4111 81.6934 19.3242 81.7842 19.2148 81.8564C19.1055 81.9287 18.9795 81.9824 18.8369 82.0176C18.6943 82.0527 18.5449 82.0703 18.3887 82.0703C18.0801 82.0703 17.8125 82.0107 17.5859 81.8916ZM22.3613 81.8623C22.1309 82.001 21.8574 82.0703 21.541 82.0703C21.1133 82.0703 20.7676 81.9316 20.5039 81.6543C20.2422 81.375 20.1113 81.0137 20.1113 80.5703C20.1113 80.0762 20.2529 79.6797 20.5361 79.3809C20.8193 79.0801 21.1973 78.9297 21.6699 78.9297C21.9336 78.9297 22.166 78.9785 22.3672 79.0762V79.5684C22.1445 79.4121 21.9062 79.334 21.6523 79.334C21.3457 79.334 21.0938 79.4443 20.8965 79.665C20.7012 79.8838 20.6035 80.1719 20.6035 80.5293C20.6035 80.8809 20.6953 81.1582 20.8789 81.3613C21.0645 81.5645 21.3125 81.666 21.623 81.666C21.8848 81.666 22.1309 81.5791 22.3613 81.4053V81.8623ZM24.6523 79.4863C24.5684 79.4219 24.4473 79.3896 24.2891 79.3896C24.084 79.3896 23.9121 79.4863 23.7734 79.6797C23.6367 79.873 23.5684 80.1367 23.5684 80.4707V82H23.0879V79H23.5684V79.6182H23.5801C23.6484 79.4072 23.7529 79.2432 23.8936 79.126C24.0342 79.0068 24.1914 78.9473 24.3652 78.9473C24.4902 78.9473 24.5859 78.9609 24.6523 78.9883V79.4863ZM25.4199 78.2383C25.334 78.2383 25.2607 78.209 25.2002 78.1504C25.1396 78.0918 25.1094 78.0176 25.1094 77.9277C25.1094 77.8379 25.1396 77.7637 25.2002 77.7051C25.2607 77.6445 25.334 77.6143 25.4199 77.6143C25.5078 77.6143 25.582 77.6445 25.6426 77.7051C25.7051 77.7637 25.7363 77.8379 25.7363 77.9277C25.7363 78.0137 25.7051 78.0869 25.6426 78.1475C25.582 78.208 25.5078 78.2383 25.4199 78.2383ZM25.6543 82H25.1738V79H25.6543V82ZM27.1191 81.5664H27.1074V83.3799H26.627V79H27.1074V79.5273H27.1191C27.3555 79.1289 27.7012 78.9297 28.1562 78.9297C28.543 78.9297 28.8447 79.0645 29.0615 79.334C29.2783 79.6016 29.3867 79.9609 29.3867 80.4121C29.3867 80.9141 29.2646 81.3164 29.0205 81.6191C28.7764 81.9199 28.4424 82.0703 28.0186 82.0703C27.6299 82.0703 27.3301 81.9023 27.1191 81.5664ZM27.1074 80.3564V80.7754C27.1074 81.0234 27.1875 81.2344 27.3477 81.4082C27.5098 81.5801 27.7148 81.666 27.9629 81.666C28.2539 81.666 28.4814 81.5547 28.6455 81.332C28.8115 81.1094 28.8945 80.7998 28.8945 80.4033C28.8945 80.0693 28.8174 79.8076 28.6631 79.6182C28.5088 79.4287 28.2998 79.334 28.0361 79.334C27.7568 79.334 27.5322 79.4316 27.3623 79.627C27.1924 79.8203 27.1074 80.0635 27.1074 80.3564ZM31.5459 81.9707C31.4326 82.0332 31.2832 82.0645 31.0977 82.0645C30.5723 82.0645 30.3096 81.7715 30.3096 81.1855V79.4102H29.7939V79H30.3096V78.2676L30.79 78.1123V79H31.5459V79.4102H30.79V81.1006C30.79 81.3018 30.8242 81.4453 30.8926 81.5312C30.9609 81.6172 31.0742 81.6602 31.2324 81.6602C31.3535 81.6602 31.458 81.627 31.5459 81.5605V81.9707ZM35.3164 77.9805C35.2227 77.9277 35.1162 77.9014 34.9971 77.9014C34.6611 77.9014 34.4932 78.1133 34.4932 78.5371V79H35.1963V79.4102H34.4932V82H34.0156V79.4102H33.5029V79H34.0156V78.5137C34.0156 78.1992 34.1064 77.9512 34.2881 77.7695C34.4697 77.5859 34.6963 77.4941 34.9678 77.4941C35.1143 77.4941 35.2305 77.5117 35.3164 77.5469V77.9805ZM37.2793 79.4863C37.1953 79.4219 37.0742 79.3896 36.916 79.3896C36.7109 79.3896 36.5391 79.4863 36.4004 79.6797C36.2637 79.873 36.1953 80.1367 36.1953 80.4707V82H35.7148V79H36.1953V79.6182H36.207C36.2754 79.4072 36.3799 79.2432 36.5205 79.126C36.6611 79.0068 36.8184 78.9473 36.9922 78.9473C37.1172 78.9473 37.2129 78.9609 37.2793 78.9883V79.4863ZM39.0547 82.0703C38.6113 82.0703 38.2568 81.9307 37.9912 81.6514C37.7275 81.3701 37.5957 80.998 37.5957 80.5352C37.5957 80.0312 37.7334 79.6377 38.0088 79.3545C38.2842 79.0713 38.6562 78.9297 39.125 78.9297C39.5723 78.9297 39.9209 79.0674 40.1709 79.3428C40.4229 79.6182 40.5488 80 40.5488 80.4883C40.5488 80.9668 40.4131 81.3506 40.1416 81.6396C39.8721 81.9268 39.5098 82.0703 39.0547 82.0703ZM39.0898 79.334C38.7812 79.334 38.5371 79.4395 38.3574 79.6504C38.1777 79.8594 38.0879 80.1484 38.0879 80.5176C38.0879 80.873 38.1787 81.1533 38.3604 81.3584C38.542 81.5635 38.7852 81.666 39.0898 81.666C39.4004 81.666 39.6387 81.5654 39.8047 81.3643C39.9727 81.1631 40.0566 80.877 40.0566 80.5059C40.0566 80.1309 39.9727 79.8418 39.8047 79.6387C39.6387 79.4355 39.4004 79.334 39.0898 79.334ZM45.5762 82H45.0957V80.2773C45.0957 79.9453 45.0439 79.7051 44.9404 79.5566C44.8389 79.4082 44.667 79.334 44.4248 79.334C44.2197 79.334 44.0449 79.4277 43.9004 79.6152C43.7578 79.8027 43.6865 80.0273 43.6865 80.2891V82H43.2061V80.2188C43.2061 79.6289 42.9785 79.334 42.5234 79.334C42.3125 79.334 42.1387 79.4229 42.002 79.6006C41.8652 79.7764 41.7969 80.0059 41.7969 80.2891V82H41.3164V79H41.7969V79.4746H41.8086C42.0215 79.1113 42.332 78.9297 42.7402 78.9297C42.9453 78.9297 43.124 78.9873 43.2764 79.1025C43.4287 79.2158 43.5332 79.3652 43.5898 79.5508C43.8125 79.1367 44.1445 78.9297 44.5859 78.9297C45.2461 78.9297 45.5762 79.3369 45.5762 80.1514V82ZM50.2783 82H49.7979V81.5312H49.7861C49.5771 81.8906 49.2695 82.0703 48.8633 82.0703C48.5645 82.0703 48.3301 81.9912 48.1602 81.833C47.9922 81.6748 47.9082 81.4648 47.9082 81.2031C47.9082 80.6426 48.2383 80.3164 48.8984 80.2246L49.7979 80.0986C49.7979 79.5889 49.5918 79.334 49.1797 79.334C48.8184 79.334 48.4922 79.457 48.2012 79.7031V79.2109C48.4961 79.0234 48.8359 78.9297 49.2207 78.9297C49.9258 78.9297 50.2783 79.3027 50.2783 80.0488V82ZM49.7979 80.4824L49.0742 80.582C48.8516 80.6133 48.6836 80.6689 48.5703 80.749C48.457 80.8271 48.4004 80.9668 48.4004 81.168C48.4004 81.3145 48.4521 81.4346 48.5557 81.5283C48.6611 81.6201 48.8008 81.666 48.9746 81.666C49.2129 81.666 49.4092 81.583 49.5635 81.417C49.7197 81.249 49.7979 81.0371 49.7979 80.7812V80.4824ZM53.7441 82H53.2637V81.4902H53.252C53.0293 81.877 52.6855 82.0703 52.2207 82.0703C51.8438 82.0703 51.542 81.9365 51.3154 81.6689C51.0908 81.3994 50.9785 81.0332 50.9785 80.5703C50.9785 80.0742 51.1035 79.6768 51.3535 79.3779C51.6035 79.0791 51.9365 78.9297 52.3525 78.9297C52.7646 78.9297 53.0645 79.0918 53.252 79.416H53.2637V77.5586H53.7441V82ZM53.2637 80.6436V80.2012C53.2637 79.959 53.1836 79.7539 53.0234 79.5859C52.8633 79.418 52.6602 79.334 52.4141 79.334C52.1211 79.334 51.8906 79.4414 51.7227 79.6562C51.5547 79.8711 51.4707 80.168 51.4707 80.5469C51.4707 80.8926 51.5508 81.166 51.7109 81.3672C51.873 81.5664 52.0898 81.666 52.3613 81.666C52.6289 81.666 52.8457 81.5693 53.0117 81.376C53.1797 81.1826 53.2637 80.9385 53.2637 80.6436ZM56.8643 82H56.3838V81.5312H56.3721C56.1631 81.8906 55.8555 82.0703 55.4492 82.0703C55.1504 82.0703 54.916 81.9912 54.7461 81.833C54.5781 81.6748 54.4941 81.4648 54.4941 81.2031C54.4941 80.6426 54.8242 80.3164 55.4844 80.2246L56.3838 80.0986C56.3838 79.5889 56.1777 79.334 55.7656 79.334C55.4043 79.334 55.0781 79.457 54.7871 79.7031V79.2109C55.082 79.0234 55.4219 78.9297 55.8066 78.9297C56.5117 78.9297 56.8643 79.3027 56.8643 80.0488V82ZM56.3838 80.4824L55.6602 80.582C55.4375 80.6133 55.2695 80.6689 55.1562 80.749C55.043 80.8271 54.9863 80.9668 54.9863 81.168C54.9863 81.3145 55.0381 81.4346 55.1416 81.5283C55.2471 81.6201 55.3867 81.666 55.5605 81.666C55.7988 81.666 55.9951 81.583 56.1494 81.417C56.3057 81.249 56.3838 81.0371 56.3838 80.7812V80.4824ZM58.2617 81.5664H58.25V83.3799H57.7695V79H58.25V79.5273H58.2617C58.498 79.1289 58.8438 78.9297 59.2988 78.9297C59.6855 78.9297 59.9873 79.0645 60.2041 79.334C60.4209 79.6016 60.5293 79.9609 60.5293 80.4121C60.5293 80.9141 60.4072 81.3164 60.1631 81.6191C59.9189 81.9199 59.585 82.0703 59.1611 82.0703C58.7725 82.0703 58.4727 81.9023 58.2617 81.5664ZM58.25 80.3564V80.7754C58.25 81.0234 58.3301 81.2344 58.4902 81.4082C58.6523 81.5801 58.8574 81.666 59.1055 81.666C59.3965 81.666 59.624 81.5547 59.7881 81.332C59.9541 81.1094 60.0371 80.7998 60.0371 80.4033C60.0371 80.0693 59.96 79.8076 59.8057 79.6182C59.6514 79.4287 59.4424 79.334 59.1787 79.334C58.8994 79.334 58.6748 79.4316 58.5049 79.627C58.335 79.8203 58.25 80.0635 58.25 80.3564ZM62.6885 81.9707C62.5752 82.0332 62.4258 82.0645 62.2402 82.0645C61.7148 82.0645 61.4521 81.7715 61.4521 81.1855V79.4102H60.9365V79H61.4521V78.2676L61.9326 78.1123V79H62.6885V79.4102H61.9326V81.1006C61.9326 81.3018 61.9668 81.4453 62.0352 81.5312C62.1035 81.6172 62.2168 81.6602 62.375 81.6602C62.4961 81.6602 62.6006 81.627 62.6885 81.5605V81.9707ZM65.7412 80.6201H63.623C63.6309 80.9541 63.7207 81.2119 63.8926 81.3936C64.0645 81.5752 64.3008 81.666 64.6016 81.666C64.9395 81.666 65.25 81.5547 65.5332 81.332V81.7832C65.2695 81.9746 64.9209 82.0703 64.4873 82.0703C64.0635 82.0703 63.7305 81.9346 63.4883 81.6631C63.2461 81.3896 63.125 81.0059 63.125 80.5117C63.125 80.0449 63.2568 79.665 63.5205 79.3721C63.7861 79.0771 64.1152 78.9297 64.5078 78.9297C64.9004 78.9297 65.2041 79.0566 65.4189 79.3105C65.6338 79.5645 65.7412 79.917 65.7412 80.3682V80.6201ZM65.249 80.2129C65.2471 79.9355 65.1797 79.7197 65.0469 79.5654C64.916 79.4111 64.7334 79.334 64.499 79.334C64.2725 79.334 64.0801 79.415 63.9219 79.5771C63.7637 79.7393 63.666 79.9512 63.6289 80.2129H65.249ZM68.0352 79.4863C67.9512 79.4219 67.8301 79.3896 67.6719 79.3896C67.4668 79.3896 67.2949 79.4863 67.1562 79.6797C67.0195 79.873 66.9512 80.1367 66.9512 80.4707V82H66.4707V79H66.9512V79.6182H66.9629C67.0312 79.4072 67.1357 79.2432 67.2764 79.126C67.417 79.0068 67.5742 78.9473 67.748 78.9473C67.873 78.9473 67.9688 78.9609 68.0352 78.9883V79.4863ZM70.0918 80.5176H68.4922V80.1396H70.0918V80.5176ZM70.7773 81.8916V81.376C71.0391 81.5693 71.3271 81.666 71.6416 81.666C72.0635 81.666 72.2744 81.5254 72.2744 81.2441C72.2744 81.1641 72.2559 81.0967 72.2188 81.042C72.1836 80.9854 72.1348 80.9355 72.0723 80.8926C72.0117 80.8496 71.9395 80.8115 71.8555 80.7783C71.7734 80.7432 71.6846 80.707 71.5889 80.6699C71.4561 80.6172 71.3389 80.5645 71.2373 80.5117C71.1377 80.457 71.0537 80.3965 70.9854 80.3301C70.9189 80.2617 70.8682 80.1846 70.833 80.0986C70.7998 80.0127 70.7832 79.9121 70.7832 79.7969C70.7832 79.6562 70.8154 79.5322 70.8799 79.4248C70.9443 79.3154 71.0303 79.2246 71.1377 79.1523C71.2451 79.0781 71.3672 79.0225 71.5039 78.9854C71.6426 78.9482 71.7852 78.9297 71.9316 78.9297C72.1914 78.9297 72.4238 78.9746 72.6289 79.0645V79.5508C72.4082 79.4062 72.1543 79.334 71.8672 79.334C71.7773 79.334 71.6963 79.3447 71.624 79.3662C71.5518 79.3857 71.4893 79.4141 71.4365 79.4512C71.3857 79.4883 71.3457 79.5332 71.3164 79.5859C71.2891 79.6367 71.2754 79.6934 71.2754 79.7559C71.2754 79.834 71.2891 79.8994 71.3164 79.9521C71.3457 80.0049 71.3877 80.0518 71.4424 80.0928C71.4971 80.1338 71.5635 80.1709 71.6416 80.2041C71.7197 80.2373 71.8086 80.2734 71.9082 80.3125C72.041 80.3633 72.1602 80.416 72.2656 80.4707C72.3711 80.5234 72.4609 80.584 72.5352 80.6523C72.6094 80.7188 72.666 80.7959 72.7051 80.8838C72.7461 80.9717 72.7666 81.0762 72.7666 81.1973C72.7666 81.3457 72.7334 81.4746 72.667 81.584C72.6025 81.6934 72.5156 81.7842 72.4062 81.8564C72.2969 81.9287 72.1709 81.9824 72.0283 82.0176C71.8857 82.0527 71.7363 82.0703 71.5801 82.0703C71.2715 82.0703 71.0039 82.0107 70.7773 81.8916ZM74.8994 81.9707C74.7861 82.0332 74.6367 82.0645 74.4512 82.0645C73.9258 82.0645 73.6631 81.7715 73.6631 81.1855V79.4102H73.1475V79H73.6631V78.2676L74.1436 78.1123V79H74.8994V79.4102H74.1436V81.1006C74.1436 81.3018 74.1777 81.4453 74.2461 81.5312C74.3145 81.6172 74.4277 81.6602 74.5859 81.6602C74.707 81.6602 74.8115 81.627 74.8994 81.5605V81.9707ZM77.6885 82H77.208V81.5312H77.1963C76.9873 81.8906 76.6797 82.0703 76.2734 82.0703C75.9746 82.0703 75.7402 81.9912 75.5703 81.833C75.4023 81.6748 75.3184 81.4648 75.3184 81.2031C75.3184 80.6426 75.6484 80.3164 76.3086 80.2246L77.208 80.0986C77.208 79.5889 77.002 79.334 76.5898 79.334C76.2285 79.334 75.9023 79.457 75.6113 79.7031V79.2109C75.9062 79.0234 76.2461 78.9297 76.6309 78.9297C77.3359 78.9297 77.6885 79.3027 77.6885 80.0488V82ZM77.208 80.4824L76.4844 80.582C76.2617 80.6133 76.0938 80.6689 75.9805 80.749C75.8672 80.8271 75.8105 80.9668 75.8105 81.168C75.8105 81.3145 75.8623 81.4346 75.9658 81.5283C76.0713 81.6201 76.2109 81.666 76.3848 81.666C76.623 81.666 76.8193 81.583 76.9736 81.417C77.1299 81.249 77.208 81.0371 77.208 80.7812V80.4824ZM79.9854 81.9707C79.8721 82.0332 79.7227 82.0645 79.5371 82.0645C79.0117 82.0645 78.749 81.7715 78.749 81.1855V79.4102H78.2334V79H78.749V78.2676L79.2295 78.1123V79H79.9854V79.4102H79.2295V81.1006C79.2295 81.3018 79.2637 81.4453 79.332 81.5312C79.4004 81.6172 79.5137 81.6602 79.6719 81.6602C79.793 81.6602 79.8975 81.627 79.9854 81.5605V81.9707ZM80.873 78.2383C80.7871 78.2383 80.7139 78.209 80.6533 78.1504C80.5928 78.0918 80.5625 78.0176 80.5625 77.9277C80.5625 77.8379 80.5928 77.7637 80.6533 77.7051C80.7139 77.6445 80.7871 77.6143 80.873 77.6143C80.9609 77.6143 81.0352 77.6445 81.0957 77.7051C81.1582 77.7637 81.1895 77.8379 81.1895 77.9277C81.1895 78.0137 81.1582 78.0869 81.0957 78.1475C81.0352 78.208 80.9609 78.2383 80.873 78.2383ZM81.1074 82H80.627V79H81.1074V82ZM84.125 81.8623C83.8945 82.001 83.6211 82.0703 83.3047 82.0703C82.877 82.0703 82.5312 81.9316 82.2676 81.6543C82.0059 81.375 81.875 81.0137 81.875 80.5703C81.875 80.0762 82.0166 79.6797 82.2998 79.3809C82.583 79.0801 82.9609 78.9297 83.4336 78.9297C83.6973 78.9297 83.9297 78.9785 84.1309 79.0762V79.5684C83.9082 79.4121 83.6699 79.334 83.416 79.334C83.1094 79.334 82.8574 79.4443 82.6602 79.665C82.4648 79.8838 82.3672 80.1719 82.3672 80.5293C82.3672 80.8809 82.459 81.1582 82.6426 81.3613C82.8281 81.5645 83.0762 81.666 83.3867 81.666C83.6484 81.666 83.8945 81.5791 84.125 81.4053V81.8623Z" fill="black"/>
<path d="M188.792 42.0519C188.792 42.2414 188.756 42.4142 188.684 42.5705C188.613 42.7248 188.513 42.8576 188.382 42.9689C188.253 43.0783 188.098 43.1633 187.916 43.2238C187.734 43.2844 187.534 43.3146 187.315 43.3146C186.915 43.3146 186.597 43.2385 186.36 43.0861V42.5705C186.644 42.7932 186.968 42.9045 187.333 42.9045C187.479 42.9045 187.611 42.8859 187.729 42.8488C187.848 42.8117 187.949 42.758 188.033 42.6877C188.119 42.6174 188.185 42.5324 188.229 42.4328C188.276 42.3332 188.3 42.2209 188.3 42.0959C188.3 41.5471 187.909 41.2726 187.128 41.2726H186.779V40.8654H187.11C187.802 40.8654 188.147 40.6076 188.147 40.092C188.147 39.6154 187.884 39.3771 187.356 39.3771C187.06 39.3771 186.781 39.4767 186.521 39.676V39.2101C186.789 39.05 187.107 38.9699 187.477 38.9699C187.652 38.9699 187.812 38.9943 187.954 39.0432C188.097 39.092 188.219 39.1603 188.32 39.2482C188.422 39.3361 188.5 39.4416 188.555 39.5646C188.611 39.6877 188.64 39.8234 188.64 39.9719C188.64 40.5246 188.36 40.8801 187.802 41.0383V41.05C187.944 41.0656 188.076 41.1008 188.197 41.1555C188.318 41.2082 188.423 41.2775 188.511 41.3635C188.599 41.4494 188.667 41.551 188.716 41.6682C188.767 41.7834 188.792 41.9113 188.792 42.0519ZM191.355 43.2414H190.875V39.6115C190.838 39.6486 190.783 39.6916 190.711 39.7404C190.641 39.7873 190.561 39.8342 190.471 39.881C190.383 39.9279 190.289 39.9719 190.189 40.0129C190.092 40.0539 189.996 40.0861 189.902 40.1096V39.6232C190.008 39.5939 190.119 39.5549 190.236 39.506C190.355 39.4553 190.472 39.3996 190.585 39.3391C190.7 39.2766 190.809 39.2121 190.91 39.1457C191.012 39.0773 191.1 39.0109 191.174 38.9465H191.355V43.2414ZM197.388 41.7355C197.388 42.2336 197.282 42.6213 197.071 42.8986C196.86 43.174 196.578 43.3117 196.225 43.3117C196.061 43.3117 195.926 43.2883 195.82 43.2414V42.7551C195.926 42.8312 196.062 42.8693 196.23 42.8693C196.674 42.8693 196.896 42.4933 196.896 41.7414V39.0402H197.388V41.7355ZM201.53 41.5422C201.53 42.7219 200.998 43.3117 199.934 43.3117C198.914 43.3117 198.404 42.7443 198.404 41.6096V39.0402H198.896V41.5773C198.896 42.4387 199.26 42.8693 199.986 42.8693C200.688 42.8693 201.038 42.4533 201.038 41.6213V39.0402H201.53V41.5422ZM204.762 43.2414H202.582V39.0402H203.074V42.7961H204.762V43.2414ZM207.785 39.0402L206.399 41.6887V43.2414H205.907V41.7004L204.557 39.0402H205.116L206.057 40.9387C206.068 40.9621 206.103 41.048 206.159 41.1965H206.168C206.188 41.1301 206.225 41.0441 206.279 40.9387L207.264 39.0402H207.785ZM211.729 40.1418C211.729 40.0129 211.708 39.9006 211.667 39.8049C211.628 39.7092 211.573 39.6301 211.503 39.5676C211.435 39.5031 211.354 39.4553 211.26 39.424C211.166 39.3928 211.064 39.3771 210.955 39.3771C210.861 39.3771 210.77 39.3898 210.68 39.4152C210.59 39.4406 210.502 39.4758 210.416 39.5207C210.332 39.5656 210.25 39.6193 210.17 39.6818C210.092 39.7443 210.019 39.8137 209.95 39.8898V39.3742C210.085 39.2433 210.235 39.1437 210.401 39.0754C210.569 39.0051 210.773 38.9699 211.014 38.9699C211.186 38.9699 211.345 38.9953 211.491 39.0461C211.638 39.0949 211.765 39.1672 211.872 39.2629C211.979 39.3586 212.063 39.4767 212.124 39.6174C212.187 39.758 212.218 39.9191 212.218 40.1008C212.218 40.2668 212.198 40.4172 212.159 40.5519C212.122 40.6867 212.064 40.8137 211.986 40.9328C211.91 41.0519 211.813 41.1662 211.696 41.2756C211.579 41.3849 211.441 41.4963 211.283 41.6096C211.086 41.7502 210.923 41.8703 210.794 41.9699C210.667 42.0695 210.565 42.1633 210.489 42.2512C210.415 42.3371 210.362 42.424 210.331 42.5119C210.302 42.5978 210.287 42.6974 210.287 42.8107H212.379V43.2414H209.786V43.0334C209.786 42.8537 209.806 42.6955 209.845 42.5588C209.884 42.4221 209.948 42.2922 210.038 42.1691C210.128 42.0461 210.245 41.923 210.39 41.8C210.536 41.6769 210.715 41.5383 210.926 41.384C211.078 41.2746 211.205 41.1701 211.307 41.0705C211.41 40.9709 211.493 40.8713 211.556 40.7717C211.618 40.6721 211.662 40.5715 211.688 40.4699C211.715 40.3664 211.729 40.257 211.729 40.1418ZM215.689 41.1232C215.689 41.4748 215.657 41.7863 215.593 42.0578C215.53 42.3293 215.438 42.5588 215.317 42.7463C215.198 42.9318 215.051 43.0734 214.875 43.1711C214.701 43.2668 214.503 43.3146 214.28 43.3146C214.069 43.3146 213.881 43.2687 213.715 43.1769C213.551 43.0832 213.412 42.9474 213.299 42.7697C213.186 42.592 213.1 42.3742 213.041 42.1164C212.982 41.8566 212.953 41.5598 212.953 41.2258C212.953 40.8586 212.983 40.5344 213.044 40.2531C213.106 39.9719 213.197 39.7365 213.316 39.5471C213.436 39.3557 213.583 39.2121 213.759 39.1164C213.937 39.0187 214.14 38.9699 214.368 38.9699C215.249 38.9699 215.689 39.6877 215.689 41.1232ZM215.197 41.1701C215.197 39.9748 214.913 39.3771 214.345 39.3771C213.745 39.3771 213.445 39.9855 213.445 41.2023C213.445 42.3371 213.739 42.9045 214.327 42.9045C214.907 42.9045 215.197 42.3264 215.197 41.1701ZM218.197 40.1418C218.197 40.0129 218.177 39.9006 218.136 39.8049C218.097 39.7092 218.042 39.6301 217.972 39.5676C217.903 39.5031 217.822 39.4553 217.729 39.424C217.635 39.3928 217.533 39.3771 217.424 39.3771C217.33 39.3771 217.238 39.3898 217.148 39.4152C217.059 39.4406 216.971 39.4758 216.885 39.5207C216.801 39.5656 216.719 39.6193 216.639 39.6818C216.561 39.7443 216.487 39.8137 216.419 39.8898V39.3742C216.554 39.2433 216.704 39.1437 216.87 39.0754C217.038 39.0051 217.242 38.9699 217.482 38.9699C217.654 38.9699 217.813 38.9953 217.96 39.0461C218.106 39.0949 218.233 39.1672 218.341 39.2629C218.448 39.3586 218.532 39.4767 218.593 39.6174C218.655 39.758 218.687 39.9191 218.687 40.1008C218.687 40.2668 218.667 40.4172 218.628 40.5519C218.591 40.6867 218.533 40.8137 218.455 40.9328C218.379 41.0519 218.282 41.1662 218.165 41.2756C218.048 41.3849 217.91 41.4963 217.752 41.6096C217.555 41.7502 217.392 41.8703 217.263 41.9699C217.136 42.0695 217.034 42.1633 216.958 42.2512C216.884 42.3371 216.831 42.424 216.8 42.5119C216.771 42.5978 216.756 42.6974 216.756 42.8107H218.848V43.2414H216.255V43.0334C216.255 42.8537 216.274 42.6955 216.313 42.5588C216.353 42.4221 216.417 42.2922 216.507 42.1691C216.597 42.0461 216.714 41.923 216.858 41.8C217.005 41.6769 217.184 41.5383 217.395 41.384C217.547 41.2746 217.674 41.1701 217.775 41.0705C217.879 40.9709 217.962 40.8713 218.024 40.7717C218.087 40.6721 218.131 40.5715 218.156 40.4699C218.184 40.3664 218.197 40.257 218.197 40.1418ZM221.432 40.1418C221.432 40.0129 221.411 39.9006 221.37 39.8049C221.331 39.7092 221.276 39.6301 221.206 39.5676C221.138 39.5031 221.057 39.4553 220.963 39.424C220.869 39.3928 220.768 39.3771 220.658 39.3771C220.564 39.3771 220.473 39.3898 220.383 39.4152C220.293 39.4406 220.205 39.4758 220.119 39.5207C220.035 39.5656 219.953 39.6193 219.873 39.6818C219.795 39.7443 219.722 39.8137 219.653 39.8898V39.3742C219.788 39.2433 219.938 39.1437 220.104 39.0754C220.272 39.0051 220.477 38.9699 220.717 38.9699C220.889 38.9699 221.048 38.9953 221.194 39.0461C221.341 39.0949 221.468 39.1672 221.575 39.2629C221.683 39.3586 221.767 39.4767 221.827 39.6174C221.89 39.758 221.921 39.9191 221.921 40.1008C221.921 40.2668 221.901 40.4172 221.862 40.5519C221.825 40.6867 221.768 40.8137 221.689 40.9328C221.613 41.0519 221.517 41.1662 221.399 41.2756C221.282 41.3849 221.145 41.4963 220.986 41.6096C220.789 41.7502 220.626 41.8703 220.497 41.9699C220.37 42.0695 220.269 42.1633 220.192 42.2512C220.118 42.3371 220.065 42.424 220.034 42.5119C220.005 42.5978 219.99 42.6974 219.99 42.8107H222.082V43.2414H219.489V43.0334C219.489 42.8537 219.509 42.6955 219.548 42.5588C219.587 42.4221 219.651 42.2922 219.741 42.1691C219.831 42.0461 219.948 41.923 220.093 41.8C220.239 41.6769 220.418 41.5383 220.629 41.384C220.781 41.2746 220.908 41.1701 221.01 41.0705C221.113 40.9709 221.196 40.8713 221.259 40.7717C221.321 40.6721 221.365 40.5715 221.391 40.4699C221.418 40.3664 221.432 40.257 221.432 40.1418Z" fill="#0991CD"/>
<path d="M198.967 54H198.486V49.5586H198.967V54ZM201.193 54.0703C200.75 54.0703 200.396 53.9307 200.13 53.6514C199.866 53.3701 199.734 52.998 199.734 52.5352C199.734 52.0312 199.872 51.6377 200.147 51.3545C200.423 51.0713 200.795 50.9297 201.264 50.9297C201.711 50.9297 202.06 51.0674 202.31 51.3428C202.562 51.6182 202.688 52 202.688 52.4883C202.688 52.9668 202.552 53.3506 202.28 53.6396C202.011 53.9268 201.648 54.0703 201.193 54.0703ZM201.229 51.334C200.92 51.334 200.676 51.4395 200.496 51.6504C200.316 51.8594 200.227 52.1484 200.227 52.5176C200.227 52.873 200.317 53.1533 200.499 53.3584C200.681 53.5635 200.924 53.666 201.229 53.666C201.539 53.666 201.777 53.5654 201.943 53.3643C202.111 53.1631 202.195 52.877 202.195 52.5059C202.195 52.1309 202.111 51.8418 201.943 51.6387C201.777 51.4355 201.539 51.334 201.229 51.334ZM205.5 53.8623C205.27 54.001 204.996 54.0703 204.68 54.0703C204.252 54.0703 203.906 53.9316 203.643 53.6543C203.381 53.375 203.25 53.0137 203.25 52.5703C203.25 52.0762 203.392 51.6797 203.675 51.3809C203.958 51.0801 204.336 50.9297 204.809 50.9297C205.072 50.9297 205.305 50.9785 205.506 51.0762V51.5684C205.283 51.4121 205.045 51.334 204.791 51.334C204.484 51.334 204.232 51.4443 204.035 51.665C203.84 51.8838 203.742 52.1719 203.742 52.5293C203.742 52.8809 203.834 53.1582 204.018 53.3613C204.203 53.5645 204.451 53.666 204.762 53.666C205.023 53.666 205.27 53.5791 205.5 53.4053V53.8623ZM208.374 54H207.894V53.5312H207.882C207.673 53.8906 207.365 54.0703 206.959 54.0703C206.66 54.0703 206.426 53.9912 206.256 53.833C206.088 53.6748 206.004 53.4648 206.004 53.2031C206.004 52.6426 206.334 52.3164 206.994 52.2246L207.894 52.0986C207.894 51.5889 207.688 51.334 207.275 51.334C206.914 51.334 206.588 51.457 206.297 51.7031V51.2109C206.592 51.0234 206.932 50.9297 207.316 50.9297C208.021 50.9297 208.374 51.3027 208.374 52.0488V54ZM207.894 52.4824L207.17 52.582C206.947 52.6133 206.779 52.6689 206.666 52.749C206.553 52.8271 206.496 52.9668 206.496 53.168C206.496 53.3145 206.548 53.4346 206.651 53.5283C206.757 53.6201 206.896 53.666 207.07 53.666C207.309 53.666 207.505 53.583 207.659 53.417C207.815 53.249 207.894 53.0371 207.894 52.7812V52.4824ZM210.671 53.9707C210.558 54.0332 210.408 54.0645 210.223 54.0645C209.697 54.0645 209.435 53.7715 209.435 53.1855V51.4102H208.919V51H209.435V50.2676L209.915 50.1123V51H210.671V51.4102H209.915V53.1006C209.915 53.3018 209.949 53.4453 210.018 53.5312C210.086 53.6172 210.199 53.6602 210.357 53.6602C210.479 53.6602 210.583 53.627 210.671 53.5605V53.9707ZM211.559 50.2383C211.473 50.2383 211.399 50.209 211.339 50.1504C211.278 50.0918 211.248 50.0176 211.248 49.9277C211.248 49.8379 211.278 49.7637 211.339 49.7051C211.399 49.6445 211.473 49.6143 211.559 49.6143C211.646 49.6143 211.721 49.6445 211.781 49.7051C211.844 49.7637 211.875 49.8379 211.875 49.9277C211.875 50.0137 211.844 50.0869 211.781 50.1475C211.721 50.208 211.646 50.2383 211.559 50.2383ZM211.793 54H211.312V51H211.793V54ZM214.02 54.0703C213.576 54.0703 213.222 53.9307 212.956 53.6514C212.692 53.3701 212.561 52.998 212.561 52.5352C212.561 52.0312 212.698 51.6377 212.974 51.3545C213.249 51.0713 213.621 50.9297 214.09 50.9297C214.537 50.9297 214.886 51.0674 215.136 51.3428C215.388 51.6182 215.514 52 215.514 52.4883C215.514 52.9668 215.378 53.3506 215.106 53.6396C214.837 53.9268 214.475 54.0703 214.02 54.0703ZM214.055 51.334C213.746 51.334 213.502 51.4395 213.322 51.6504C213.143 51.8594 213.053 52.1484 213.053 52.5176C213.053 52.873 213.144 53.1533 213.325 53.3584C213.507 53.5635 213.75 53.666 214.055 53.666C214.365 53.666 214.604 53.5654 214.77 53.3643C214.938 53.1631 215.021 52.877 215.021 52.5059C215.021 52.1309 214.938 51.8418 214.77 51.6387C214.604 51.4355 214.365 51.334 214.055 51.334ZM218.771 54H218.291V52.2891C218.291 51.6523 218.059 51.334 217.594 51.334C217.354 51.334 217.154 51.4248 216.996 51.6064C216.84 51.7861 216.762 52.0137 216.762 52.2891V54H216.281V51H216.762V51.498H216.773C217 51.1191 217.328 50.9297 217.758 50.9297C218.086 50.9297 218.337 51.0361 218.511 51.249C218.685 51.46 218.771 51.7656 218.771 52.166V54Z" fill="#032D40"/>
<path d="M208.878 61.9707C208.765 62.0332 208.615 62.0645 208.43 62.0645C207.904 62.0645 207.642 61.7715 207.642 61.1855V59.4102H207.126V59H207.642V58.2676L208.122 58.1123V59H208.878V59.4102H208.122V61.1006C208.122 61.3018 208.156 61.4453 208.225 61.5312C208.293 61.6172 208.406 61.6602 208.564 61.6602C208.686 61.6602 208.79 61.627 208.878 61.5605V61.9707ZM209.766 58.2383C209.68 58.2383 209.606 58.209 209.546 58.1504C209.485 58.0918 209.455 58.0176 209.455 57.9277C209.455 57.8379 209.485 57.7637 209.546 57.7051C209.606 57.6445 209.68 57.6143 209.766 57.6143C209.854 57.6143 209.928 57.6445 209.988 57.7051C210.051 57.7637 210.082 57.8379 210.082 57.9277C210.082 58.0137 210.051 58.0869 209.988 58.1475C209.928 58.208 209.854 58.2383 209.766 58.2383ZM210 62H209.52V59H210V62ZM215.232 62H214.752V60.2773C214.752 59.9453 214.7 59.7051 214.597 59.5566C214.495 59.4082 214.323 59.334 214.081 59.334C213.876 59.334 213.701 59.4277 213.557 59.6152C213.414 59.8027 213.343 60.0273 213.343 60.2891V62H212.862V60.2188C212.862 59.6289 212.635 59.334 212.18 59.334C211.969 59.334 211.795 59.4229 211.658 59.6006C211.521 59.7764 211.453 60.0059 211.453 60.2891V62H210.973V59H211.453V59.4746H211.465C211.678 59.1113 211.988 58.9297 212.396 58.9297C212.602 58.9297 212.78 58.9873 212.933 59.1025C213.085 59.2158 213.189 59.3652 213.246 59.5508C213.469 59.1367 213.801 58.9297 214.242 58.9297C214.902 58.9297 215.232 59.3369 215.232 60.1514V62ZM218.552 60.6201H216.434C216.441 60.9541 216.531 61.2119 216.703 61.3936C216.875 61.5752 217.111 61.666 217.412 61.666C217.75 61.666 218.061 61.5547 218.344 61.332V61.7832C218.08 61.9746 217.731 62.0703 217.298 62.0703C216.874 62.0703 216.541 61.9346 216.299 61.6631C216.057 61.3896 215.936 61.0059 215.936 60.5117C215.936 60.0449 216.067 59.665 216.331 59.3721C216.597 59.0771 216.926 58.9297 217.318 58.9297C217.711 58.9297 218.015 59.0566 218.229 59.3105C218.444 59.5645 218.552 59.917 218.552 60.3682V60.6201ZM218.06 60.2129C218.058 59.9355 217.99 59.7197 217.857 59.5654C217.727 59.4111 217.544 59.334 217.31 59.334C217.083 59.334 216.891 59.415 216.732 59.5771C216.574 59.7393 216.477 59.9512 216.439 60.2129H218.06Z" fill="#032D40"/>
<defs>
<filter id="filter0_d_25_4" x="-49" y="0" width="284" height="143" filterUnits="userSpaceOnUse" color-interpolation-filters="sRGB">
<feFlood flood-opacity="0" result="BackgroundImageFix"/>
<feColorMatrix in="SourceAlpha" type="matrix" values="0 0 0 0 0 0 0 0 0 0 0 0 0 0 0 0 0 0 127 0" result="hardAlpha"/>
<feOffset dy="4"/>
<feGaussianBlur stdDeviation="2"/>
<feComposite in2="hardAlpha" operator="out"/>
<feColorMatrix type="matrix" values="0 0 0 0 0 0 0 0 0 0 0 0 0 0 0 0 0 0 0.25 0"/>
<feBlend mode="normal" in2="BackgroundImageFix" result="effect1_dropShadow_25_4"/>
<feBlend mode="normal" in="SourceGraphic" in2="effect1_dropShadow_25_4" result="shape"/>
</filter>
<filter id="filter1_d_25_4" x="-38" y="97" width="112" height="37" filterUnits="userSpaceOnUse" color-interpolation-filters="sRGB">
<feFlood flood-opacity="0" result="BackgroundImageFix"/>
<feColorMatrix in="SourceAlpha" type="matrix" values="0 0 0 0 0 0 0 0 0 0 0 0 0 0 0 0 0 0 127 0" result="hardAlpha"/>
<feOffset dy="4"/>
<feGaussianBlur stdDeviation="2"/>
<feComposite in2="hardAlpha" operator="out"/>
<feColorMatrix type="matrix" values="0 0 0 0 0 0 0 0 0 0 0 0 0 0 0 0 0 0 0.25 0"/>
<feBlend mode="normal" in2="BackgroundImageFix" result="effect1_dropShadow_25_4"/>
<feBlend mode="normal" in="SourceGraphic" in2="effect1_dropShadow_25_4" result="shape"/>
</filter>
</defs>
</svg>
