<svg width="354" height="270" viewBox="0 0 354 270" fill="none" xmlns="http://www.w3.org/2000/svg">
<rect x="6" width="108" height="36" rx="18" fill="#EAD413"/>
<path d="M32.3097 14.7273V22H31.429V15.6506H31.3864L29.6108 16.8295V15.9347L31.429 14.7273H32.3097ZM36.8587 22.0994C36.3899 22.0994 35.9721 22.0189 35.6051 21.858C35.2405 21.697 34.9505 21.4732 34.7351 21.1868C34.522 20.898 34.406 20.563 34.3871 20.1818H35.282C35.3009 20.4162 35.3814 20.6186 35.5234 20.7891C35.6655 20.9571 35.8513 21.0874 36.081 21.1797C36.3106 21.272 36.5651 21.3182 36.8445 21.3182C37.157 21.3182 37.4339 21.2637 37.6754 21.1548C37.9169 21.0459 38.1063 20.8944 38.2436 20.7003C38.3809 20.5062 38.4496 20.2812 38.4496 20.0256C38.4496 19.758 38.3833 19.5225 38.2507 19.3189C38.1181 19.1129 37.924 18.9519 37.6683 18.8359C37.4126 18.7199 37.1001 18.6619 36.7308 18.6619H36.1484V17.8807H36.7308C37.0196 17.8807 37.273 17.8286 37.4908 17.7244C37.7109 17.6203 37.8826 17.4735 38.0057 17.2841C38.1312 17.0947 38.1939 16.8722 38.1939 16.6165C38.1939 16.3703 38.1394 16.156 38.0305 15.9737C37.9216 15.7914 37.7678 15.6494 37.5689 15.5476C37.3724 15.4458 37.1404 15.3949 36.8729 15.3949C36.6219 15.3949 36.3852 15.4411 36.1626 15.5334C35.9425 15.6233 35.7625 15.7547 35.6229 15.9276C35.4832 16.098 35.4074 16.304 35.3956 16.5455H34.5433C34.5575 16.1643 34.6723 15.8305 34.8878 15.544C35.1032 15.2552 35.3849 15.0303 35.733 14.8693C36.0833 14.7083 36.468 14.6278 36.8871 14.6278C37.3369 14.6278 37.7228 14.719 38.0447 14.9013C38.3667 15.0812 38.6141 15.3191 38.7869 15.6151C38.9598 15.911 39.0462 16.2306 39.0462 16.5739C39.0462 16.9834 38.9384 17.3326 38.723 17.6214C38.5099 17.9103 38.2199 18.1103 37.853 18.2216V18.2784C38.3123 18.3542 38.6709 18.5495 38.929 18.8643C39.187 19.1768 39.3161 19.5639 39.3161 20.0256C39.3161 20.4209 39.2083 20.776 38.9929 21.0909C38.7798 21.4034 38.4886 21.6496 38.1193 21.8295C37.75 22.0095 37.3298 22.0994 36.8587 22.0994ZM44.8168 12.3835V24.3438H44.1065V12.3835H44.8168ZM53.5428 17.767L52.79 17.9801C52.7426 17.8546 52.6728 17.7327 52.5804 17.6143C52.4905 17.4936 52.3674 17.3942 52.2111 17.3161C52.0549 17.2379 51.8548 17.1989 51.611 17.1989C51.2772 17.1989 50.999 17.2758 50.7765 17.4297C50.5563 17.5812 50.4462 17.7741 50.4462 18.0085C50.4462 18.2169 50.522 18.3814 50.6735 18.5021C50.825 18.6229 51.0617 18.7235 51.3837 18.804L52.1934 19.0028C52.681 19.1212 53.0444 19.3023 53.2836 19.5462C53.5227 19.7876 53.6422 20.099 53.6422 20.4801C53.6422 20.7926 53.5523 21.072 53.3723 21.3182C53.1948 21.5644 52.9462 21.7585 52.6266 21.9006C52.307 22.0426 51.9353 22.1136 51.5115 22.1136C50.9552 22.1136 50.4947 21.9929 50.1301 21.7514C49.7656 21.5099 49.5347 21.1572 49.4377 20.6932L50.2331 20.4943C50.3089 20.7879 50.4521 21.008 50.6628 21.1548C50.8759 21.3016 51.1541 21.375 51.4973 21.375C51.888 21.375 52.1981 21.2921 52.4277 21.1264C52.6597 20.9583 52.7757 20.7571 52.7757 20.5227C52.7757 20.3333 52.7095 20.1747 52.5769 20.0469C52.4443 19.9167 52.2407 19.8196 51.9661 19.7557L51.057 19.5426C50.5575 19.4242 50.1905 19.2408 49.9561 18.9922C49.7241 18.7412 49.6081 18.4276 49.6081 18.0511C49.6081 17.7434 49.6945 17.4711 49.8674 17.2344C50.0426 16.9976 50.2805 16.8118 50.5811 16.6768C50.8842 16.5419 51.2275 16.4744 51.611 16.4744C52.1507 16.4744 52.5745 16.5928 52.8823 16.8295C53.1924 17.0663 53.4126 17.3788 53.5428 17.767ZM56.5089 22.1278C56.1632 22.1278 55.8496 22.0627 55.5678 21.9325C55.2861 21.8 55.0624 21.6094 54.8967 21.3608C54.7309 21.1098 54.6481 20.8068 54.6481 20.4517C54.6481 20.1392 54.7096 19.8859 54.8327 19.6918C54.9558 19.4953 55.1204 19.3414 55.3263 19.2301C55.5323 19.1188 55.7596 19.036 56.0082 18.9815C56.2591 18.9247 56.5112 18.8797 56.7646 18.8466C57.096 18.804 57.3647 18.772 57.5707 18.7507C57.779 18.727 57.9305 18.688 58.0252 18.6335C58.1223 18.5791 58.1708 18.4844 58.1708 18.3494V18.321C58.1708 17.9706 58.0749 17.6984 57.8832 17.5043C57.6938 17.3101 57.4061 17.2131 57.0202 17.2131C56.6201 17.2131 56.3065 17.3007 56.0792 17.4759C55.8519 17.651 55.6921 17.8381 55.5998 18.0369L54.8043 17.7528C54.9464 17.4214 55.1358 17.1634 55.3725 16.9787C55.6116 16.7917 55.872 16.6615 56.1538 16.5881C56.4379 16.5123 56.7172 16.4744 56.9918 16.4744C57.167 16.4744 57.3683 16.4957 57.5955 16.5384C57.8252 16.5786 58.0465 16.6626 58.2596 16.7905C58.475 16.9183 58.6538 17.1113 58.7958 17.3693C58.9379 17.6274 59.0089 17.973 59.0089 18.4062V22H58.1708V21.2614H58.1282C58.0714 21.3797 57.9767 21.5064 57.8441 21.6413C57.7115 21.7763 57.5352 21.8911 57.315 21.9858C57.0948 22.0805 56.8261 22.1278 56.5089 22.1278ZM56.6367 21.375C56.9682 21.375 57.2475 21.3099 57.4748 21.1797C57.7044 21.0495 57.8772 20.8814 57.9933 20.6754C58.1116 20.4695 58.1708 20.2528 58.1708 20.0256V19.2585C58.1353 19.3011 58.0572 19.3402 57.9364 19.3757C57.8181 19.4089 57.6808 19.4384 57.5245 19.4645C57.3706 19.4882 57.2203 19.5095 57.0735 19.5284C56.9291 19.545 56.8119 19.5592 56.7219 19.571C56.5041 19.5994 56.3005 19.6456 56.1112 19.7095C55.9241 19.7711 55.7726 19.8646 55.6566 19.9901C55.543 20.1132 55.4862 20.2812 55.4862 20.4943C55.4862 20.7855 55.5939 21.0057 55.8093 21.1548C56.0271 21.3016 56.3029 21.375 56.6367 21.375ZM62.9107 16.5455V17.2557H60.084V16.5455H62.9107ZM60.9078 15.2386H61.7459V20.4375C61.7459 20.6742 61.7802 20.8518 61.8489 20.9702C61.9199 21.0862 62.0099 21.1643 62.1188 21.2045C62.2301 21.2424 62.3472 21.2614 62.4703 21.2614C62.5627 21.2614 62.6384 21.2566 62.6976 21.2472C62.7568 21.2353 62.8042 21.2259 62.8397 21.2188L63.0101 21.9716C62.9533 21.9929 62.874 22.0142 62.7722 22.0355C62.6704 22.0592 62.5414 22.071 62.3851 22.071C62.1484 22.071 61.9164 22.0201 61.6891 21.9183C61.4642 21.8165 61.2772 21.6615 61.128 21.4531C60.9812 21.2448 60.9078 20.982 60.9078 20.6648V15.2386ZM67.6088 19.7699V16.5455H68.4469V22H67.6088V21.0767H67.552C67.4242 21.3537 67.2253 21.5893 66.9554 21.7834C66.6855 21.9751 66.3446 22.071 65.9327 22.071C65.5918 22.071 65.2888 21.9964 65.0236 21.8473C64.7585 21.6958 64.5501 21.4685 64.3986 21.1655C64.2471 20.8601 64.1713 20.4754 64.1713 20.0114V16.5455H65.0094V19.9545C65.0094 20.3523 65.1207 20.6695 65.3432 20.9062C65.5681 21.143 65.8546 21.2614 66.2026 21.2614C66.4109 21.2614 66.6228 21.2081 66.8382 21.1016C67.056 20.995 67.2383 20.8317 67.3851 20.6115C67.5343 20.3913 67.6088 20.1108 67.6088 19.7699ZM69.9819 22V16.5455H70.7915V17.3693H70.8484C70.9478 17.0994 71.1277 16.8804 71.3881 16.7124C71.6486 16.5443 71.9421 16.4602 72.2688 16.4602C72.3304 16.4602 72.4073 16.4614 72.4996 16.4638C72.592 16.4661 72.6618 16.4697 72.7092 16.4744V17.3267C72.6808 17.3196 72.6156 17.3089 72.5138 17.2947C72.4144 17.2782 72.3091 17.2699 72.1978 17.2699C71.9326 17.2699 71.6959 17.3255 71.4876 17.4368C71.2816 17.5457 71.1183 17.6972 70.9975 17.8913C70.8791 18.0831 70.82 18.3021 70.82 18.5483V22H69.9819ZM75.5962 22.1136C75.1417 22.1136 74.7404 21.9988 74.3924 21.7692C74.0444 21.5372 73.7721 21.2105 73.5756 20.7891C73.3791 20.3653 73.2809 19.8646 73.2809 19.2869C73.2809 18.714 73.3791 18.2169 73.5756 17.7955C73.7721 17.3741 74.0456 17.0485 74.396 16.8189C74.7463 16.5893 75.1512 16.4744 75.6104 16.4744C75.9656 16.4744 76.2461 16.5336 76.4521 16.652C76.6604 16.768 76.819 16.9006 76.9279 17.0497C77.0392 17.1965 77.1256 17.3172 77.1871 17.4119H77.2582V14.7273H78.0962V22H77.2866V21.1619H77.1871C77.1256 21.2614 77.038 21.3868 76.9244 21.5384C76.8107 21.6875 76.6486 21.8213 76.4379 21.9396C76.2272 22.0556 75.9466 22.1136 75.5962 22.1136ZM75.7099 21.3608C76.046 21.3608 76.3301 21.2732 76.5621 21.098C76.7942 20.9205 76.9705 20.6754 77.0913 20.3629C77.212 20.0481 77.2724 19.6847 77.2724 19.2727C77.2724 18.8655 77.2132 18.5092 77.0948 18.2038C76.9764 17.8961 76.8013 17.657 76.5692 17.4865C76.3372 17.3137 76.0508 17.2273 75.7099 17.2273C75.3548 17.2273 75.0588 17.3184 74.8221 17.5007C74.5877 17.6806 74.4113 17.9257 74.293 18.2358C74.177 18.5436 74.119 18.8892 74.119 19.2727C74.119 19.661 74.1781 20.0137 74.2965 20.331C74.4173 20.6458 74.5948 20.8968 74.8292 21.0838C75.0659 21.2685 75.3595 21.3608 75.7099 21.3608ZM81.3526 22.1278C81.007 22.1278 80.6933 22.0627 80.4116 21.9325C80.1299 21.8 79.9061 21.6094 79.7404 21.3608C79.5747 21.1098 79.4918 20.8068 79.4918 20.4517C79.4918 20.1392 79.5534 19.8859 79.6765 19.6918C79.7996 19.4953 79.9641 19.3414 80.1701 19.2301C80.3761 19.1188 80.6033 19.036 80.8519 18.9815C81.1029 18.9247 81.355 18.8797 81.6083 18.8466C81.9397 18.804 82.2085 18.772 82.4144 18.7507C82.6228 18.727 82.7743 18.688 82.869 18.6335C82.966 18.5791 83.0146 18.4844 83.0146 18.3494V18.321C83.0146 17.9706 82.9187 17.6984 82.7269 17.5043C82.5375 17.3101 82.2499 17.2131 81.864 17.2131C81.4639 17.2131 81.1502 17.3007 80.9229 17.4759C80.6957 17.651 80.5359 17.8381 80.4435 18.0369L79.6481 17.7528C79.7901 17.4214 79.9795 17.1634 80.2163 16.9787C80.4554 16.7917 80.7158 16.6615 80.9975 16.5881C81.2816 16.5123 81.561 16.4744 81.8356 16.4744C82.0108 16.4744 82.212 16.4957 82.4393 16.5384C82.6689 16.5786 82.8903 16.6626 83.1033 16.7905C83.3188 16.9183 83.4975 17.1113 83.6396 17.3693C83.7816 17.6274 83.8526 17.973 83.8526 18.4062V22H83.0146V21.2614H82.9719C82.9151 21.3797 82.8204 21.5064 82.6879 21.6413C82.5553 21.7763 82.3789 21.8911 82.1587 21.9858C81.9386 22.0805 81.6699 22.1278 81.3526 22.1278ZM81.4805 21.375C81.8119 21.375 82.0913 21.3099 82.3185 21.1797C82.5482 21.0495 82.721 20.8814 82.837 20.6754C82.9554 20.4695 83.0146 20.2528 83.0146 20.0256V19.2585C82.979 19.3011 82.9009 19.3402 82.7802 19.3757C82.6618 19.4089 82.5245 19.4384 82.3683 19.4645C82.2144 19.4882 82.064 19.5095 81.9173 19.5284C81.7728 19.545 81.6557 19.5592 81.5657 19.571C81.3479 19.5994 81.1443 19.6456 80.9549 19.7095C80.7679 19.7711 80.6164 19.8646 80.5004 19.9901C80.3867 20.1132 80.3299 20.2812 80.3299 20.4943C80.3299 20.7855 80.4376 21.0057 80.6531 21.1548C80.8709 21.3016 81.1467 21.375 81.4805 21.375ZM85.7267 24.0455C85.5847 24.0455 85.458 24.0336 85.3468 24.0099C85.2355 23.9886 85.1586 23.9673 85.1159 23.946L85.329 23.2074C85.5326 23.2595 85.7125 23.2784 85.8688 23.2642C86.025 23.25 86.1635 23.1802 86.2843 23.0547C86.4074 22.9316 86.5198 22.7315 86.6216 22.4545L86.7779 22.0284L84.7608 16.5455H85.6699L87.1756 20.892H87.2324L88.7381 16.5455H89.6472L87.3319 22.7955C87.2277 23.0772 87.0987 23.3104 86.9448 23.495C86.7909 23.6821 86.6122 23.8205 86.4086 23.9105C86.2073 24.0005 85.9801 24.0455 85.7267 24.0455Z" fill="black"/>
<g filter="url(#filter0_d_56_11)">
<g filter="url(#filter1_d_56_11)">
<rect x="4" y="85" width="346" height="177" rx="6" fill="white"/>
</g>
<path d="M137.584 164.609C137.584 164.988 137.512 165.334 137.367 165.646C137.227 165.955 137.025 166.221 136.764 166.443C136.506 166.662 136.195 166.832 135.832 166.953C135.469 167.074 135.068 167.135 134.631 167.135C133.83 167.135 133.193 166.982 132.721 166.678V165.646C133.287 166.092 133.936 166.314 134.666 166.314C134.959 166.314 135.223 166.277 135.457 166.203C135.695 166.129 135.898 166.021 136.066 165.881C136.238 165.74 136.369 165.57 136.459 165.371C136.553 165.172 136.6 164.947 136.6 164.697C136.6 163.599 135.818 163.051 134.256 163.051H133.559V162.236H134.221C135.604 162.236 136.295 161.721 136.295 160.689C136.295 159.736 135.768 159.26 134.713 159.26C134.119 159.26 133.562 159.459 133.043 159.857V158.926C133.578 158.605 134.215 158.445 134.953 158.445C135.305 158.445 135.623 158.494 135.908 158.592C136.193 158.689 136.438 158.826 136.641 159.002C136.844 159.178 137 159.389 137.109 159.635C137.223 159.881 137.279 160.152 137.279 160.449C137.279 161.555 136.721 162.266 135.604 162.582V162.605C135.889 162.637 136.152 162.707 136.395 162.816C136.637 162.922 136.846 163.06 137.021 163.232C137.197 163.404 137.334 163.607 137.432 163.842C137.533 164.072 137.584 164.328 137.584 164.609ZM142.711 166.988H141.75V159.728C141.676 159.803 141.566 159.889 141.422 159.986C141.281 160.08 141.121 160.174 140.941 160.267C140.766 160.361 140.578 160.449 140.379 160.531C140.184 160.613 139.992 160.678 139.805 160.724V159.752C140.016 159.693 140.238 159.615 140.473 159.517C140.711 159.416 140.943 159.305 141.17 159.183C141.4 159.058 141.617 158.93 141.82 158.797C142.023 158.66 142.199 158.527 142.348 158.398H142.711V166.988ZM155.836 166.988H154.746L153.855 164.633H150.293L149.455 166.988H148.359L151.582 158.586H152.602L155.836 166.988ZM153.533 163.748L152.215 160.168C152.172 160.051 152.129 159.863 152.086 159.605H152.062C152.023 159.844 151.979 160.031 151.928 160.168L150.621 163.748H153.533ZM162.99 163.59C162.99 165.949 161.926 167.129 159.797 167.129C157.758 167.129 156.738 165.994 156.738 163.724V158.586H157.723V163.66C157.723 165.383 158.449 166.244 159.902 166.244C161.305 166.244 162.006 165.412 162.006 163.748V158.586H162.99V163.59ZM171.375 166.414C170.531 166.891 169.594 167.129 168.562 167.129C167.363 167.129 166.393 166.742 165.65 165.969C164.912 165.195 164.543 164.172 164.543 162.898C164.543 161.598 164.953 160.531 165.773 159.699C166.598 158.863 167.641 158.445 168.902 158.445C169.816 158.445 170.584 158.594 171.205 158.891V159.98C170.525 159.551 169.721 159.336 168.791 159.336C167.85 159.336 167.078 159.66 166.477 160.308C165.875 160.957 165.574 161.797 165.574 162.828C165.574 163.891 165.854 164.726 166.412 165.336C166.971 165.941 167.729 166.244 168.686 166.244C169.342 166.244 169.91 166.113 170.391 165.851V163.496H168.551V162.605H171.375V166.414ZM179.479 163.59C179.479 165.949 178.414 167.129 176.285 167.129C174.246 167.129 173.227 165.994 173.227 163.724V158.586H174.211V163.66C174.211 165.383 174.938 166.244 176.391 166.244C177.793 166.244 178.494 165.412 178.494 163.748V158.586H179.479V163.59ZM181.189 166.648V165.488C181.322 165.605 181.48 165.711 181.664 165.805C181.852 165.898 182.047 165.978 182.25 166.045C182.457 166.107 182.664 166.156 182.871 166.191C183.078 166.226 183.27 166.244 183.445 166.244C184.051 166.244 184.502 166.133 184.799 165.91C185.1 165.683 185.25 165.359 185.25 164.937C185.25 164.711 185.199 164.514 185.098 164.346C185 164.178 184.863 164.025 184.688 163.889C184.512 163.748 184.303 163.615 184.061 163.49C183.822 163.361 183.564 163.226 183.287 163.086C182.994 162.937 182.721 162.787 182.467 162.635C182.213 162.482 181.992 162.314 181.805 162.131C181.617 161.947 181.469 161.74 181.359 161.51C181.254 161.275 181.201 161.002 181.201 160.689C181.201 160.307 181.285 159.974 181.453 159.693C181.621 159.408 181.842 159.174 182.115 158.99C182.389 158.807 182.699 158.67 183.047 158.58C183.398 158.49 183.756 158.445 184.119 158.445C184.947 158.445 185.551 158.545 185.93 158.744V159.851C185.434 159.508 184.797 159.336 184.02 159.336C183.805 159.336 183.59 159.359 183.375 159.406C183.16 159.449 182.969 159.521 182.801 159.623C182.633 159.724 182.496 159.855 182.391 160.016C182.285 160.176 182.232 160.371 182.232 160.601C182.232 160.816 182.271 161.002 182.35 161.158C182.432 161.314 182.551 161.457 182.707 161.586C182.863 161.715 183.053 161.84 183.275 161.961C183.502 162.082 183.762 162.215 184.055 162.359C184.355 162.508 184.641 162.664 184.91 162.828C185.18 162.992 185.416 163.174 185.619 163.373C185.822 163.572 185.982 163.793 186.1 164.035C186.221 164.277 186.281 164.555 186.281 164.867C186.281 165.281 186.199 165.633 186.035 165.922C185.875 166.207 185.656 166.439 185.379 166.619C185.105 166.799 184.789 166.928 184.43 167.006C184.07 167.088 183.691 167.129 183.293 167.129C183.16 167.129 182.996 167.117 182.801 167.094C182.605 167.074 182.406 167.043 182.203 167C182 166.961 181.807 166.912 181.623 166.853C181.443 166.791 181.299 166.723 181.189 166.648ZM192.926 159.476H190.5V166.988H189.516V159.476H187.096V158.586H192.926V159.476ZM200.965 160.789C200.965 160.531 200.924 160.307 200.842 160.115C200.764 159.924 200.654 159.766 200.514 159.641C200.377 159.512 200.215 159.416 200.027 159.353C199.84 159.291 199.637 159.26 199.418 159.26C199.23 159.26 199.047 159.285 198.867 159.336C198.688 159.387 198.512 159.457 198.34 159.547C198.172 159.637 198.008 159.744 197.848 159.869C197.691 159.994 197.545 160.133 197.408 160.285V159.254C197.678 158.992 197.979 158.793 198.311 158.656C198.646 158.516 199.055 158.445 199.535 158.445C199.879 158.445 200.197 158.496 200.49 158.598C200.783 158.695 201.037 158.84 201.252 159.031C201.467 159.223 201.635 159.459 201.756 159.74C201.881 160.021 201.943 160.344 201.943 160.707C201.943 161.039 201.904 161.34 201.826 161.609C201.752 161.879 201.637 162.133 201.48 162.371C201.328 162.609 201.135 162.838 200.9 163.057C200.666 163.275 200.391 163.498 200.074 163.724C199.68 164.006 199.354 164.246 199.096 164.445C198.842 164.644 198.639 164.832 198.486 165.008C198.338 165.18 198.232 165.353 198.17 165.529C198.111 165.701 198.082 165.9 198.082 166.127H202.266V166.988H197.08V166.572C197.08 166.213 197.119 165.896 197.197 165.623C197.275 165.349 197.404 165.09 197.584 164.844C197.764 164.598 197.998 164.351 198.287 164.105C198.58 163.859 198.938 163.582 199.359 163.273C199.664 163.055 199.918 162.846 200.121 162.646C200.328 162.447 200.494 162.248 200.619 162.049C200.744 161.849 200.832 161.648 200.883 161.445C200.938 161.238 200.965 161.019 200.965 160.789ZM208.887 162.752C208.887 163.455 208.822 164.078 208.693 164.621C208.568 165.164 208.385 165.623 208.143 165.998C207.904 166.369 207.609 166.652 207.258 166.848C206.91 167.039 206.514 167.135 206.068 167.135C205.646 167.135 205.27 167.043 204.938 166.859C204.609 166.672 204.332 166.4 204.105 166.045C203.879 165.689 203.707 165.254 203.59 164.738C203.473 164.219 203.414 163.625 203.414 162.957C203.414 162.223 203.475 161.574 203.596 161.012C203.721 160.449 203.902 159.978 204.141 159.599C204.379 159.217 204.674 158.93 205.025 158.738C205.381 158.543 205.787 158.445 206.244 158.445C208.006 158.445 208.887 159.881 208.887 162.752ZM207.902 162.846C207.902 160.455 207.334 159.26 206.197 159.26C204.998 159.26 204.398 160.476 204.398 162.91C204.398 165.18 204.986 166.314 206.162 166.314C207.322 166.314 207.902 165.158 207.902 162.846ZM213.902 160.789C213.902 160.531 213.861 160.307 213.779 160.115C213.701 159.924 213.592 159.766 213.451 159.641C213.314 159.512 213.152 159.416 212.965 159.353C212.777 159.291 212.574 159.26 212.355 159.26C212.168 159.26 211.984 159.285 211.805 159.336C211.625 159.387 211.449 159.457 211.277 159.547C211.109 159.637 210.945 159.744 210.785 159.869C210.629 159.994 210.482 160.133 210.346 160.285V159.254C210.615 158.992 210.916 158.793 211.248 158.656C211.584 158.516 211.992 158.445 212.473 158.445C212.816 158.445 213.135 158.496 213.428 158.598C213.721 158.695 213.975 158.84 214.189 159.031C214.404 159.223 214.572 159.459 214.693 159.74C214.818 160.021 214.881 160.344 214.881 160.707C214.881 161.039 214.842 161.34 214.764 161.609C214.689 161.879 214.574 162.133 214.418 162.371C214.266 162.609 214.072 162.838 213.838 163.057C213.604 163.275 213.328 163.498 213.012 163.724C212.617 164.006 212.291 164.246 212.033 164.445C211.779 164.644 211.576 164.832 211.424 165.008C211.275 165.18 211.17 165.353 211.107 165.529C211.049 165.701 211.02 165.9 211.02 166.127H215.203V166.988H210.018V166.572C210.018 166.213 210.057 165.896 210.135 165.623C210.213 165.349 210.342 165.09 210.521 164.844C210.701 164.598 210.936 164.351 211.225 164.105C211.518 163.859 211.875 163.582 212.297 163.273C212.602 163.055 212.855 162.846 213.059 162.646C213.266 162.447 213.432 162.248 213.557 162.049C213.682 161.849 213.77 161.648 213.82 161.445C213.875 161.238 213.902 161.019 213.902 160.789ZM220.371 160.789C220.371 160.531 220.33 160.307 220.248 160.115C220.17 159.924 220.061 159.766 219.92 159.641C219.783 159.512 219.621 159.416 219.434 159.353C219.246 159.291 219.043 159.26 218.824 159.26C218.637 159.26 218.453 159.285 218.273 159.336C218.094 159.387 217.918 159.457 217.746 159.547C217.578 159.637 217.414 159.744 217.254 159.869C217.098 159.994 216.951 160.133 216.814 160.285V159.254C217.084 158.992 217.385 158.793 217.717 158.656C218.053 158.516 218.461 158.445 218.941 158.445C219.285 158.445 219.604 158.496 219.896 158.598C220.189 158.695 220.443 158.84 220.658 159.031C220.873 159.223 221.041 159.459 221.162 159.74C221.287 160.021 221.35 160.344 221.35 160.707C221.35 161.039 221.311 161.34 221.232 161.609C221.158 161.879 221.043 162.133 220.887 162.371C220.734 162.609 220.541 162.838 220.307 163.057C220.072 163.275 219.797 163.498 219.48 163.724C219.086 164.006 218.76 164.246 218.502 164.445C218.248 164.644 218.045 164.832 217.893 165.008C217.744 165.18 217.639 165.353 217.576 165.529C217.518 165.701 217.488 165.9 217.488 166.127H221.672V166.988H216.486V166.572C216.486 166.213 216.525 165.896 216.604 165.623C216.682 165.349 216.811 165.09 216.99 164.844C217.17 164.598 217.404 164.351 217.693 164.105C217.986 163.859 218.344 163.582 218.766 163.273C219.07 163.055 219.324 162.846 219.527 162.646C219.734 162.447 219.9 162.248 220.025 162.049C220.15 161.849 220.238 161.648 220.289 161.445C220.344 161.238 220.371 161.019 220.371 160.789Z" fill="black"/>
<path d="M164.977 183.657C164.977 184.36 164.912 184.984 164.783 185.526C164.658 186.069 164.475 186.528 164.232 186.903C163.994 187.275 163.699 187.558 163.348 187.753C163 187.944 162.604 188.04 162.158 188.04C161.736 188.04 161.359 187.948 161.027 187.765C160.699 187.577 160.422 187.306 160.195 186.95C159.969 186.595 159.797 186.159 159.68 185.644C159.562 185.124 159.504 184.53 159.504 183.862C159.504 183.128 159.564 182.48 159.686 181.917C159.811 181.355 159.992 180.884 160.23 180.505C160.469 180.122 160.764 179.835 161.115 179.644C161.471 179.448 161.877 179.351 162.334 179.351C164.096 179.351 164.977 180.786 164.977 183.657ZM163.992 183.751C163.992 181.36 163.424 180.165 162.287 180.165C161.088 180.165 160.488 181.382 160.488 183.816C160.488 186.085 161.076 187.22 162.252 187.22C163.412 187.22 163.992 186.064 163.992 183.751ZM171.146 185.327C171.146 185.737 171.076 186.109 170.936 186.441C170.795 186.773 170.594 187.058 170.332 187.296C170.074 187.534 169.762 187.718 169.395 187.847C169.027 187.976 168.619 188.04 168.17 188.04C167.389 188.04 166.809 187.923 166.43 187.689V186.669C167 187.036 167.584 187.22 168.182 187.22C168.486 187.22 168.76 187.175 169.002 187.085C169.248 186.995 169.457 186.87 169.629 186.71C169.801 186.55 169.932 186.357 170.021 186.13C170.115 185.903 170.162 185.655 170.162 185.386C170.162 184.839 169.979 184.411 169.611 184.103C169.244 183.79 168.711 183.634 168.012 183.634C167.898 183.634 167.779 183.636 167.654 183.64C167.529 183.644 167.404 183.65 167.279 183.657C167.154 183.661 167.031 183.667 166.91 183.675C166.793 183.683 166.686 183.693 166.588 183.704L166.875 179.491H170.76V180.359H167.707L167.537 182.825C167.662 182.818 167.795 182.812 167.936 182.808C168.076 182.8 168.201 182.796 168.311 182.796C168.756 182.796 169.154 182.855 169.506 182.972C169.857 183.089 170.154 183.257 170.396 183.476C170.643 183.691 170.828 183.956 170.953 184.273C171.082 184.585 171.146 184.937 171.146 185.327ZM176.537 183.066C176.357 183.066 176.203 183.001 176.074 182.872C175.949 182.743 175.887 182.589 175.887 182.409C175.887 182.23 175.949 182.077 176.074 181.952C176.203 181.827 176.357 181.765 176.537 181.765C176.721 181.765 176.877 181.827 177.006 181.952C177.135 182.077 177.199 182.23 177.199 182.409C177.199 182.589 177.135 182.743 177.006 182.872C176.877 183.001 176.721 183.066 176.537 183.066ZM176.537 188.023C176.357 188.023 176.203 187.958 176.074 187.829C175.949 187.7 175.887 187.546 175.887 187.366C175.887 187.187 175.949 187.032 176.074 186.903C176.203 186.771 176.357 186.704 176.537 186.704C176.721 186.704 176.877 186.771 177.006 186.903C177.135 187.032 177.199 187.187 177.199 187.366C177.199 187.546 177.135 187.7 177.006 187.829C176.877 187.958 176.721 188.023 176.537 188.023ZM186.709 185.515C186.709 185.894 186.637 186.239 186.492 186.552C186.352 186.86 186.15 187.126 185.889 187.349C185.631 187.568 185.32 187.737 184.957 187.859C184.594 187.98 184.193 188.04 183.756 188.04C182.955 188.04 182.318 187.888 181.846 187.583V186.552C182.412 186.997 183.061 187.22 183.791 187.22C184.084 187.22 184.348 187.183 184.582 187.109C184.82 187.034 185.023 186.927 185.191 186.786C185.363 186.646 185.494 186.476 185.584 186.276C185.678 186.077 185.725 185.853 185.725 185.603C185.725 184.505 184.943 183.956 183.381 183.956H182.684V183.142H183.346C184.729 183.142 185.42 182.626 185.42 181.595C185.42 180.642 184.893 180.165 183.838 180.165C183.244 180.165 182.688 180.364 182.168 180.763V179.831C182.703 179.511 183.34 179.351 184.078 179.351C184.43 179.351 184.748 179.4 185.033 179.497C185.318 179.595 185.562 179.732 185.766 179.907C185.969 180.083 186.125 180.294 186.234 180.54C186.348 180.786 186.404 181.058 186.404 181.355C186.404 182.46 185.846 183.171 184.729 183.487V183.511C185.014 183.542 185.277 183.612 185.52 183.722C185.762 183.827 185.971 183.966 186.146 184.138C186.322 184.31 186.459 184.513 186.557 184.747C186.658 184.978 186.709 185.234 186.709 185.515ZM193.57 183.657C193.57 184.36 193.506 184.984 193.377 185.526C193.252 186.069 193.068 186.528 192.826 186.903C192.588 187.275 192.293 187.558 191.941 187.753C191.594 187.944 191.197 188.04 190.752 188.04C190.33 188.04 189.953 187.948 189.621 187.765C189.293 187.577 189.016 187.306 188.789 186.95C188.562 186.595 188.391 186.159 188.273 185.644C188.156 185.124 188.098 184.53 188.098 183.862C188.098 183.128 188.158 182.48 188.279 181.917C188.404 181.355 188.586 180.884 188.824 180.505C189.062 180.122 189.357 179.835 189.709 179.644C190.064 179.448 190.471 179.351 190.928 179.351C192.689 179.351 193.57 180.786 193.57 183.657ZM192.586 183.751C192.586 181.36 192.018 180.165 190.881 180.165C189.682 180.165 189.082 181.382 189.082 183.816C189.082 186.085 189.67 187.22 190.846 187.22C192.006 187.22 192.586 186.064 192.586 183.751Z" fill="black"/>
<path d="M135.307 215.897C135.127 215.897 134.973 215.832 134.844 215.703C134.719 215.574 134.656 215.42 134.656 215.24C134.656 215.061 134.719 214.906 134.844 214.777C134.973 214.645 135.127 214.578 135.307 214.578C135.49 214.578 135.646 214.645 135.775 214.777C135.904 214.906 135.969 215.061 135.969 215.24C135.969 215.42 135.904 215.574 135.775 215.703C135.646 215.832 135.49 215.897 135.307 215.897ZM137.908 215.897C137.729 215.897 137.574 215.832 137.445 215.703C137.32 215.574 137.258 215.42 137.258 215.24C137.258 215.061 137.32 214.906 137.445 214.777C137.574 214.645 137.729 214.578 137.908 214.578C138.092 214.578 138.248 214.645 138.377 214.777C138.506 214.906 138.57 215.061 138.57 215.24C138.57 215.42 138.506 215.574 138.377 215.703C138.248 215.832 138.092 215.897 137.908 215.897ZM140.51 215.897C140.33 215.897 140.176 215.832 140.047 215.703C139.922 215.574 139.859 215.42 139.859 215.24C139.859 215.061 139.922 214.906 140.047 214.777C140.176 214.645 140.33 214.578 140.51 214.578C140.693 214.578 140.85 214.645 140.979 214.777C141.107 214.906 141.172 215.061 141.172 215.24C141.172 215.42 141.107 215.574 140.979 215.703C140.85 215.832 140.693 215.897 140.51 215.897ZM149.1 215.428V214.268C149.232 214.385 149.391 214.49 149.574 214.584C149.762 214.678 149.957 214.758 150.16 214.824C150.367 214.887 150.574 214.936 150.781 214.971C150.988 215.006 151.18 215.024 151.355 215.024C151.961 215.024 152.412 214.912 152.709 214.69C153.01 214.463 153.16 214.139 153.16 213.717C153.16 213.49 153.109 213.293 153.008 213.125C152.91 212.957 152.773 212.805 152.598 212.668C152.422 212.527 152.213 212.395 151.971 212.27C151.732 212.141 151.475 212.006 151.197 211.865C150.904 211.717 150.631 211.567 150.377 211.414C150.123 211.262 149.902 211.094 149.715 210.91C149.527 210.727 149.379 210.52 149.27 210.289C149.164 210.055 149.111 209.781 149.111 209.469C149.111 209.086 149.195 208.754 149.363 208.473C149.531 208.188 149.752 207.953 150.025 207.77C150.299 207.586 150.609 207.449 150.957 207.359C151.309 207.27 151.666 207.225 152.029 207.225C152.857 207.225 153.461 207.324 153.84 207.524V208.631C153.344 208.287 152.707 208.115 151.93 208.115C151.715 208.115 151.5 208.139 151.285 208.186C151.07 208.229 150.879 208.301 150.711 208.402C150.543 208.504 150.406 208.635 150.301 208.795C150.195 208.955 150.143 209.151 150.143 209.381C150.143 209.596 150.182 209.781 150.26 209.938C150.342 210.094 150.461 210.236 150.617 210.365C150.773 210.494 150.963 210.619 151.186 210.74C151.412 210.861 151.672 210.994 151.965 211.139C152.266 211.287 152.551 211.443 152.82 211.608C153.09 211.772 153.326 211.953 153.529 212.152C153.732 212.352 153.893 212.572 154.01 212.815C154.131 213.057 154.191 213.334 154.191 213.647C154.191 214.061 154.109 214.412 153.945 214.701C153.785 214.986 153.566 215.219 153.289 215.399C153.016 215.578 152.699 215.707 152.34 215.785C151.98 215.867 151.602 215.908 151.203 215.908C151.07 215.908 150.906 215.897 150.711 215.873C150.516 215.854 150.316 215.822 150.113 215.779C149.91 215.74 149.717 215.692 149.533 215.633C149.354 215.57 149.209 215.502 149.1 215.428ZM162.371 215.768H161.281L160.391 213.412H156.828L155.99 215.768H154.895L158.117 207.365H159.137L162.371 215.768ZM160.068 212.527L158.75 208.947C158.707 208.83 158.664 208.643 158.621 208.385H158.598C158.559 208.623 158.514 208.811 158.463 208.947L157.156 212.527H160.068ZM167.715 208.256H165.289V215.768H164.305V208.256H161.885V207.365H167.715V208.256ZM175.186 212.369C175.186 214.729 174.121 215.908 171.992 215.908C169.953 215.908 168.934 214.774 168.934 212.504V207.365H169.918V212.44C169.918 214.162 170.645 215.024 172.098 215.024C173.5 215.024 174.201 214.192 174.201 212.527V207.365H175.186V212.369ZM183.312 215.768H182.141L180.734 213.412C180.605 213.193 180.48 213.008 180.359 212.856C180.238 212.699 180.113 212.572 179.984 212.475C179.859 212.377 179.723 212.307 179.574 212.264C179.43 212.217 179.266 212.193 179.082 212.193H178.273V215.768H177.289V207.365H179.797C180.164 207.365 180.502 207.412 180.811 207.506C181.123 207.596 181.393 207.734 181.619 207.922C181.85 208.109 182.029 208.344 182.158 208.625C182.287 208.902 182.352 209.229 182.352 209.604C182.352 209.897 182.307 210.166 182.217 210.412C182.131 210.654 182.006 210.871 181.842 211.063C181.682 211.254 181.486 211.418 181.256 211.555C181.029 211.688 180.773 211.791 180.488 211.865V211.889C180.629 211.951 180.75 212.024 180.852 212.106C180.957 212.184 181.057 212.277 181.15 212.387C181.244 212.496 181.336 212.621 181.426 212.762C181.52 212.899 181.623 213.059 181.736 213.242L183.312 215.768ZM178.273 208.256V211.303H179.609C179.855 211.303 180.082 211.266 180.289 211.192C180.5 211.117 180.682 211.012 180.834 210.875C180.986 210.734 181.105 210.565 181.191 210.365C181.277 210.162 181.32 209.936 181.32 209.686C181.32 209.236 181.174 208.887 180.881 208.637C180.592 208.383 180.172 208.256 179.621 208.256H178.273ZM184.473 215.768V207.365H186.793C189.754 207.365 191.234 208.731 191.234 211.461C191.234 212.758 190.822 213.801 189.998 214.59C189.178 215.375 188.078 215.768 186.699 215.768H184.473ZM185.457 208.256V214.877H186.711C187.812 214.877 188.67 214.582 189.283 213.992C189.896 213.402 190.203 212.567 190.203 211.484C190.203 209.332 189.059 208.256 186.77 208.256H185.457ZM199.098 215.768H198.008L197.117 213.412H193.555L192.717 215.768H191.621L194.844 207.365H195.863L199.098 215.768ZM196.795 212.527L195.477 208.947C195.434 208.83 195.391 208.643 195.348 208.385H195.324C195.285 208.623 195.24 208.811 195.189 208.947L193.883 212.527H196.795ZM204.98 207.365L202.209 212.662V215.768H201.225V212.686L198.523 207.365H199.643L201.523 211.162C201.547 211.209 201.615 211.381 201.729 211.678H201.746C201.785 211.545 201.859 211.373 201.969 211.162L203.938 207.365H204.98ZM213.488 214.432L212.551 217.315H211.865L212.551 214.432H213.488ZM216.09 214.432L215.152 217.315H214.467L215.152 214.432H216.09ZM218.691 214.432L217.754 217.315H217.068L217.754 214.432H218.691Z" fill="#2EB035"/>
<path d="M86.6113 255.579H85.8105V248.176H86.6113V255.579ZM92.2754 255.579H91.4746V254.788H91.4551C91.123 255.393 90.6087 255.696 89.9121 255.696C88.7207 255.696 88.125 254.986 88.125 253.567V250.579H88.9209V253.44C88.9209 254.495 89.3245 255.022 90.1318 255.022C90.5225 255.022 90.8431 254.879 91.0938 254.592C91.3477 254.303 91.4746 253.925 91.4746 253.46V250.579H92.2754V255.579ZM97.4756 255.579H96.6748V254.797H96.6553C96.307 255.396 95.7943 255.696 95.1172 255.696C94.6191 255.696 94.2285 255.564 93.9453 255.3C93.6654 255.037 93.5254 254.687 93.5254 254.251C93.5254 253.316 94.0755 252.773 95.1758 252.62L96.6748 252.41C96.6748 251.56 96.3314 251.135 95.6445 251.135C95.0423 251.135 94.4987 251.34 94.0137 251.751V250.93C94.5052 250.618 95.0716 250.462 95.7129 250.462C96.888 250.462 97.4756 251.083 97.4756 252.327V255.579ZM96.6748 253.049L95.4688 253.215C95.0977 253.268 94.8177 253.36 94.6289 253.494C94.4401 253.624 94.3457 253.857 94.3457 254.192C94.3457 254.436 94.432 254.636 94.6045 254.793C94.7803 254.946 95.013 255.022 95.3027 255.022C95.6999 255.022 96.027 254.884 96.2842 254.607C96.5446 254.327 96.6748 253.974 96.6748 253.547V253.049ZM103.135 255.579H102.334V252.727C102.334 251.666 101.947 251.135 101.172 251.135C100.771 251.135 100.439 251.287 100.176 251.589C99.9154 251.889 99.7852 252.268 99.7852 252.727V255.579H98.9844V250.579H99.7852V251.409H99.8047C100.182 250.777 100.729 250.462 101.445 250.462C101.992 250.462 102.41 250.639 102.7 250.994C102.99 251.345 103.135 251.855 103.135 252.522V255.579ZM108.228 255.579H107.427V254.797H107.407C107.059 255.396 106.546 255.696 105.869 255.696C105.371 255.696 104.98 255.564 104.697 255.3C104.417 255.037 104.277 254.687 104.277 254.251C104.277 253.316 104.827 252.773 105.928 252.62L107.427 252.41C107.427 251.56 107.083 251.135 106.396 251.135C105.794 251.135 105.251 251.34 104.766 251.751V250.93C105.257 250.618 105.824 250.462 106.465 250.462C107.64 250.462 108.228 251.083 108.228 252.327V255.579ZM107.427 253.049L106.221 253.215C105.85 253.268 105.57 253.36 105.381 253.494C105.192 253.624 105.098 253.857 105.098 254.192C105.098 254.436 105.184 254.636 105.356 254.793C105.532 254.946 105.765 255.022 106.055 255.022C106.452 255.022 106.779 254.884 107.036 254.607C107.297 254.327 107.427 253.974 107.427 253.547V253.049ZM112.344 251.389C112.204 251.282 112.002 251.228 111.738 251.228C111.396 251.228 111.11 251.389 110.879 251.712C110.651 252.034 110.537 252.473 110.537 253.03V255.579H109.736V250.579H110.537V251.609H110.557C110.671 251.257 110.845 250.984 111.079 250.789C111.313 250.59 111.576 250.491 111.865 250.491C112.074 250.491 112.233 250.514 112.344 250.559V251.389ZM119.536 255.579H118.735V254.797H118.716C118.368 255.396 117.855 255.696 117.178 255.696C116.68 255.696 116.289 255.564 116.006 255.3C115.726 255.037 115.586 254.687 115.586 254.251C115.586 253.316 116.136 252.773 117.236 252.62L118.735 252.41C118.735 251.56 118.392 251.135 117.705 251.135C117.103 251.135 116.559 251.34 116.074 251.751V250.93C116.566 250.618 117.132 250.462 117.773 250.462C118.949 250.462 119.536 251.083 119.536 252.327V255.579ZM118.735 253.049L117.529 253.215C117.158 253.268 116.878 253.36 116.689 253.494C116.501 253.624 116.406 253.857 116.406 254.192C116.406 254.436 116.493 254.636 116.665 254.793C116.841 254.946 117.074 255.022 117.363 255.022C117.76 255.022 118.088 254.884 118.345 254.607C118.605 254.327 118.735 253.974 118.735 253.547V253.049ZM121.865 254.856H121.846V257.879H121.045V250.579H121.846V251.458H121.865C122.259 250.794 122.835 250.462 123.594 250.462C124.238 250.462 124.741 250.686 125.103 251.135C125.464 251.581 125.645 252.18 125.645 252.932C125.645 253.769 125.441 254.439 125.034 254.944C124.627 255.445 124.071 255.696 123.364 255.696C122.716 255.696 122.217 255.416 121.865 254.856ZM121.846 252.839V253.538C121.846 253.951 121.979 254.303 122.246 254.592C122.516 254.879 122.858 255.022 123.271 255.022C123.757 255.022 124.136 254.837 124.409 254.465C124.686 254.094 124.824 253.578 124.824 252.918C124.824 252.361 124.696 251.925 124.438 251.609C124.181 251.293 123.833 251.135 123.394 251.135C122.928 251.135 122.554 251.298 122.271 251.624C121.987 251.946 121.846 252.351 121.846 252.839ZM127.744 254.856H127.725V257.879H126.924V250.579H127.725V251.458H127.744C128.138 250.794 128.714 250.462 129.473 250.462C130.117 250.462 130.62 250.686 130.981 251.135C131.343 251.581 131.523 252.18 131.523 252.932C131.523 253.769 131.32 254.439 130.913 254.944C130.506 255.445 129.95 255.696 129.243 255.696C128.595 255.696 128.096 255.416 127.744 254.856ZM127.725 252.839V253.538C127.725 253.951 127.858 254.303 128.125 254.592C128.395 254.879 128.737 255.022 129.15 255.022C129.635 255.022 130.015 254.837 130.288 254.465C130.565 254.094 130.703 253.578 130.703 252.918C130.703 252.361 130.575 251.925 130.317 251.609C130.06 251.293 129.712 251.135 129.272 251.135C128.807 251.135 128.433 251.298 128.149 251.624C127.866 251.946 127.725 252.351 127.725 252.839ZM139.59 255.579H138.789V254.788H138.77C138.438 255.393 137.923 255.696 137.227 255.696C136.035 255.696 135.439 254.986 135.439 253.567V250.579H136.235V253.44C136.235 254.495 136.639 255.022 137.446 255.022C137.837 255.022 138.158 254.879 138.408 254.592C138.662 254.303 138.789 253.925 138.789 253.46V250.579H139.59V255.579ZM140.908 255.398V254.539C141.344 254.861 141.825 255.022 142.349 255.022C143.052 255.022 143.403 254.788 143.403 254.319C143.403 254.186 143.372 254.073 143.311 253.982C143.252 253.888 143.171 253.805 143.066 253.733C142.965 253.661 142.845 253.598 142.705 253.543C142.568 253.484 142.42 253.424 142.261 253.362C142.039 253.274 141.844 253.186 141.675 253.098C141.509 253.007 141.369 252.906 141.255 252.796C141.144 252.682 141.06 252.553 141.001 252.41C140.946 252.267 140.918 252.099 140.918 251.907C140.918 251.672 140.972 251.466 141.079 251.287C141.187 251.104 141.33 250.953 141.509 250.833C141.688 250.709 141.891 250.616 142.119 250.554C142.35 250.492 142.588 250.462 142.832 250.462C143.265 250.462 143.652 250.536 143.994 250.686V251.497C143.626 251.256 143.203 251.135 142.725 251.135C142.575 251.135 142.44 251.153 142.319 251.189C142.199 251.222 142.095 251.269 142.007 251.331C141.922 251.393 141.855 251.467 141.807 251.555C141.761 251.64 141.738 251.734 141.738 251.839C141.738 251.969 141.761 252.078 141.807 252.166C141.855 252.254 141.925 252.332 142.017 252.4C142.108 252.468 142.218 252.53 142.349 252.586C142.479 252.641 142.627 252.701 142.793 252.766C143.014 252.851 143.213 252.939 143.389 253.03C143.564 253.118 143.714 253.219 143.838 253.333C143.962 253.443 144.056 253.572 144.121 253.718C144.189 253.865 144.224 254.039 144.224 254.241C144.224 254.488 144.168 254.703 144.058 254.885C143.95 255.068 143.805 255.219 143.623 255.339C143.441 255.46 143.231 255.549 142.993 255.608C142.756 255.667 142.507 255.696 142.246 255.696C141.732 255.696 141.286 255.597 140.908 255.398ZM149.478 253.279H145.947C145.96 253.836 146.11 254.265 146.396 254.568C146.683 254.871 147.077 255.022 147.578 255.022C148.141 255.022 148.659 254.837 149.131 254.465V255.217C148.691 255.536 148.11 255.696 147.388 255.696C146.681 255.696 146.126 255.47 145.723 255.017C145.319 254.561 145.117 253.922 145.117 253.098C145.117 252.32 145.337 251.687 145.776 251.199C146.219 250.707 146.768 250.462 147.422 250.462C148.076 250.462 148.582 250.673 148.94 251.096C149.299 251.519 149.478 252.107 149.478 252.859V253.279ZM148.657 252.6C148.654 252.138 148.542 251.778 148.32 251.521C148.102 251.264 147.798 251.135 147.407 251.135C147.03 251.135 146.709 251.27 146.445 251.541C146.182 251.811 146.019 252.164 145.957 252.6H148.657ZM150.391 255.398V254.539C150.827 254.861 151.307 255.022 151.831 255.022C152.534 255.022 152.886 254.788 152.886 254.319C152.886 254.186 152.855 254.073 152.793 253.982C152.734 253.888 152.653 253.805 152.549 253.733C152.448 253.661 152.327 253.598 152.188 253.543C152.051 253.484 151.903 253.424 151.743 253.362C151.522 253.274 151.326 253.186 151.157 253.098C150.991 253.007 150.851 252.906 150.737 252.796C150.627 252.682 150.542 252.553 150.483 252.41C150.428 252.267 150.4 252.099 150.4 251.907C150.4 251.672 150.454 251.466 150.562 251.287C150.669 251.104 150.812 250.953 150.991 250.833C151.17 250.709 151.374 250.616 151.602 250.554C151.833 250.492 152.07 250.462 152.314 250.462C152.747 250.462 153.135 250.536 153.477 250.686V251.497C153.109 251.256 152.686 251.135 152.207 251.135C152.057 251.135 151.922 251.153 151.802 251.189C151.681 251.222 151.577 251.269 151.489 251.331C151.405 251.393 151.338 251.467 151.289 251.555C151.243 251.64 151.221 251.734 151.221 251.839C151.221 251.969 151.243 252.078 151.289 252.166C151.338 252.254 151.408 252.332 151.499 252.4C151.59 252.468 151.701 252.53 151.831 252.586C151.961 252.641 152.109 252.701 152.275 252.766C152.497 252.851 152.695 252.939 152.871 253.03C153.047 253.118 153.197 253.219 153.32 253.333C153.444 253.443 153.538 253.572 153.604 253.718C153.672 253.865 153.706 254.039 153.706 254.241C153.706 254.488 153.651 254.703 153.54 254.885C153.433 255.068 153.288 255.219 153.105 255.339C152.923 255.46 152.713 255.549 152.476 255.608C152.238 255.667 151.989 255.696 151.729 255.696C151.214 255.696 150.768 255.597 150.391 255.398ZM161.665 250.579L159.365 256.38C158.955 257.415 158.379 257.932 157.637 257.932C157.428 257.932 157.254 257.911 157.114 257.869V257.151C157.287 257.21 157.445 257.239 157.588 257.239C157.992 257.239 158.294 256.998 158.496 256.516L158.896 255.569L156.943 250.579H157.832L159.185 254.426C159.201 254.475 159.235 254.602 159.287 254.807H159.316C159.333 254.729 159.365 254.605 159.414 254.436L160.835 250.579H161.665ZM164.619 255.696C163.88 255.696 163.289 255.463 162.847 254.998C162.407 254.529 162.188 253.909 162.188 253.137C162.188 252.297 162.417 251.642 162.876 251.17C163.335 250.698 163.955 250.462 164.736 250.462C165.482 250.462 166.063 250.691 166.479 251.15C166.899 251.609 167.109 252.245 167.109 253.059C167.109 253.857 166.883 254.496 166.431 254.978C165.981 255.457 165.378 255.696 164.619 255.696ZM164.678 251.135C164.163 251.135 163.757 251.311 163.457 251.663C163.158 252.011 163.008 252.493 163.008 253.108C163.008 253.7 163.159 254.168 163.462 254.509C163.765 254.851 164.17 255.022 164.678 255.022C165.195 255.022 165.592 254.854 165.869 254.519C166.149 254.184 166.289 253.707 166.289 253.089C166.289 252.464 166.149 251.982 165.869 251.643C165.592 251.305 165.195 251.135 164.678 251.135ZM172.432 255.579H171.631V254.788H171.611C171.279 255.393 170.765 255.696 170.068 255.696C168.877 255.696 168.281 254.986 168.281 253.567V250.579H169.077V253.44C169.077 254.495 169.481 255.022 170.288 255.022C170.679 255.022 170.999 254.879 171.25 254.592C171.504 254.303 171.631 253.925 171.631 253.46V250.579H172.432V255.579ZM176.66 251.389C176.52 251.282 176.318 251.228 176.055 251.228C175.713 251.228 175.426 251.389 175.195 251.712C174.967 252.034 174.854 252.473 174.854 253.03V255.579H174.053V250.579H174.854V251.609H174.873C174.987 251.257 175.161 250.984 175.396 250.789C175.63 250.59 175.892 250.491 176.182 250.491C176.39 250.491 176.549 250.514 176.66 250.559V251.389ZM179.971 255.398V254.539C180.407 254.861 180.887 255.022 181.411 255.022C182.114 255.022 182.466 254.788 182.466 254.319C182.466 254.186 182.435 254.073 182.373 253.982C182.314 253.888 182.233 253.805 182.129 253.733C182.028 253.661 181.908 253.598 181.768 253.543C181.631 253.484 181.483 253.424 181.323 253.362C181.102 253.274 180.907 253.186 180.737 253.098C180.571 253.007 180.431 252.906 180.317 252.796C180.207 252.682 180.122 252.553 180.063 252.41C180.008 252.267 179.98 252.099 179.98 251.907C179.98 251.672 180.034 251.466 180.142 251.287C180.249 251.104 180.392 250.953 180.571 250.833C180.75 250.709 180.954 250.616 181.182 250.554C181.413 250.492 181.65 250.462 181.895 250.462C182.327 250.462 182.715 250.536 183.057 250.686V251.497C182.689 251.256 182.266 251.135 181.787 251.135C181.637 251.135 181.502 251.153 181.382 251.189C181.261 251.222 181.157 251.269 181.069 251.331C180.985 251.393 180.918 251.467 180.869 251.555C180.824 251.64 180.801 251.734 180.801 251.839C180.801 251.969 180.824 252.078 180.869 252.166C180.918 252.254 180.988 252.332 181.079 252.4C181.17 252.468 181.281 252.53 181.411 252.586C181.541 252.641 181.689 252.701 181.855 252.766C182.077 252.851 182.275 252.939 182.451 253.03C182.627 253.118 182.777 253.219 182.9 253.333C183.024 253.443 183.118 253.572 183.184 253.718C183.252 253.865 183.286 254.039 183.286 254.241C183.286 254.488 183.231 254.703 183.12 254.885C183.013 255.068 182.868 255.219 182.686 255.339C182.503 255.46 182.293 255.549 182.056 255.608C181.818 255.667 181.569 255.696 181.309 255.696C180.794 255.696 180.348 255.597 179.971 255.398ZM188.501 250.579L186.201 256.38C185.791 257.415 185.215 257.932 184.473 257.932C184.264 257.932 184.09 257.911 183.95 257.869V257.151C184.123 257.21 184.281 257.239 184.424 257.239C184.827 257.239 185.13 256.998 185.332 256.516L185.732 255.569L183.779 250.579H184.668L186.021 254.426C186.037 254.475 186.071 254.602 186.123 254.807H186.152C186.169 254.729 186.201 254.605 186.25 254.436L187.671 250.579H188.501ZM189.062 255.398V254.539C189.499 254.861 189.979 255.022 190.503 255.022C191.206 255.022 191.558 254.788 191.558 254.319C191.558 254.186 191.527 254.073 191.465 253.982C191.406 253.888 191.325 253.805 191.221 253.733C191.12 253.661 190.999 253.598 190.859 253.543C190.723 253.484 190.575 253.424 190.415 253.362C190.194 253.274 189.998 253.186 189.829 253.098C189.663 253.007 189.523 252.906 189.409 252.796C189.299 252.682 189.214 252.553 189.155 252.41C189.1 252.267 189.072 252.099 189.072 251.907C189.072 251.672 189.126 251.466 189.233 251.287C189.341 251.104 189.484 250.953 189.663 250.833C189.842 250.709 190.046 250.616 190.273 250.554C190.505 250.492 190.742 250.462 190.986 250.462C191.419 250.462 191.807 250.536 192.148 250.686V251.497C191.781 251.256 191.357 251.135 190.879 251.135C190.729 251.135 190.594 251.153 190.474 251.189C190.353 251.222 190.249 251.269 190.161 251.331C190.076 251.393 190.01 251.467 189.961 251.555C189.915 251.64 189.893 251.734 189.893 251.839C189.893 251.969 189.915 252.078 189.961 252.166C190.01 252.254 190.08 252.332 190.171 252.4C190.262 252.468 190.373 252.53 190.503 252.586C190.633 252.641 190.781 252.701 190.947 252.766C191.169 252.851 191.367 252.939 191.543 253.03C191.719 253.118 191.868 253.219 191.992 253.333C192.116 253.443 192.21 253.572 192.275 253.718C192.344 253.865 192.378 254.039 192.378 254.241C192.378 254.488 192.323 254.703 192.212 254.885C192.104 255.068 191.96 255.219 191.777 255.339C191.595 255.46 191.385 255.549 191.147 255.608C190.91 255.667 190.661 255.696 190.4 255.696C189.886 255.696 189.44 255.597 189.062 255.398ZM195.933 255.53C195.744 255.634 195.495 255.686 195.186 255.686C194.31 255.686 193.872 255.198 193.872 254.221V251.262H193.013V250.579H193.872V249.358L194.673 249.099V250.579H195.933V251.262H194.673V254.08C194.673 254.415 194.73 254.654 194.844 254.797C194.958 254.941 195.146 255.012 195.41 255.012C195.612 255.012 195.786 254.957 195.933 254.846V255.53ZM201.021 253.279H197.49C197.503 253.836 197.653 254.265 197.939 254.568C198.226 254.871 198.62 255.022 199.121 255.022C199.684 255.022 200.202 254.837 200.674 254.465V255.217C200.234 255.536 199.653 255.696 198.931 255.696C198.224 255.696 197.669 255.47 197.266 255.017C196.862 254.561 196.66 253.922 196.66 253.098C196.66 252.32 196.88 251.687 197.319 251.199C197.762 250.707 198.311 250.462 198.965 250.462C199.619 250.462 200.125 250.673 200.483 251.096C200.841 251.519 201.021 252.107 201.021 252.859V253.279ZM200.2 252.6C200.197 252.138 200.085 251.778 199.863 251.521C199.645 251.264 199.341 251.135 198.95 251.135C198.573 251.135 198.252 251.27 197.988 251.541C197.725 251.811 197.562 252.164 197.5 252.6H200.2ZM209.336 255.579H208.535V252.708C208.535 252.154 208.449 251.754 208.276 251.506C208.107 251.259 207.821 251.135 207.417 251.135C207.075 251.135 206.784 251.292 206.543 251.604C206.305 251.917 206.187 252.291 206.187 252.727V255.579H205.386V252.61C205.386 251.627 205.007 251.135 204.248 251.135C203.896 251.135 203.607 251.283 203.379 251.58C203.151 251.873 203.037 252.255 203.037 252.727V255.579H202.236V250.579H203.037V251.37H203.057C203.411 250.764 203.929 250.462 204.609 250.462C204.951 250.462 205.249 250.558 205.503 250.75C205.757 250.938 205.931 251.187 206.025 251.497C206.396 250.807 206.95 250.462 207.686 250.462C208.786 250.462 209.336 251.14 209.336 252.498V255.579ZM217.861 255.579H217.061V254.729H217.041C216.67 255.374 216.097 255.696 215.322 255.696C214.694 255.696 214.191 255.473 213.813 255.027C213.439 254.578 213.252 253.967 213.252 253.196C213.252 252.369 213.46 251.707 213.877 251.209C214.294 250.711 214.849 250.462 215.542 250.462C216.229 250.462 216.729 250.732 217.041 251.272H217.061V248.176H217.861V255.579ZM217.061 253.318V252.581C217.061 252.177 216.927 251.835 216.66 251.555C216.393 251.275 216.055 251.135 215.645 251.135C215.156 251.135 214.772 251.314 214.492 251.672C214.212 252.031 214.072 252.525 214.072 253.157C214.072 253.733 214.206 254.189 214.473 254.524C214.743 254.856 215.104 255.022 215.557 255.022C216.003 255.022 216.364 254.861 216.641 254.539C216.921 254.216 217.061 253.81 217.061 253.318ZM223.501 253.279H219.971C219.984 253.836 220.133 254.265 220.42 254.568C220.706 254.871 221.1 255.022 221.602 255.022C222.165 255.022 222.682 254.837 223.154 254.465V255.217C222.715 255.536 222.134 255.696 221.411 255.696C220.705 255.696 220.15 255.47 219.746 255.017C219.342 254.561 219.141 253.922 219.141 253.098C219.141 252.32 219.36 251.687 219.8 251.199C220.243 250.707 220.791 250.462 221.445 250.462C222.1 250.462 222.606 250.673 222.964 251.096C223.322 251.519 223.501 252.107 223.501 252.859V253.279ZM222.681 252.6C222.677 252.138 222.565 251.778 222.344 251.521C222.126 251.264 221.821 251.135 221.431 251.135C221.053 251.135 220.732 251.27 220.469 251.541C220.205 251.811 220.042 252.164 219.98 252.6H222.681ZM227.188 248.88C227.031 248.792 226.854 248.748 226.655 248.748C226.095 248.748 225.815 249.101 225.815 249.807V250.579H226.987V251.262H225.815V255.579H225.02V251.262H224.165V250.579H225.02V249.768C225.02 249.244 225.171 248.831 225.474 248.528C225.776 248.222 226.154 248.069 226.606 248.069C226.851 248.069 227.044 248.098 227.188 248.157V248.88ZM228.262 249.309C228.118 249.309 227.996 249.26 227.896 249.163C227.795 249.065 227.744 248.941 227.744 248.792C227.744 248.642 227.795 248.518 227.896 248.421C227.996 248.32 228.118 248.269 228.262 248.269C228.408 248.269 228.532 248.32 228.633 248.421C228.737 248.518 228.789 248.642 228.789 248.792C228.789 248.935 228.737 249.057 228.633 249.158C228.532 249.259 228.408 249.309 228.262 249.309ZM228.652 255.579H227.852V250.579H228.652V255.579ZM234.424 255.579H233.623V252.727C233.623 251.666 233.236 251.135 232.461 251.135C232.061 251.135 231.729 251.287 231.465 251.589C231.204 251.889 231.074 252.268 231.074 252.727V255.579H230.273V250.579H231.074V251.409H231.094C231.471 250.777 232.018 250.462 232.734 250.462C233.281 250.462 233.7 250.639 233.989 250.994C234.279 251.345 234.424 251.855 234.424 252.522V255.579ZM239.956 253.279H236.426C236.439 253.836 236.589 254.265 236.875 254.568C237.161 254.871 237.555 255.022 238.057 255.022C238.62 255.022 239.137 254.837 239.609 254.465V255.217C239.17 255.536 238.589 255.696 237.866 255.696C237.16 255.696 236.605 255.47 236.201 255.017C235.798 254.561 235.596 253.922 235.596 253.098C235.596 252.32 235.815 251.687 236.255 251.199C236.698 250.707 237.246 250.462 237.9 250.462C238.555 250.462 239.061 250.673 239.419 251.096C239.777 251.519 239.956 252.107 239.956 252.859V253.279ZM239.136 252.6C239.132 252.138 239.02 251.778 238.799 251.521C238.581 251.264 238.276 251.135 237.886 251.135C237.508 251.135 237.188 251.27 236.924 251.541C236.66 251.811 236.497 252.164 236.436 252.6H239.136ZM245.439 255.579H244.639V254.729H244.619C244.248 255.374 243.675 255.696 242.9 255.696C242.272 255.696 241.769 255.473 241.392 255.027C241.017 254.578 240.83 253.967 240.83 253.196C240.83 252.369 241.038 251.707 241.455 251.209C241.872 250.711 242.427 250.462 243.12 250.462C243.807 250.462 244.307 250.732 244.619 251.272H244.639V248.176H245.439V255.579ZM244.639 253.318V252.581C244.639 252.177 244.505 251.835 244.238 251.555C243.971 251.275 243.633 251.135 243.223 251.135C242.734 251.135 242.35 251.314 242.07 251.672C241.79 252.031 241.65 252.525 241.65 253.157C241.65 253.733 241.784 254.189 242.051 254.524C242.321 254.856 242.682 255.022 243.135 255.022C243.581 255.022 243.942 254.861 244.219 254.539C244.499 254.216 244.639 253.81 244.639 253.318ZM252.124 255.53C251.935 255.634 251.686 255.686 251.377 255.686C250.501 255.686 250.063 255.198 250.063 254.221V251.262H249.204V250.579H250.063V249.358L250.864 249.099V250.579H252.124V251.262H250.864V254.08C250.864 254.415 250.921 254.654 251.035 254.797C251.149 254.941 251.338 255.012 251.602 255.012C251.803 255.012 251.978 254.957 252.124 254.846V255.53ZM253.604 249.309C253.46 249.309 253.338 249.26 253.237 249.163C253.136 249.065 253.086 248.941 253.086 248.792C253.086 248.642 253.136 248.518 253.237 248.421C253.338 248.32 253.46 248.269 253.604 248.269C253.75 248.269 253.874 248.32 253.975 248.421C254.079 248.518 254.131 248.642 254.131 248.792C254.131 248.935 254.079 249.057 253.975 249.158C253.874 249.259 253.75 249.309 253.604 249.309ZM253.994 255.579H253.193V250.579H253.994V255.579ZM262.715 255.579H261.914V252.708C261.914 252.154 261.828 251.754 261.655 251.506C261.486 251.259 261.2 251.135 260.796 251.135C260.454 251.135 260.163 251.292 259.922 251.604C259.684 251.917 259.565 252.291 259.565 252.727V255.579H258.765V252.61C258.765 251.627 258.385 251.135 257.627 251.135C257.275 251.135 256.986 251.283 256.758 251.58C256.53 251.873 256.416 252.255 256.416 252.727V255.579H255.615V250.579H256.416V251.37H256.436C256.79 250.764 257.308 250.462 257.988 250.462C258.33 250.462 258.628 250.558 258.882 250.75C259.136 250.938 259.31 251.187 259.404 251.497C259.775 250.807 260.329 250.462 261.064 250.462C262.165 250.462 262.715 251.14 262.715 252.498V255.579ZM268.247 253.279H264.717C264.73 253.836 264.88 254.265 265.166 254.568C265.452 254.871 265.846 255.022 266.348 255.022C266.911 255.022 267.428 254.837 267.9 254.465V255.217C267.461 255.536 266.88 255.696 266.157 255.696C265.451 255.696 264.896 255.47 264.492 255.017C264.089 254.561 263.887 253.922 263.887 253.098C263.887 252.32 264.106 251.687 264.546 251.199C264.989 250.707 265.537 250.462 266.191 250.462C266.846 250.462 267.352 250.673 267.71 251.096C268.068 251.519 268.247 252.107 268.247 252.859V253.279ZM267.427 252.6C267.424 252.138 267.311 251.778 267.09 251.521C266.872 251.264 266.567 251.135 266.177 251.135C265.799 251.135 265.479 251.27 265.215 251.541C264.951 251.811 264.788 252.164 264.727 252.6H267.427Z" fill="#5C6A5D"/>
<rect x="157.5" y="94.5591" width="39" height="39" rx="19.5" stroke="#2EB035"/>
<path d="M181.849 107.695L176.9 112.645L171.95 107.695C171.565 107.311 170.92 107.311 170.536 107.695C170.151 108.08 170.151 108.725 170.536 109.109L176.9 115.473L183.263 109.109C183.648 108.725 183.648 108.08 183.263 107.695C182.879 107.311 182.234 107.311 181.849 107.695ZM171.95 120.423L176.9 115.473L181.849 120.423C182.234 120.808 182.879 120.808 183.263 120.423C183.648 120.038 183.648 119.393 183.263 119.009L176.9 112.645L170.536 119.009C170.151 119.393 170.151 120.038 170.536 120.423C170.92 120.808 171.565 120.808 171.95 120.423Z" fill="#207925"/>
</g>
<defs>
<filter id="filter0_d_56_11" x="0" y="85" width="354" height="185" filterUnits="userSpaceOnUse" color-interpolation-filters="sRGB">
<feFlood flood-opacity="0" result="BackgroundImageFix"/>
<feColorMatrix in="SourceAlpha" type="matrix" values="0 0 0 0 0 0 0 0 0 0 0 0 0 0 0 0 0 0 127 0" result="hardAlpha"/>
<feOffset dy="4"/>
<feGaussianBlur stdDeviation="2"/>
<feComposite in2="hardAlpha" operator="out"/>
<feColorMatrix type="matrix" values="0 0 0 0 0 0 0 0 0 0 0 0 0 0 0 0 0 0 0.25 0"/>
<feBlend mode="normal" in2="BackgroundImageFix" result="effect1_dropShadow_56_11"/>
<feBlend mode="normal" in="SourceGraphic" in2="effect1_dropShadow_56_11" result="shape"/>
</filter>
<filter id="filter1_d_56_11" x="0" y="85" width="354" height="185" filterUnits="userSpaceOnUse" color-interpolation-filters="sRGB">
<feFlood flood-opacity="0" result="BackgroundImageFix"/>
<feColorMatrix in="SourceAlpha" type="matrix" values="0 0 0 0 0 0 0 0 0 0 0 0 0 0 0 0 0 0 127 0" result="hardAlpha"/>
<feOffset dy="4"/>
<feGaussianBlur stdDeviation="2"/>
<feComposite in2="hardAlpha" operator="out"/>
<feColorMatrix type="matrix" values="0 0 0 0 0 0 0 0 0 0 0 0 0 0 0 0 0 0 0.25 0"/>
<feBlend mode="normal" in2="BackgroundImageFix" result="effect1_dropShadow_56_11"/>
<feBlend mode="normal" in="SourceGraphic" in2="effect1_dropShadow_56_11" result="shape"/>
</filter>
</defs>
</svg>
